<svg width="105" height="29" viewBox="0 0 105 29" fill="none" xmlns="http://www.w3.org/2000/svg">
<path d="M15.5392 21.8411C13.499 21.0833 11.4005 20.9667 9.47689 21.4914C8.13618 21.8411 6.85377 22.5406 5.68793 23.415L4.87183 24.1145L4.63867 24.3477L5.16329 24.814C5.22158 24.814 5.22159 24.8723 5.27988 24.9306C5.39647 25.0472 5.51306 25.1054 5.68793 25.222L6.03767 25.4552L6.38742 25.1637C6.44571 25.1054 6.5623 24.9889 6.67888 24.9306C7.72813 24.0562 8.89396 23.4733 10.1181 23.1818C11.692 22.7738 13.3824 22.8321 15.0729 23.4733C16.4719 23.9979 19.3282 24.6391 22.7674 23.1818L22.884 23.1235L23.0588 22.9487C23.0588 22.8904 23.1171 22.8904 23.1754 22.8321C23.4669 22.4823 23.7583 22.1326 23.9915 21.7245L25.1573 19.9175L23.292 20.9667C20.5523 22.4823 18.0458 22.7738 15.5392 21.8411Z" fill="#155EEF"/>
<path d="M7.55285 15.5459C9.12673 15.1378 10.8172 15.1961 12.5076 15.8373C14.373 16.5368 19.1529 17.5278 24.5157 12.6896L25.3901 11.8152L25.4484 11.7569L25.6816 11.5237L25.565 11.2323C25.5067 10.9991 25.3901 10.7077 25.2735 10.4162L24.9821 9.6001L24.3991 10.183C24.3408 10.2996 24.2243 10.3579 24.1077 10.4745C21.5428 13.0976 17.579 15.779 13.0323 14.1469C10.9921 13.3891 8.89356 13.2725 6.96994 13.7971C5.1046 14.3217 3.47243 15.3127 1.95685 16.7117V16.6534L1.08247 17.5861C1.08247 17.6444 1.02419 17.6444 0.965901 17.7027L0.791016 17.8775L0.849311 18.1107C0.907603 18.4021 1.02418 18.6936 1.08247 18.9851L1.43223 19.9177L2.01514 19.1599C2.07344 19.0434 2.19002 18.9851 2.24831 18.8685C3.47243 17.7609 5.16289 16.1871 7.55285 15.5459Z" fill="#155EEF"/>
<path d="M1.89901 14.4966C3.23972 13.0976 4.7553 12.2233 6.38746 11.7569C7.96134 11.3489 9.6518 11.4072 11.3423 12.0484C16.5885 13.972 21.1353 10.8243 23.1172 9.1338L23.875 8.37602L24.1664 8.14284L23.9333 7.7931C23.7584 7.61823 23.6418 7.38506 23.4669 7.15189L23.1172 6.68555L22.7091 7.0936C22.6508 7.15189 22.5343 7.26847 22.476 7.32676C20.0277 9.65843 16.2388 12.0484 11.9252 10.4162C9.88496 9.65844 7.78647 9.54185 5.86284 10.0665C4.63872 10.4162 3.47288 10.9991 2.30705 11.7569L1.08292 12.7479C0.966333 12.8645 0.908042 12.9228 0.791458 13.0394L0.674886 13.1559V13.3308C0.616594 13.7389 0.616587 14.1469 0.558295 14.4966L0.5 15.9539L1.49097 14.9047C1.60755 14.7881 1.72414 14.6132 1.89901 14.4966Z" fill="#155EEF"/>
<path d="M17.2301 25.8051L17.1135 26.1548L17.2301 25.8051C17.0552 25.7468 16.9386 25.6885 16.7637 25.6302C14.7235 24.8724 12.625 24.7558 10.7014 25.2804C10.2933 25.397 9.88531 25.5136 9.47727 25.6885L8.07825 26.3297L7.72852 26.5045L8.89435 26.9126C9.2441 27.0292 9.59384 27.1458 9.94359 27.2623L10.1185 27.3206L10.2933 27.2623C10.4682 27.2041 10.6431 27.0875 10.818 27.0875C10.9346 27.0875 11.0511 27.0292 11.1677 26.9709C12.5667 26.6211 14.0823 26.6211 15.7145 27.1458C15.8893 27.204 16.0059 27.2623 16.1808 27.3206L16.4723 27.4372L16.6471 27.3789C17.0552 27.2623 17.5215 27.1458 17.8713 26.9709L19.5034 26.388L17.813 25.9799C17.6381 25.9216 17.4049 25.8633 17.2301 25.8051Z" fill="#155EEF"/>
<path d="M26.1485 13.7388L25.2741 14.6131C25.1576 14.7297 25.041 14.8463 24.9244 14.9629C22.5345 17.2363 18.6872 19.6845 14.3736 18.0523C12.3334 17.2946 10.2349 17.178 8.31129 17.7026C6.50425 18.2272 4.87207 19.1599 3.41478 20.5589L2.65699 21.375L2.42383 21.6664L2.65699 22.0162C2.83187 22.2494 2.94846 22.4242 3.06504 22.6574L3.41478 23.182L3.82282 22.6574C3.88112 22.5991 3.9977 22.4825 4.05599 22.4242C5.45499 20.9086 6.97057 19.976 8.71932 19.5096C10.2932 19.1016 11.9837 19.1599 13.6741 19.8011C15.1314 20.3257 16.647 20.5006 18.1626 20.3257C20.844 20.0343 23.5254 18.5187 25.5073 16.8282C25.6239 16.7117 25.7405 16.6534 25.8571 16.5368L26.032 16.3619V16.187C26.032 15.8373 26.0902 15.4292 26.0902 15.0795L26.1485 13.7388Z" fill="#155EEF"/>
<path d="M3.99775 8.37553L3.82288 8.02577L3.99775 8.37553C4.3475 8.20065 4.75555 8.08406 5.1053 7.96748C6.67918 7.55944 8.36963 7.61773 10.0601 8.25894C11.1676 8.66698 12.2752 8.84185 13.4993 8.84185C15.9475 8.84185 18.3958 7.96748 20.6692 6.27702L21.5435 5.57752L21.835 5.34435L21.3104 4.93631C21.1355 4.76143 20.9023 4.58656 20.6692 4.46998L20.3194 4.23682L20.028 4.46998C19.9114 4.52827 19.8531 4.64485 19.7365 4.70314C16.647 7.03481 13.5576 7.67602 10.643 6.56848C8.54451 5.81069 6.446 5.63582 4.3475 6.27702C4.17262 6.33532 3.99775 6.3936 3.76458 6.45189L3.64801 6.51019L3.47312 6.68506C3.47312 6.74335 3.41484 6.74335 3.35655 6.80165C3.12338 7.1514 2.83192 7.44286 2.59875 7.79261L1.49121 9.48307L3.29826 8.5504C3.58971 8.5504 3.82287 8.43382 3.99775 8.37553Z" fill="#155EEF"/>
<path d="M8.77745 4.41171L8.95232 4.47C9.71011 4.76146 10.876 5.05292 12.3332 5.05292C13.8488 5.05292 15.3061 4.70317 16.7634 4.12025L18.5704 3.24588L17.3463 2.83785C16.9966 2.72126 16.6468 2.60468 16.2388 2.54639H16.0639L15.889 2.60466C15.7142 2.66296 15.5393 2.77955 15.3644 2.83785C13.6157 3.47905 11.8669 3.59564 10.1764 3.1293C10.0016 3.07101 9.8267 3.01271 9.65182 2.95442L9.47696 2.89612L9.30207 2.95442C8.95232 3.071 8.60258 3.18759 8.25283 3.36247L6.91211 3.94538L8.31112 4.35341C8.42771 4.29512 8.60257 4.35342 8.77745 4.41171Z" fill="#155EEF"/>
<path d="M36.2206 20.7462H33.5312L37.6291 8.87589H40.8632L44.9553 20.7462H42.2659L39.2925 11.5884H39.1998L36.2206 20.7462ZM36.0525 16.0804H42.405V18.0394H36.0525V16.0804Z" fill="#101828"/>
<path d="M48.8067 8.87589V20.7462H46.3376V8.87589H48.8067Z" fill="#101828"/>
<path d="M55.52 11.8435V13.6982H50.1587V11.8435H55.52ZM51.3758 9.71052H53.8449V18.0105C53.8449 18.2384 53.8797 18.4162 53.9493 18.5437C54.0188 18.6673 54.1154 18.7543 54.2391 18.8045C54.3666 18.8548 54.5134 18.8799 54.6796 18.8799C54.7955 18.8799 54.9114 18.8702 55.0273 18.8509C55.1433 18.8277 55.2321 18.8103 55.294 18.7987L55.6823 20.6361C55.5586 20.6747 55.3848 20.7191 55.1606 20.7694C54.9365 20.8235 54.6641 20.8563 54.3434 20.8679C53.7483 20.8911 53.2267 20.8119 52.7785 20.6303C52.3341 20.4487 51.9883 20.1666 51.741 19.7841C51.4937 19.4015 51.372 18.9185 51.3758 18.335V9.71052Z" fill="#101828"/>
<path d="M60.3814 20.1028V11.8956H62.4564V20.1028H60.3814ZM57.3153 17.0367V14.9617H65.5225V17.0367H57.3153Z" fill="#101828"/>
<path d="M74.4369 12.2898C74.3905 11.8222 74.1915 11.459 73.8399 11.2001C73.4882 10.9412 73.011 10.8118 72.4082 10.8118C71.9986 10.8118 71.6528 10.8697 71.3707 10.9857C71.0887 11.0977 70.8723 11.2542 70.7216 11.4551C70.5747 11.6561 70.5013 11.884 70.5013 12.1391C70.4936 12.3516 70.538 12.5371 70.6346 12.6955C70.7351 12.8539 70.8723 12.9911 71.0462 13.107C71.22 13.2191 71.421 13.3176 71.6489 13.4026C71.8769 13.4837 72.1204 13.5533 72.3793 13.6113L73.4457 13.8663C73.9635 13.9822 74.4388 14.1368 74.8716 14.33C75.3043 14.5232 75.6791 14.7608 75.996 15.0429C76.3128 15.325 76.5582 15.6573 76.7321 16.0398C76.9098 16.4223 77.0006 16.8609 77.0045 17.3555C77.0006 18.0819 76.8152 18.7118 76.4481 19.245C76.0849 19.7744 75.5594 20.1859 74.8716 20.4796C74.1876 20.7694 73.3627 20.9143 72.3966 20.9143C71.4384 20.9143 70.6037 20.7674 69.8927 20.4738C69.1856 20.1801 68.6331 19.7454 68.2351 19.1697C67.8409 18.5901 67.6342 17.8733 67.6149 17.0193H70.0434C70.0705 17.4173 70.1845 17.7496 70.3854 18.0163C70.5902 18.279 70.8626 18.478 71.2027 18.6132C71.5466 18.7446 71.9349 18.8103 72.3677 18.8103C72.7927 18.8103 73.1617 18.7485 73.4747 18.6248C73.7916 18.5012 74.0369 18.3292 74.2108 18.109C74.3847 17.8887 74.4716 17.6357 74.4716 17.3497C74.4716 17.0831 74.3924 16.859 74.234 16.6774C74.0794 16.4958 73.8514 16.3412 73.5501 16.2137C73.2525 16.0862 72.8874 15.9703 72.4546 15.8659L71.1621 15.5413C70.1613 15.2979 69.3711 14.9173 68.7915 14.3995C68.2119 13.8817 67.924 13.1843 67.9279 12.3072C67.924 11.5884 68.1153 10.9605 68.5017 10.4234C68.892 9.88634 69.4271 9.46709 70.1072 9.16569C70.7873 8.8643 71.5601 8.7136 72.4256 8.7136C73.3066 8.7136 74.0756 8.8643 74.7324 9.16569C75.3932 9.46709 75.9071 9.88634 76.2742 10.4234C76.6413 10.9605 76.8306 11.5826 76.8422 12.2898H74.4369Z" fill="#101828"/>
<path d="M81.1153 15.5993V20.7462H78.6462V8.87589H81.0458V13.4142H81.1501C81.351 12.8887 81.6756 12.4772 82.1239 12.1796C82.5721 11.8782 83.1343 11.7275 83.8105 11.7275C84.4287 11.7275 84.9678 11.8628 85.4276 12.1333C85.8913 12.3999 86.2506 12.7844 86.5057 13.2867C86.7646 13.7851 86.8921 14.3821 86.8882 15.0777V20.7462H84.4191V15.5182C84.423 14.9695 84.2838 14.5425 84.0018 14.2372C83.7236 13.932 83.3333 13.7793 82.831 13.7793C82.4948 13.7793 82.1973 13.8508 81.9384 13.9938C81.6834 14.1368 81.4824 14.3454 81.3356 14.6198C81.1926 14.8903 81.1192 15.2168 81.1153 15.5993Z" fill="#101828"/>
<path d="M88.8313 20.7462V11.8435H91.3004V20.7462H88.8313ZM90.0717 10.6959C89.7046 10.6959 89.3897 10.5741 89.1269 10.3307C88.868 10.0834 88.7386 9.7878 88.7386 9.4439C88.7386 9.10387 88.868 8.81214 89.1269 8.5687C89.3897 8.3214 89.7046 8.19775 90.0717 8.19775C90.4388 8.19775 90.7518 8.3214 91.0106 8.5687C91.2734 8.81214 91.4048 9.10387 91.4048 9.4439C91.4048 9.7878 91.2734 10.0834 91.0106 10.3307C90.7518 10.5741 90.4388 10.6959 90.0717 10.6959Z" fill="#101828"/>
<path d="M98.9483 11.8435V13.6982H92.5712V11.8435H98.9483ZM93.829 20.7462V11.2001C93.829 10.5548 93.9546 10.0196 94.2057 9.5946C94.4607 9.16956 94.8085 8.85078 95.249 8.63825C95.6895 8.42573 96.1899 8.31947 96.7502 8.31947C97.1289 8.31947 97.4747 8.34845 97.7877 8.40641C98.1045 8.46437 98.3402 8.51654 98.4948 8.56291L98.0543 10.4176C97.9577 10.3867 97.8379 10.3577 97.6949 10.3307C97.5558 10.3037 97.4129 10.2901 97.266 10.2901C96.9028 10.2901 96.6497 10.3751 96.5067 10.5452C96.3638 10.7113 96.2923 10.9451 96.2923 11.2465V20.7462H93.829Z" fill="#101828"/>
<path d="M104.31 11.8435V13.6982H98.9483V11.8435H104.31ZM100.165 9.71052H102.635V18.0105C102.635 18.2384 102.669 18.4162 102.739 18.5437C102.808 18.6673 102.905 18.7543 103.029 18.8045C103.156 18.8548 103.303 18.8799 103.469 18.8799C103.585 18.8799 103.701 18.8702 103.817 18.8509C103.933 18.8277 104.022 18.8103 104.084 18.7987L104.472 20.6361C104.348 20.6747 104.174 20.7191 103.95 20.7694C103.726 20.8235 103.454 20.8563 103.133 20.8679C102.538 20.8911 102.016 20.8119 101.568 20.6303C101.124 20.4487 100.778 20.1666 100.531 19.7841C100.283 19.4015 100.162 18.9185 100.165 18.335V9.71052Z" fill="#101828"/>
</svg>
