<svg width="118" height="29" viewBox="0 0 118 29" fill="none" xmlns="http://www.w3.org/2000/svg">
<path d="M13.966 16.0954C13.6698 12.5049 10.6619 9.68335 6.99498 9.68335C3.13176 9.68335 0 12.8151 0 16.6783C0 20.5415 3.13176 23.6733 6.99498 23.6733H17.4874V16.0954H13.966Z" fill="#528BFF"/>
<circle cx="16.9044" cy="14.9298" r="8.74372" fill="#7839EE"/>
<path d="M30.834 15.0461C30.834 13.8818 31.057 12.8644 31.5032 11.9939C31.9602 11.1126 32.6076 10.4325 33.4454 9.95375C34.2942 9.47498 35.2898 9.2356 36.4323 9.2356C37.3245 9.2356 38.1243 9.40969 38.8316 9.75789C39.5388 10.1061 40.1101 10.5957 40.5453 11.2268C40.9806 11.8579 41.2417 12.587 41.3288 13.4139H38.8805C38.7391 12.7611 38.4399 12.2497 37.9828 11.8797C37.5367 11.4989 36.9763 11.3084 36.3017 11.3084C35.3877 11.3084 34.6641 11.6512 34.1309 12.3367C33.5978 13.0222 33.3312 13.9253 33.3312 15.0461C33.3312 16.156 33.5978 17.0591 34.1309 17.7555C34.6641 18.441 35.3877 18.7837 36.3017 18.7837C36.9763 18.7837 37.5367 18.5988 37.9828 18.2288C38.4399 17.848 38.7391 17.3311 38.8805 16.6782H41.3288C41.2417 17.5052 40.9806 18.2342 40.5453 18.8653C40.1101 19.4964 39.5388 19.9861 38.8316 20.3343C38.1243 20.6825 37.3245 20.8566 36.4323 20.8566C35.2898 20.8566 34.2942 20.6172 33.4454 20.1384C32.6076 19.6597 31.9602 18.985 31.5032 18.1146C31.057 17.2332 30.834 16.2104 30.834 15.0461Z" fill="#101828"/>
<path d="M41.9188 9.33352H44.2201V20.7587H41.9188V9.33352Z" fill="#101828"/>
<path d="M49.2677 20.8566C48.3863 20.8566 47.6083 20.6825 46.9337 20.3343C46.27 19.9752 45.7531 19.4692 45.3832 18.8164C45.0241 18.1635 44.8446 17.4127 44.8446 16.564C44.8446 15.7153 45.0241 14.9645 45.3832 14.3116C45.7531 13.6588 46.27 13.1582 46.9337 12.81C47.6083 12.451 48.3863 12.2714 49.2677 12.2714C50.1491 12.2714 50.9216 12.451 51.5854 12.81C52.26 13.1582 52.7769 13.6588 53.1359 14.3116C53.5059 14.9645 53.6909 15.7153 53.6909 16.564C53.6909 17.4236 53.5059 18.1798 53.1359 18.8327C52.7769 19.4747 52.26 19.9752 51.5854 20.3343C50.9216 20.6825 50.1491 20.8566 49.2677 20.8566ZM49.2677 18.9796C49.9097 18.9796 50.4157 18.7565 50.7856 18.3104C51.1665 17.8643 51.3569 17.2821 51.3569 16.564C51.3569 15.8458 51.1665 15.2637 50.7856 14.8176C50.4157 14.3715 49.9097 14.1484 49.2677 14.1484C48.6366 14.1484 48.1306 14.3715 47.7498 14.8176C47.3798 15.2637 47.1949 15.8458 47.1949 16.564C47.1949 17.2821 47.3798 17.8643 47.7498 18.3104C48.1306 18.7565 48.6366 18.9796 49.2677 18.9796Z" fill="#101828"/>
<path d="M62.2044 12.3693V20.7587H60.1642L59.952 19.7467C59.6582 20.0949 59.3154 20.3669 58.9237 20.5628C58.532 20.7587 58.0532 20.8566 57.4874 20.8566C56.5081 20.8566 55.7084 20.5574 55.0881 19.9589C54.4679 19.3496 54.1578 18.3376 54.1578 16.9231V12.3693H56.4592V16.6456C56.4592 17.4073 56.5897 17.984 56.8509 18.3757C57.1229 18.7565 57.5364 18.947 58.0913 18.947C58.668 18.947 59.1141 18.7348 59.4297 18.3104C59.7452 17.8752 59.903 17.2713 59.903 16.4987V12.3693H62.2044Z" fill="#101828"/>
<path d="M71.5408 9.33352V20.7587H69.5333L69.3048 19.5998C68.6628 20.4377 67.7923 20.8566 66.6933 20.8566C65.9534 20.8566 65.2897 20.6825 64.7021 20.3343C64.1145 19.9752 63.6521 19.4692 63.3148 18.8164C62.9883 18.1635 62.8251 17.4073 62.8251 16.5477C62.8251 15.699 62.9883 14.9536 63.3148 14.3116C63.6521 13.6588 64.1145 13.1582 64.7021 12.81C65.3005 12.451 65.9697 12.2714 66.7096 12.2714C67.7978 12.2714 68.641 12.6523 69.2395 13.4139V9.33352H71.5408ZM67.2319 18.9796C67.8522 18.9796 68.3472 18.762 68.7172 18.3267C69.0872 17.8806 69.2721 17.2985 69.2721 16.5803C69.2721 15.8513 69.0872 15.2637 68.7172 14.8176C68.3472 14.3715 67.8522 14.1484 67.2319 14.1484C66.6117 14.1484 66.1112 14.3715 65.7303 14.8176C65.3604 15.2637 65.1754 15.8458 65.1754 16.564C65.1754 17.2821 65.3604 17.8643 65.7303 18.3104C66.1112 18.7565 66.6117 18.9796 67.2319 18.9796Z" fill="#101828"/>
<path d="M71.8396 9.33352L74.3695 9.3172L76.4749 17.6739L78.711 9.33352H80.9144L83.0852 17.6739L85.2396 9.33352H87.7205L84.5541 20.7587H81.7305L79.7556 13.1691L77.8296 20.7587H75.006L71.8396 9.33352Z" fill="#101828"/>
<path d="M95.3998 18.8164V20.7587H94.2247C93.1692 20.7587 92.6524 20.3016 92.6741 19.3876C92.3695 19.8664 91.9941 20.2309 91.5479 20.4812C91.1018 20.7314 90.5632 20.8566 89.9321 20.8566C88.9963 20.8566 88.2401 20.6444 87.6634 20.22C87.0976 19.7848 86.8147 19.1755 86.8147 18.392C86.8147 17.4998 87.1411 16.8143 87.794 16.3355C88.4577 15.8458 89.4153 15.601 90.6666 15.601H92.3314V15.193C92.3314 14.8121 92.1899 14.5129 91.907 14.2953C91.6241 14.0668 91.2433 13.9525 90.7645 13.9525C90.3401 13.9525 89.9919 14.045 89.7199 14.23C89.4479 14.415 89.2847 14.6653 89.2303 14.9808H87.0105C87.0867 14.1212 87.4675 13.4575 88.153 12.9896C88.8386 12.5108 89.7471 12.2714 90.8788 12.2714C92.0648 12.2714 92.9788 12.5326 93.6208 13.0549C94.2737 13.5771 94.6001 14.3334 94.6001 15.3236V18.2778C94.6001 18.4845 94.6436 18.626 94.7307 18.7021C94.8177 18.7783 94.9537 18.8164 95.1387 18.8164H95.3998ZM92.3314 17.1353H90.6503C90.1715 17.1353 89.7961 17.2332 89.5241 17.429C89.2629 17.614 89.1323 17.8806 89.1323 18.2288C89.1323 18.5226 89.2412 18.7565 89.4588 18.9306C89.6873 19.1047 89.9919 19.1918 90.3728 19.1918C90.9712 19.1918 91.4446 19.0231 91.7928 18.6858C92.141 18.3376 92.3205 17.8752 92.3314 17.2985V17.1353Z" fill="#101828"/>
<path d="M96.1759 14.3116H94.7885V12.3693H96.1759V10.019H98.4772V12.3693H100.387V14.3116H98.4772V17.984C98.4772 18.2778 98.5371 18.4899 98.6568 18.6205C98.7873 18.7511 98.9995 18.8164 99.2933 18.8164H100.485V20.7587H98.5752C96.9756 20.7587 96.1759 19.9589 96.1759 18.3594V14.3116Z" fill="#101828"/>
<path d="M108.738 17.5759C108.585 18.5988 108.15 19.404 107.432 19.9915C106.725 20.5682 105.805 20.8566 104.673 20.8566C103.803 20.8566 103.041 20.6825 102.388 20.3343C101.736 19.9752 101.23 19.4692 100.871 18.8164C100.522 18.1635 100.348 17.4127 100.348 16.564C100.348 15.7044 100.522 14.9536 100.871 14.3116C101.23 13.6588 101.736 13.1582 102.388 12.81C103.052 12.451 103.819 12.2714 104.69 12.2714C105.811 12.2714 106.725 12.5598 107.432 13.1365C108.139 13.7023 108.574 14.4912 108.738 15.5031H106.355C106.257 15.0896 106.061 14.7632 105.767 14.5238C105.473 14.2735 105.109 14.1484 104.673 14.1484C104.075 14.1484 103.596 14.3715 103.237 14.8176C102.878 15.2637 102.699 15.8458 102.699 16.564C102.699 17.2821 102.878 17.8643 103.237 18.3104C103.596 18.7565 104.075 18.9796 104.673 18.9796C105.12 18.9796 105.49 18.8545 105.783 18.6042C106.088 18.3539 106.284 18.0112 106.371 17.5759H108.738Z" fill="#101828"/>
<path d="M114.112 12.2714C115.103 12.2714 115.913 12.5761 116.544 13.1854C117.186 13.7948 117.507 14.8013 117.507 16.2049V20.7587H115.206V16.3029C115.206 15.6065 115.065 15.0787 114.782 14.7197C114.499 14.3497 114.074 14.1647 113.509 14.1647C112.921 14.1647 112.459 14.366 112.121 14.7686C111.795 15.1712 111.632 15.7316 111.632 16.4497V20.7587H109.33V9.33352H111.632V13.3976C112.252 12.6468 113.079 12.2714 114.112 12.2714Z" fill="#101828"/>
</svg>
