<svg width="14" height="12" viewBox="0 0 14 12" fill="none" xmlns="http://www.w3.org/2000/svg">
<path d="M0.92689 8.29616L0.0848153 2.82291C0.0225248 2.41871 0.483013 2.14279 0.810153 2.38826L3.43374 4.35571C3.50193 4.4068 3.57982 4.44345 3.66265 4.46343C3.74549 4.48341 3.83152 4.4863 3.91551 4.47192C3.99949 4.45754 4.07967 4.4262 4.15113 4.3798C4.2226 4.3334 4.28386 4.27293 4.33118 4.20206L6.5155 0.926048C6.7462 0.579989 7.25468 0.579989 7.48538 0.926048L9.6697 4.20206C9.71702 4.27293 9.77828 4.3334 9.84975 4.3798C9.92122 4.4262 10.0014 4.45754 10.0854 4.47192C10.1694 4.4863 10.2554 4.48341 10.3382 4.46343C10.4211 4.44345 10.499 4.4068 10.5671 4.35571L13.1907 2.38826C13.5183 2.14279 13.9784 2.41871 13.9161 2.82291L13.074 8.29616H0.92689ZM12.4405 11.3332H1.56041C1.47721 11.3332 1.39483 11.3168 1.31797 11.2849C1.24111 11.2531 1.17127 11.2064 1.11244 11.1476C0.993636 11.0288 0.92689 10.8677 0.92689 10.6997V9.3085H13.074V10.6997C13.074 11.0494 12.7902 11.3332 12.4405 11.3332Z" fill="#FFB743"/>
</svg>
