<svg width="116" height="29" viewBox="0 0 116 29" fill="none" xmlns="http://www.w3.org/2000/svg">
<path d="M21.164 7.48704C20.912 7.23509 20.6601 6.98314 20.4081 6.73119C19.6523 5.92496 18.8461 5.11873 17.8383 4.61484C16.6793 4.01016 15.4196 4.16133 14.1598 4.16133C12.245 4.16133 7.45804 4.16133 4.63623 4.16133L6.55103 6.73119C10.0279 6.73119 15.47 6.73119 17.9894 6.73119C19.0476 6.73119 19.9546 6.93275 20.8113 7.48704C20.9624 7.53742 21.1136 7.53742 21.164 7.48704Z" fill="#66C61C"/>
<path d="M23.2801 11.6194C23.0282 11.3674 22.7762 11.1155 22.5243 10.8635C21.7684 10.0573 20.9622 9.25105 19.9544 8.74716C18.7955 8.14248 17.5357 8.29365 16.276 8.29365C14.6131 8.29365 10.6324 8.29365 7.81055 8.29365L9.72535 10.8635C13.1518 10.8635 17.8381 10.8635 20.156 10.8635C21.2141 10.8635 22.1212 11.0651 22.9778 11.6194C23.0786 11.6697 23.1793 11.6697 23.2801 11.6194Z" fill="#4CA30D"/>
<path d="M25.6484 15.6501C25.3964 15.3982 25.1445 15.1462 24.8925 14.8943C24.1367 14.088 23.3305 13.2818 22.3227 12.7779C21.1637 12.1732 19.904 12.3244 18.6443 12.3244C17.0822 12.3244 13.6557 12.3244 10.8843 12.3244L12.7991 14.8943C16.1248 14.8943 20.3575 14.8943 22.4739 14.8943C23.532 14.8943 24.439 15.0958 25.2957 15.6501C25.4468 15.7005 25.5476 15.7509 25.6484 15.6501Z" fill="#3B7C0F"/>
<path d="M4.43408 22.4528C4.68603 22.7048 4.93798 22.9567 5.18992 23.2087C5.94577 24.0149 6.75199 24.8211 7.75978 25.325C8.91874 25.9297 10.1785 25.7785 11.4382 25.7785H20.9618L19.047 23.2087C15.5702 23.2087 10.1281 23.2087 7.60862 23.2087C6.55044 23.2087 5.64343 23.0071 4.78681 22.4528C4.63564 22.4024 4.53486 22.4024 4.43408 22.4528Z" fill="#66C61C"/>
<path d="M2.31787 18.321C2.56982 18.5729 2.82177 18.8249 3.07371 19.0768C3.82956 19.8831 4.63578 20.6893 5.64357 21.1932C6.80253 21.7979 8.06227 21.6467 9.32201 21.6467H17.7874L15.8726 19.0768C12.4462 19.0768 7.75993 19.0768 5.44202 19.0768C4.38384 19.0768 3.47682 18.8753 2.6202 18.321C2.51942 18.2706 2.41865 18.2706 2.31787 18.321Z" fill="#4CA30D"/>
<path d="M0 14.2395C0.251947 14.4914 0.503895 14.7433 0.755842 14.9953C1.51168 15.8015 2.31792 16.6078 3.32571 17.1117C4.48467 17.7163 5.7444 17.5652 7.00413 17.5652H14.7641L12.8493 14.9953C9.52361 14.9953 5.2909 14.9953 3.17454 14.9953C2.11636 14.9953 1.20935 14.7937 0.352725 14.2395C0.201556 14.1891 0.100779 14.1891 0 14.2395Z" fill="#3B7C0F"/>
<path d="M31.438 9.14551V20.7991H34.0005V15.9843H38.8806V13.993H34.0005V11.3H39.6314V9.14551H31.438Z" fill="#101828"/>
<path d="M46.0585 15.6742H42.2882C42.299 15.5109 42.3317 15.326 42.3861 15.1192C42.4514 14.9125 42.5547 14.7166 42.6962 14.5316C42.8485 14.3467 43.0444 14.1943 43.2838 14.0746C43.534 13.9441 43.8442 13.8788 44.2141 13.8788C44.7799 13.8788 45.1988 14.0311 45.4709 14.3358C45.7538 14.6404 45.9496 15.0866 46.0585 15.6742ZM42.2882 17.1431H48.3761C48.4196 16.4902 48.3652 15.8646 48.2129 15.2661C48.0606 14.6677 47.8103 14.1345 47.4621 13.6666C47.1248 13.1987 46.6896 12.8288 46.1564 12.5567C45.6232 12.2738 44.9975 12.1324 44.2794 12.1324C43.6374 12.1324 43.0498 12.2466 42.5167 12.4751C41.9944 12.7036 41.5428 13.0192 41.162 13.4218C40.7811 13.8135 40.4873 14.2814 40.2806 14.8254C40.0739 15.3695 39.9705 15.9571 39.9705 16.5882C39.9705 17.241 40.0684 17.8395 40.2643 18.3835C40.471 18.9276 40.7594 19.3955 41.1293 19.7872C41.4993 20.1789 41.9508 20.4836 42.484 20.7012C43.0172 20.9079 43.6157 21.0113 44.2794 21.0113C45.2369 21.0113 46.053 20.7937 46.7276 20.3585C47.4023 19.9232 47.9028 19.1996 48.2292 18.1877H46.189C46.1129 18.4488 45.9061 18.6991 45.5688 18.9385C45.2315 19.167 44.8289 19.2812 44.361 19.2812C43.7081 19.2812 43.2076 19.1126 42.8594 18.7753C42.5112 18.4379 42.3208 17.8939 42.2882 17.1431Z" fill="#101828"/>
<path d="M49.1631 14.956C49.1958 14.4119 49.3318 13.9604 49.5712 13.6013C49.8106 13.2422 50.1152 12.9539 50.4852 12.7363C50.8551 12.5186 51.2686 12.3663 51.7256 12.2793C52.1935 12.1813 52.6614 12.1324 53.1293 12.1324C53.5536 12.1324 53.9834 12.165 54.4187 12.2303C54.8539 12.2847 55.2511 12.3989 55.6102 12.573C55.9692 12.7471 56.263 12.992 56.4915 13.3075C56.72 13.6122 56.8343 14.0202 56.8343 14.5316V18.9222C56.8343 19.303 56.856 19.6675 56.8996 20.0157C56.9431 20.3639 57.0193 20.625 57.1281 20.7991H54.7778C54.7342 20.6686 54.6962 20.538 54.6635 20.4074C54.6417 20.266 54.6254 20.1245 54.6145 19.9831C54.2446 20.3639 53.8093 20.6305 53.3088 20.7828C52.8083 20.9352 52.2969 21.0113 51.7746 21.0113C51.372 21.0113 50.9966 20.9624 50.6484 20.8644C50.3002 20.7665 49.9955 20.6142 49.7344 20.4074C49.4732 20.2007 49.2665 19.9395 49.1142 19.624C48.9727 19.3084 48.902 18.933 48.902 18.4978C48.902 18.019 48.9836 17.6273 49.1468 17.3226C49.3209 17.0071 49.5385 16.7568 49.7997 16.5718C50.0717 16.3869 50.3764 16.2508 50.7137 16.1638C51.0619 16.0659 51.4101 15.9897 51.7583 15.9353C52.1065 15.8809 52.4492 15.8374 52.7865 15.8047C53.1238 15.7721 53.4231 15.7231 53.6842 15.6578C53.9454 15.5925 54.1521 15.5001 54.3044 15.3804C54.4568 15.2498 54.5275 15.0648 54.5166 14.8254C54.5166 14.5752 54.4731 14.3793 54.386 14.2379C54.3099 14.0855 54.2011 13.9713 54.0596 13.8951C53.929 13.808 53.7713 13.7536 53.5863 13.7319C53.4122 13.6992 53.2218 13.6829 53.015 13.6829C52.558 13.6829 52.1989 13.7808 51.9378 13.9767C51.6767 14.1726 51.5243 14.499 51.4808 14.956H49.1631ZM54.5166 16.6698C54.4187 16.7568 54.2936 16.8275 54.1412 16.882C53.9998 16.9255 53.842 16.9636 53.6679 16.9962C53.5047 17.0288 53.3306 17.056 53.1456 17.0778C52.9606 17.0996 52.7756 17.1268 52.5907 17.1594C52.4166 17.1921 52.2425 17.2356 52.0684 17.29C51.9052 17.3444 51.7583 17.4206 51.6277 17.5185C51.508 17.6055 51.4101 17.7198 51.3339 17.8612C51.2577 18.0027 51.2197 18.1822 51.2197 18.3999C51.2197 18.6066 51.2577 18.7807 51.3339 18.9222C51.4101 19.0636 51.5134 19.1779 51.644 19.2649C51.7746 19.3411 51.9269 19.3955 52.101 19.4281C52.2751 19.4608 52.4547 19.4771 52.6396 19.4771C53.0966 19.4771 53.4503 19.4009 53.7005 19.2486C53.9508 19.0962 54.1358 18.9167 54.2555 18.71C54.3752 18.4923 54.4459 18.2747 54.4677 18.0571C54.5003 17.8395 54.5166 17.6654 54.5166 17.5348V16.6698Z" fill="#101828"/>
<path d="M61.0815 12.3609V9.83102H58.7638V12.3609H57.3601V13.9114H58.7638V18.8895C58.7638 19.3139 58.8345 19.6566 58.976 19.9178C59.1174 20.1789 59.3079 20.3802 59.5472 20.5217C59.7975 20.6631 60.0804 20.7556 60.396 20.7991C60.7224 20.8535 61.0652 20.8807 61.4242 20.8807C61.6527 20.8807 61.8867 20.8753 62.1261 20.8644C62.3654 20.8535 62.5831 20.8318 62.7789 20.7991V19.0038C62.6701 19.0255 62.5559 19.0418 62.4362 19.0527C62.3165 19.0636 62.1913 19.069 62.0608 19.069C61.669 19.069 61.4079 19.0038 61.2773 18.8732C61.1468 18.7426 61.0815 18.4815 61.0815 18.0897V13.9114H62.7789V12.3609H61.0815Z" fill="#101828"/>
<path d="M63.392 9.14551V20.7991H65.7097V16.376C65.7097 15.5164 65.8511 14.9016 66.134 14.5316C66.4169 14.1508 66.8739 13.9604 67.505 13.9604C68.06 13.9604 68.4463 14.1345 68.6639 14.4827C68.8815 14.82 68.9903 15.3368 68.9903 16.0332V20.7991H71.308V15.6089C71.308 15.0866 71.259 14.6132 71.1611 14.1889C71.074 13.7536 70.9163 13.3891 70.6878 13.0953C70.4593 12.7907 70.1437 12.5567 69.7411 12.3935C69.3494 12.2194 68.8434 12.1324 68.2232 12.1324C67.788 12.1324 67.3418 12.2466 66.8848 12.4751C66.4278 12.6927 66.0524 13.0464 65.7586 13.536H65.7097V9.14551H63.392Z" fill="#101828"/>
<path d="M78.2573 15.6742H74.487C74.4979 15.5109 74.5305 15.326 74.5849 15.1192C74.6502 14.9125 74.7536 14.7166 74.895 14.5316C75.0474 14.3467 75.2432 14.1943 75.4826 14.0746C75.7329 13.9441 76.043 13.8788 76.4129 13.8788C76.9788 13.8788 77.3977 14.0311 77.6697 14.3358C77.9526 14.6404 78.1485 15.0866 78.2573 15.6742ZM74.487 17.1431H80.575C80.6185 16.4902 80.5641 15.8646 80.4117 15.2661C80.2594 14.6677 80.0091 14.1345 79.6609 13.6666C79.3236 13.1987 78.8884 12.8288 78.3552 12.5567C77.822 12.2738 77.1964 12.1324 76.4782 12.1324C75.8363 12.1324 75.2487 12.2466 74.7155 12.4751C74.1932 12.7036 73.7416 13.0192 73.3608 13.4218C72.98 13.8135 72.6862 14.2814 72.4794 14.8254C72.2727 15.3695 72.1693 15.9571 72.1693 16.5882C72.1693 17.241 72.2673 17.8395 72.4631 18.3835C72.6699 18.9276 72.9582 19.3955 73.3282 19.7872C73.6981 20.1789 74.1497 20.4836 74.6829 20.7012C75.216 20.9079 75.8145 21.0113 76.4782 21.0113C77.4358 21.0113 78.2518 20.7937 78.9265 20.3585C79.6011 19.9232 80.1016 19.1996 80.4281 18.1877H78.3879C78.3117 18.4488 78.105 18.6991 77.7676 18.9385C77.4303 19.167 77.0277 19.2812 76.5598 19.2812C75.907 19.2812 75.4064 19.1126 75.0583 18.7753C74.7101 18.4379 74.5196 17.8939 74.487 17.1431Z" fill="#101828"/>
<path d="M81.4599 12.3609V20.7991H83.7776V16.9962C83.7776 16.6154 83.8156 16.2617 83.8918 15.9353C83.968 15.6089 84.0931 15.326 84.2672 15.0866C84.4522 14.8363 84.6916 14.6404 84.9854 14.499C85.2791 14.3575 85.6382 14.2868 86.0626 14.2868C86.204 14.2868 86.3509 14.2977 86.5033 14.3195C86.6556 14.3303 86.7862 14.3467 86.895 14.3684V12.214C86.71 12.1596 86.5414 12.1324 86.389 12.1324C86.0952 12.1324 85.8123 12.1759 85.5403 12.2629C85.2683 12.35 85.0126 12.4751 84.7732 12.6383C84.5338 12.7907 84.3216 12.9811 84.1366 13.2096C83.9517 13.4272 83.8048 13.6666 83.696 13.9277H83.6633V12.3609H81.4599Z" fill="#101828"/>
<path d="M90.1213 18.6447V11.3H91.9493C92.5804 11.3 93.1082 11.3925 93.5325 11.5774C93.9678 11.7515 94.316 12.0072 94.5771 12.3445C94.8383 12.6819 95.0232 13.0899 95.132 13.5687C95.2517 14.0366 95.3116 14.5643 95.3116 15.1519C95.3116 15.7938 95.23 16.3379 95.0668 16.784C94.9035 17.2301 94.6859 17.5947 94.4139 17.8776C94.1419 18.1496 93.8318 18.3455 93.4836 18.4651C93.1354 18.5848 92.7763 18.6447 92.4063 18.6447H90.1213ZM87.5588 9.14551V20.7991H92.5859C93.4781 20.7991 94.2507 20.6522 94.9035 20.3585C95.5673 20.0538 96.1168 19.6403 96.552 19.118C96.9982 18.5957 97.33 17.9755 97.5476 17.2573C97.7653 16.5392 97.8741 15.7558 97.8741 14.907C97.8741 13.9386 97.7381 13.0953 97.466 12.3772C97.2049 11.659 96.8349 11.0606 96.3562 10.5818C95.8883 10.103 95.3279 9.74397 94.675 9.50458C94.0331 9.2652 93.3367 9.14551 92.5859 9.14551H87.5588Z" fill="#101828"/>
<path d="M104.602 15.6742H100.832C100.843 15.5109 100.875 15.326 100.93 15.1192C100.995 14.9125 101.098 14.7166 101.24 14.5316C101.392 14.3467 101.588 14.1943 101.827 14.0746C102.078 13.9441 102.388 13.8788 102.758 13.8788C103.323 13.8788 103.742 14.0311 104.014 14.3358C104.297 14.6404 104.493 15.0866 104.602 15.6742ZM100.832 17.1431H106.92C106.963 16.4902 106.909 15.8646 106.756 15.2661C106.604 14.6677 106.354 14.1345 106.006 13.6666C105.668 13.1987 105.233 12.8288 104.7 12.5567C104.167 12.2738 103.541 12.1324 102.823 12.1324C102.181 12.1324 101.593 12.2466 101.06 12.4751C100.538 12.7036 100.086 13.0192 99.7055 13.4218C99.3247 13.8135 99.0309 14.2814 98.8242 14.8254C98.6174 15.3695 98.5141 15.9571 98.5141 16.5882C98.5141 17.241 98.612 17.8395 98.8079 18.3835C99.0146 18.9276 99.3029 19.3955 99.6729 19.7872C100.043 20.1789 100.494 20.4836 101.028 20.7012C101.561 20.9079 102.159 21.0113 102.823 21.0113C103.781 21.0113 104.597 20.7937 105.271 20.3585C105.946 19.9232 106.446 19.1996 106.773 18.1877H104.733C104.656 18.4488 104.45 18.6991 104.112 18.9385C103.775 19.167 103.372 19.2812 102.905 19.2812C102.252 19.2812 101.751 19.1126 101.403 18.7753C101.055 18.4379 100.864 17.8939 100.832 17.1431Z" fill="#101828"/>
<path d="M112.473 20.7991L115.329 12.3609H113.028L111.248 18.1224H111.216L109.437 12.3609H107.005L109.894 20.7991H112.473Z" fill="#101828"/>
</svg>
