<svg width="116" height="28" viewBox="0 0 116 28" fill="none" xmlns="http://www.w3.org/2000/svg">
<path d="M6.89726 2.61431L9.89838 13.8147V1.50076C10.1364 1.44522 10.3769 1.39632 10.6197 1.35424V13.8158L13.9952 1.21826C14.2385 1.24028 14.4798 1.2691 14.7189 1.30452L11.3162 14.0035L18.0799 2.28851C18.3003 2.38764 18.5173 2.49281 18.7308 2.60381L11.9419 14.3625L21.634 4.67052C21.8087 4.83576 21.9788 5.00586 22.144 5.18061L12.4505 14.8741L24.2107 8.08435C24.3217 8.29789 24.4268 8.51495 24.5259 8.73531L12.8138 15.4973L25.5093 12.0955C25.5447 12.3347 25.5735 12.576 25.5956 12.8192L12.9982 16.1947L25.4594 16.1947C25.4173 16.4376 25.3684 16.6781 25.3128 16.9161L12.9962 16.9161L24.1988 19.9178C24.0837 20.1381 23.9625 20.3546 23.8352 20.5672L12.8127 17.6137L22.019 22.929C21.8448 23.1082 21.6653 23.2824 21.4808 23.4512L12.4528 18.2389L19.2842 25.0702C19.0681 25.1965 18.848 25.3166 18.6241 25.4303L11.942 18.7482L16.3202 26.3314C16.0805 26.3992 15.8379 26.4602 15.5927 26.5141L11.3167 19.1078L13.3783 26.802C13.1946 26.8098 13.0098 26.8137 12.8241 26.8137C12.7607 26.8137 12.6975 26.8133 12.6343 26.8124L10.6197 19.2939V26.625C10.3769 26.5829 10.1364 26.534 9.89838 26.4785V19.2951L8.12208 25.9243C7.89552 25.835 7.67211 25.7394 7.45207 25.6377L9.20134 19.1094L5.9176 24.797C5.71431 24.6668 5.51493 24.531 5.31968 24.3899L8.5776 18.747L4.01511 23.3095C3.84036 23.1443 3.67025 22.9742 3.50501 22.7995L8.06606 18.2384L2.4248 21.4954C2.28365 21.3001 2.14785 21.1008 2.01764 20.8975L7.70792 17.6122L1.17632 19.3624C1.07466 19.1423 0.979048 18.9189 0.8897 18.6924L7.51891 16.9161L0.335414 16.9161C0.279868 16.6781 0.230949 16.4376 0.188861 16.1947L7.51697 16.1947L0.00139763 14.1809C0.000466952 14.1173 0 14.0535 0 13.9896C0 13.8044 0.00392563 13.6202 0.0116982 13.4369L7.70687 15.4988L0.299398 11.2221C0.353335 10.9769 0.414289 10.7343 0.482039 10.4946L8.06834 14.8745L1.38346 8.18965C1.49718 7.96576 1.61729 7.74565 1.74354 7.52958L8.57768 14.3637L3.36328 5.33211C3.53213 5.1477 3.70629 4.96824 3.88554 4.79397L9.20177 14.002L6.24785 2.97777C6.4604 2.85056 6.67695 2.72933 6.89726 2.61431Z" fill="#6927DA"/>
<path d="M33.7207 19.7663H36.5117V14.9188H42.0774V12.4542H36.5117V10.3813H42.4364V7.93311H33.7207V19.7663Z" fill="#101828"/>
<path d="M47.18 12.8133C48.2409 12.8133 49.0897 13.4661 49.0897 15.3431C49.0897 17.1875 48.2736 17.8893 47.18 17.8893C46.0865 17.8893 45.2704 17.1875 45.2704 15.3431C45.2704 13.4661 46.1191 12.8133 47.18 12.8133ZM47.18 10.7241C44.7481 10.7241 42.5284 12.1604 42.5284 15.3431C42.5284 18.5258 44.7481 19.9785 47.18 19.9785C49.612 19.9785 51.8317 18.5258 51.8317 15.3431C51.8317 12.1604 49.612 10.7241 47.18 10.7241Z" fill="#101828"/>
<path d="M57.003 10.7241C54.3425 10.7241 52.5145 12.5358 52.5145 15.3268C52.5145 18.1178 54.114 19.9785 57.003 19.9785C58.7657 19.9785 60.8712 19.1461 61.4751 16.5346H58.9616C58.7657 17.367 58.1618 17.8893 57.1662 17.8893C56.2032 17.8893 55.2566 17.2527 55.2566 15.3431C55.2566 13.4661 56.2032 12.8133 57.1662 12.8133C57.9659 12.8133 58.6025 13.1723 58.8473 14.2006H61.3608C60.8385 11.5565 58.831 10.7241 57.003 10.7241Z" fill="#101828"/>
<path d="M67.803 14.2822C64.3918 14.5434 61.9599 15.2452 61.9599 17.3996C61.9599 18.9992 63.3309 19.9785 64.9957 19.9785C66.2525 19.9785 67.2971 19.6357 67.9499 18.7054L67.9826 19.7663H70.6267C70.4961 19.2113 70.4308 18.1831 70.4308 17.2201V16.3061L70.4635 14.3965C70.5124 11.736 69.0761 10.7078 66.5463 10.7078C63.9348 10.7078 62.3679 12.1767 62.2374 13.8252H64.7509C64.8651 12.9765 65.4527 12.5358 66.3178 12.5358C67.2971 12.5358 67.803 12.8949 67.803 13.9395V14.2822ZM67.8683 16.0776C67.8683 17.6934 67.0522 18.1504 65.975 18.1504C65.2732 18.1504 64.7346 17.775 64.7346 17.2038C64.7346 16.2571 65.9913 16.0449 67.8683 15.8654V16.0776Z" fill="#101828"/>
<path d="M74.5386 7.93311H71.8456V19.7663H74.5386V7.93311Z" fill="#101828"/>
<path d="M76.2557 7.93311V19.7663H79.0467V15.6695H80.8094C83.8779 15.6695 86.1792 14.9024 86.1792 11.785C86.1792 8.6839 83.8779 7.93311 80.8094 7.93311H76.2557ZM80.891 10.2834C82.1968 10.2834 83.225 10.5446 83.225 11.785C83.225 13.0254 82.1968 13.3192 80.891 13.3192H79.0467V10.2834H80.891Z" fill="#101828"/>
<path d="M90.9105 12.8133C91.9714 12.8133 92.8201 13.4661 92.8201 15.3431C92.8201 17.1875 92.004 17.8893 90.9105 17.8893C89.8169 17.8893 89.0008 17.1875 89.0008 15.3431C89.0008 13.4661 89.8496 12.8133 90.9105 12.8133ZM90.9105 10.7241C88.4786 10.7241 86.2588 12.1604 86.2588 15.3431C86.2588 18.5258 88.4786 19.9785 90.9105 19.9785C93.3424 19.9785 95.5621 18.5258 95.5621 15.3431C95.5621 12.1604 93.3424 10.7241 90.9105 10.7241Z" fill="#101828"/>
<path d="M96.6397 10.9852V19.7663H99.3491V10.9852H96.6397ZM96.6397 7.93311V10.0876H99.3328V7.93311H96.6397Z" fill="#101828"/>
<path d="M103.645 10.9852H100.952V19.7663H103.645V15.2615C103.645 13.6293 104.118 12.8786 105.277 12.8786C106.583 12.8786 106.631 13.9068 106.631 15.1636V19.7663H109.325V14.4944C109.325 12.1114 108.623 10.7894 106.37 10.7894C104.983 10.7894 104.036 11.4912 103.645 12.1441V10.9852Z" fill="#101828"/>
<path d="M111.187 10.9852H109.799V12.8949H111.187V17.3017C111.187 19.3419 111.921 19.7663 114.092 19.7663H115.806V17.824H115.039C114.141 17.824 113.88 17.6608 113.88 16.8284V12.8949H115.806V10.9852H113.88V8.58597H111.187V10.9852Z" fill="#101828"/>
</svg>
