<svg width="88" height="28" viewBox="0 0 88 28" fill="none" xmlns="http://www.w3.org/2000/svg">
<path d="M19.4424 2.71631C21.1681 6.09982 22.1413 9.93121 22.1413 13.9899C22.1413 18.0486 21.1681 21.88 19.4424 25.2636C23.4373 23.0911 26.1488 18.8572 26.1488 13.9899C26.1488 9.12269 23.4373 4.88876 19.4424 2.71631Z" fill="#0BA5EC"/>
<path d="M13.6753 2.4474C13.0953 1.62569 12.1071 1.18315 11.1161 1.35513C5.08573 2.40165 0.5 7.66026 0.5 13.9899C0.5 20.3196 5.0857 25.5782 11.1161 26.6247C12.1071 26.7967 13.0952 26.3542 13.6753 25.5324C15.9787 22.2694 17.3317 18.2877 17.3317 13.9899C17.3317 9.69213 15.9787 5.71039 13.6753 2.4474Z" fill="#0086C9"/>
<path d="M38.1466 19.9621C40.399 19.9621 42.1617 19.1623 43.2063 17.8239V13.6293H38.8811L38.7995 15.7511L40.5296 15.6695V17.0078C39.893 17.5138 39.1096 17.7586 38.3588 17.7586C36.4818 17.7586 35.2903 16.3386 35.2903 14.0699C35.2903 11.8012 36.4002 10.3812 38.1792 10.3812C39.3544 10.3812 40.1705 11.0831 40.2847 12.2093H43.2063C43.0105 9.72837 41.0682 8.17782 38.1792 8.17782C34.7027 8.17782 32.5156 10.4465 32.5156 14.0699C32.5156 17.6933 34.6864 19.9621 38.1466 19.9621Z" fill="#101828"/>
<path d="M50.3606 19.7662H52.8251V13.8414C52.8251 11.7033 51.2419 10.4955 48.761 10.4955C46.2149 10.4955 44.5827 11.6707 44.4195 13.5803H46.9004C46.982 12.7805 47.6348 12.2909 48.6468 12.2909C49.6751 12.2909 50.279 12.8132 50.279 13.6782V14.2984H48.6141C46.1659 14.2984 44.6806 15.3593 44.6806 17.2363C44.6806 18.8359 45.8395 19.9621 47.6022 19.9621C48.7284 19.9621 49.6914 19.6519 50.3116 18.8685L50.3606 19.7662ZM47.1778 17.0731C47.1778 16.3713 47.7165 16.0775 48.5652 16.0775L50.279 16.0612V16.763C49.7893 17.5138 49.1201 17.9545 48.2387 17.9545C47.5206 17.9545 47.1778 17.5628 47.1778 17.0731Z" fill="#101828"/>
<path d="M54.6973 19.7662H57.2435V7.68817H54.6973V19.7662Z" fill="#101828"/>
<path d="M59.1917 19.7662H61.7379V10.6914H59.1917V19.7662ZM59.0938 9.48355H61.8032V7.10059H59.0938V9.48355Z" fill="#101828"/>
<path d="M63.6869 19.7662H66.2331V7.68817H63.6869V19.7662Z" fill="#101828"/>
<path d="M72.474 19.9621C75.0202 19.9621 76.7503 18.6726 76.9625 16.5998H74.4163C74.2531 17.3669 73.5186 17.9219 72.474 17.9219C71.1356 17.9219 70.4011 16.9262 70.3195 15.6205H76.9951C77.2399 12.4704 75.5425 10.4955 72.6046 10.4955C69.634 10.4955 67.757 12.3235 67.757 15.2288C67.757 18.134 69.5687 19.9621 72.474 19.9621ZM70.5154 13.8741C70.8255 12.9437 71.4947 12.4704 72.5882 12.4704C73.6002 12.4704 74.3347 13.0417 74.4 13.8741H70.5154Z" fill="#101828"/>
<path d="M82.7536 19.9621C85.6588 19.9621 87.4053 18.183 87.4053 15.2288C87.4053 12.2746 85.6588 10.4955 82.7536 10.4955C79.8483 10.4955 78.0856 12.2746 78.0856 15.2288C78.0856 18.183 79.8483 19.9621 82.7536 19.9621ZM80.6318 15.2288C80.6318 13.5476 81.4315 12.552 82.7536 12.552C84.0593 12.552 84.8591 13.5476 84.8591 15.2288C84.8591 16.9099 84.0593 17.9055 82.7536 17.9055C81.4315 17.9055 80.6318 16.9099 80.6318 15.2288Z" fill="#101828"/>
</svg>
