<svg width="96" height="29" viewBox="0 0 96 29" fill="none" xmlns="http://www.w3.org/2000/svg">
<circle cx="9.32667" cy="11.4524" r="8.16083" stroke="#7839EE" stroke-width="2.33167"/>
<circle cx="13.9898" cy="18.4475" r="8.16083" stroke="#7839EE" stroke-width="2.33167"/>
<path d="M30.2822 20.7262H32.9228V8.48498H30.2822V20.7262Z" fill="#101828"/>
<path d="M34.0814 20.7262H36.5296V15.8997C36.5296 14.763 37.2816 13.9411 38.3483 13.9411C39.3626 13.9411 40.0446 14.7105 40.0446 15.7773V20.7262H42.4929V15.2352C42.4929 13.2066 41.1988 11.7726 39.2052 11.7726C37.9986 11.7726 37.0193 12.2798 36.5296 13.1367V11.9125H34.0814V20.7262Z" fill="#101828"/>
<path d="M44.2658 9.30689V11.9125H42.5695V13.9411H44.2658V17.526C44.2658 19.5721 45.5774 20.7262 47.6059 20.7262H49.0574V18.6802H47.9382C47.1512 18.6802 46.6966 18.278 46.6966 17.4211V13.9411H49.0574V11.9125H46.6966V9.30689H44.2658Z" fill="#101828"/>
<path d="M55.2352 17.7359C55.0429 18.4878 54.3958 18.8726 53.4165 18.8726C52.1924 18.8726 51.4055 18.1031 51.2306 16.8615H57.5611C57.5786 16.6691 57.5961 16.4068 57.5961 16.0746C57.5961 14.0635 56.3545 11.7726 53.2417 11.7726C50.2513 11.7726 48.8873 14.0635 48.8873 16.3019C48.8873 18.5228 50.4262 20.8661 53.4165 20.8661C55.585 20.8661 57.2638 19.642 57.6136 17.7359H55.2352ZM53.2417 13.5564C54.4133 13.5564 55.0954 14.3433 55.1653 15.3226H51.2656C51.4754 14.0985 52.14 13.5564 53.2417 13.5564Z" fill="#101828"/>
<path d="M63.7137 13.9411V11.9125H62.7169C61.6502 11.9125 60.9856 12.2798 60.5135 13.3815V11.9125H58.0652V20.7262H60.5135V16.4418C60.5135 14.9379 61.0556 13.9411 62.2622 13.9411H63.7137Z" fill="#101828"/>
<path d="M64.1106 20.7262H66.5413V8.08276H64.1106V20.7262Z" fill="#101828"/>
<path d="M71.7847 20.8661C74.4953 20.8661 76.4364 18.9425 76.4364 16.3194C76.4364 13.6963 74.4953 11.7726 71.7847 11.7726C69.0742 11.7726 67.133 13.6963 67.133 16.3194C67.133 18.9425 69.0742 20.8661 71.7847 20.8661ZM71.7847 18.7676C70.4732 18.7676 69.5813 17.7708 69.5813 16.3194C69.5813 14.8504 70.4732 13.8536 71.7847 13.8536C73.0963 13.8536 73.9881 14.8504 73.9881 16.3194C73.9881 17.7708 73.0963 18.7676 71.7847 18.7676Z" fill="#101828"/>
<path d="M80.9837 20.8661C83.2745 20.8661 85.0932 19.3972 85.3556 17.4386H82.8723C82.6975 18.2255 81.9805 18.7676 81.0886 18.7676C79.7596 18.7676 78.9726 17.7534 78.9726 16.3194C78.9726 14.8854 79.7421 13.8536 81.0536 13.8536C81.9455 13.8536 82.6975 14.4307 82.8374 15.2177H85.2856C85.1282 13.1716 83.292 11.7726 80.9837 11.7726C78.2556 11.7726 76.4369 13.7487 76.4369 16.3194C76.4369 18.89 78.2556 20.8661 80.9837 20.8661Z" fill="#101828"/>
<path d="M91.7855 20.7262H94.7234L90.9286 15.3751L94.4436 11.9125H91.3658L88.3055 14.9204V8.08276H85.8572V20.7262H88.3055V17.9632L89.2848 17.0014L91.7855 20.7262Z" fill="#101828"/>
</svg>
