<svg width="103" height="28" viewBox="0 0 103 28" fill="none" xmlns="http://www.w3.org/2000/svg">
<path d="M9.11433 11.3377C12.4725 9.73168 15.1006 7.00624 16.6093 3.59944C15.6359 2.5774 14.3705 1.84738 13.0078 1.40936L12.2778 1.16602C12.2291 1.26335 12.1805 1.40936 12.1805 1.5067C11.0124 4.81616 8.62765 7.49293 5.41553 9.00166C3.17677 10.0724 1.52204 12.0191 0.743343 14.3552L0.5 15.0852C0.597337 15.1339 0.743345 15.1826 0.840682 15.1826C1.76538 15.5232 2.69009 15.9613 3.56612 16.4966C4.78283 14.3065 6.72957 12.4571 9.11433 11.3377Z" fill="#087443"/>
<path d="M23.2284 11.5322C21.4276 14.2577 18.9455 16.4478 15.8794 17.9078C13.3973 19.0759 11.4993 21.2659 10.6232 23.8941L10.3799 24.7214C11.3046 25.5488 12.424 26.1815 13.6407 26.5708L14.3707 26.8142C14.4194 26.7168 14.468 26.5708 14.468 26.4735C15.6361 23.164 18.0208 20.4872 21.233 18.9785C23.4717 17.9078 25.1751 15.9611 25.9051 13.625L26.1485 12.895C25.1265 12.6029 24.1531 12.1162 23.2284 11.5322Z" fill="#16B364"/>
<path d="M8.43296 22.1907C9.64967 19.2706 11.8884 16.8858 14.7599 15.5231C17.388 14.2577 19.5781 12.311 21.0868 9.9262C19.9674 8.85549 19.0427 7.63877 18.3613 6.17871C16.5606 9.48817 13.7378 12.1649 10.2824 13.8197C8.28695 14.7444 6.68089 16.3505 5.70752 18.2972C6.77823 19.3192 7.65426 20.5846 8.33562 21.996C8.33562 21.996 8.38429 22.0933 8.43296 22.1907Z" fill="#099250"/>
<path d="M31.9482 19.8192H40.1499V17.5459H34.5889V7.57799H31.9482V19.8192Z" fill="#101828"/>
<path d="M48.7186 11.0055H46.2704V15.8321C46.2704 16.9513 45.5184 17.7907 44.4517 17.7907C43.4549 17.7907 42.7554 17.0212 42.7554 15.9545V11.0055H40.3246V16.4966C40.3246 18.5077 41.6187 19.9591 43.5948 19.9591C44.8014 19.9591 45.7807 19.4345 46.2704 18.5951V19.8192H48.7186V11.0055Z" fill="#101828"/>
<path d="M49.6281 19.8192H52.0764V14.8178C52.0764 13.6811 52.7234 12.9292 53.7377 12.9292C54.682 12.9292 55.2766 13.6811 55.2766 14.8178V19.8192H57.7248V14.8178C57.7248 13.6811 58.3719 12.9292 59.3861 12.9292C60.3305 12.9292 60.9425 13.6811 60.9425 14.8178V19.8192H63.3733V14.0484C63.3733 12.2821 62.1317 10.8656 60.208 10.8656C58.7916 10.8656 57.6898 11.6176 57.2701 12.4745C56.8504 11.4252 55.9586 10.8656 54.5771 10.8656C53.3879 10.8656 52.5485 11.4427 52.0764 12.2472V11.0055H49.6281V19.8192Z" fill="#101828"/>
<path d="M64.2074 7.17578V9.74644H66.7955V7.17578H64.2074ZM64.2773 19.8192H66.7256V11.0055H64.2773V19.8192Z" fill="#101828"/>
<path d="M67.6382 19.8192H70.0864V14.9927C70.0864 13.856 70.8384 13.0341 71.9051 13.0341C72.9194 13.0341 73.6014 13.8035 73.6014 14.8703V19.8192H76.0497V14.3282C76.0497 12.2996 74.7556 10.8656 72.762 10.8656C71.5554 10.8656 70.5761 11.3728 70.0864 12.2297V11.0055H67.6382V19.8192Z" fill="#101828"/>
<path d="M81.1562 19.9591C83.8667 19.9591 85.8078 18.0355 85.8078 15.4124C85.8078 12.7893 83.8667 10.8656 81.1562 10.8656C78.4456 10.8656 76.5045 12.7893 76.5045 15.4124C76.5045 18.0355 78.4456 19.9591 81.1562 19.9591ZM81.1562 17.8606C79.8446 17.8606 78.9527 16.8639 78.9527 15.4124C78.9527 13.9434 79.8446 12.9467 81.1562 12.9467C82.4677 12.9467 83.3596 13.9434 83.3596 15.4124C83.3596 16.8639 82.4677 17.8606 81.1562 17.8606Z" fill="#101828"/>
<path d="M94.6745 11.0055H92.2263V15.8321C92.2263 16.9513 91.4743 17.7907 90.4076 17.7907C89.4108 17.7907 88.7113 17.0212 88.7113 15.9545V11.0055H86.2805V16.4966C86.2805 18.5077 87.5746 19.9591 89.5507 19.9591C90.7573 19.9591 91.7366 19.4345 92.2263 18.5951V19.8192H94.6745V11.0055Z" fill="#101828"/>
<path d="M98.8017 19.9591C100.865 19.9591 102.229 18.8574 102.229 17.1786C102.229 13.1915 97.4027 15.2375 97.4027 13.4363C97.4027 12.8767 97.8749 12.5794 98.5569 12.5794C99.2214 12.5794 99.9034 12.9816 100.008 13.7336H102.124C102.037 12.0023 100.603 10.8656 98.487 10.8656C96.6857 10.8656 95.3392 11.9674 95.3392 13.5237C95.3392 17.2311 100.078 15.4649 100.078 17.2661C100.078 17.7557 99.5537 18.123 98.8017 18.123C97.8924 18.123 97.2803 17.6333 97.1929 16.8464H95.0944C95.1818 18.7525 96.6508 19.9591 98.8017 19.9591Z" fill="#101828"/>
</svg>
