<svg width="110" height="29" viewBox="0 0 110 29" fill="none" xmlns="http://www.w3.org/2000/svg">
<path fill-rule="evenodd" clip-rule="evenodd" d="M13.3242 22.2169C17.3376 22.2169 20.5912 18.9634 20.5912 14.9499C20.5912 10.9364 17.3376 7.68287 13.3242 7.68287C9.3107 7.68287 6.05714 10.9364 6.05714 14.9499C6.05714 18.9634 9.3107 22.2169 13.3242 22.2169ZM13.3242 27.7741C20.4068 27.7741 26.1483 22.0325 26.1483 14.9499C26.1483 7.86731 20.4068 2.12573 13.3242 2.12573C6.24157 2.12573 0.5 7.86731 0.5 14.9499C0.5 22.0325 6.24157 27.7741 13.3242 27.7741Z" fill="#6938EF"/>
<path d="M13.471 15.2306C14.8065 13.8951 16.9718 13.8951 18.3073 15.2306L24.9572 21.8806C26.2927 23.2161 26.2927 25.3813 24.9572 26.7169V26.7169C23.6217 28.0524 21.4564 28.0524 20.1209 26.7169L13.471 20.0669C12.1355 18.7314 12.1355 16.5662 13.471 15.2306V15.2306Z" fill="#F670C7"/>
<path d="M15.3384 21.9344L19.5618 26.1578C21.5876 25.028 23.2753 23.365 24.4351 21.3585L20.2462 17.1697C19.5105 19.466 17.6637 21.2651 15.3384 21.9344Z" fill="#6519BA"/>
<path d="M46.8534 22.0034C46.4835 22.4604 46.0319 22.8086 45.4987 23.0479C44.9764 23.2873 44.3998 23.407 43.7686 23.407C42.9199 23.407 42.1528 23.222 41.4673 22.8521C40.7818 22.493 39.9983 21.851 39.117 20.9261C38.0833 20.7956 37.1584 20.4637 36.3423 19.9305C35.5371 19.3973 34.906 18.7118 34.449 17.874C34.0028 17.0253 33.7798 16.0895 33.7798 15.0667C33.7798 13.9459 34.0464 12.9394 34.5795 12.0471C35.1236 11.144 35.869 10.4367 36.8156 9.92533C37.7732 9.41391 38.8449 9.15821 40.031 9.15821C41.217 9.15821 42.2834 9.41391 43.23 9.92533C44.1767 10.4367 44.922 11.144 45.4661 12.0471C46.0102 12.9394 46.2822 13.9459 46.2822 15.0667C46.2822 16.3941 45.9068 17.5584 45.156 18.5595C44.4161 19.5605 43.4313 20.2569 42.2018 20.6487C42.4738 20.9316 42.7349 21.1329 42.9852 21.2526C43.2464 21.3831 43.5238 21.4484 43.8176 21.4484C44.5249 21.4484 45.1451 21.1655 45.6783 20.5997L46.8534 22.0034ZM36.4565 15.0667C36.4565 15.7739 36.6089 16.405 36.9135 16.96C37.2291 17.5149 37.6589 17.9501 38.203 18.2657C38.747 18.5704 39.3564 18.7227 40.031 18.7227C40.7056 18.7227 41.315 18.5704 41.859 18.2657C42.4031 17.9501 42.8274 17.5149 43.1321 16.96C43.4477 16.405 43.6054 15.7739 43.6054 15.0667C43.6054 14.3594 43.4477 13.7283 43.1321 13.1733C42.8274 12.6184 42.4031 12.1886 41.859 11.8839C41.315 11.5684 40.7056 11.4106 40.031 11.4106C39.3564 11.4106 38.747 11.5684 38.203 11.8839C37.6589 12.1886 37.2291 12.6184 36.9135 13.1733C36.6089 13.7283 36.4565 14.3594 36.4565 15.0667Z" fill="#101828"/>
<path d="M56.9362 11.9982V20.7792H54.5205V19.7346C54.1832 20.1155 53.7806 20.4093 53.3127 20.616C52.8449 20.8119 52.3389 20.9098 51.7948 20.9098C50.6414 20.9098 49.7274 20.5779 49.0528 19.9142C48.3782 19.2504 48.0408 18.2657 48.0408 16.96V11.9982H50.587V16.5846C50.587 17.9991 51.18 18.7064 52.3661 18.7064C52.9754 18.7064 53.4651 18.5105 53.835 18.1188C54.205 17.7162 54.39 17.1232 54.39 16.3397V11.9982H56.9362Z" fill="#101828"/>
<path d="M63.4734 20.9098C62.5485 20.9098 61.7161 20.7194 60.9761 20.3385C60.2471 19.9468 59.6759 19.4082 59.2624 18.7227C58.8489 18.0372 58.6421 17.2592 58.6421 16.3887C58.6421 15.5182 58.8489 14.7402 59.2624 14.0547C59.6759 13.3692 60.2471 12.836 60.9761 12.4552C61.7161 12.0635 62.5485 11.8676 63.4734 11.8676C64.3983 11.8676 65.2252 12.0635 65.9543 12.4552C66.6833 12.836 67.2545 13.3692 67.668 14.0547C68.0815 14.7402 68.2883 15.5182 68.2883 16.3887C68.2883 17.2592 68.0815 18.0372 67.668 18.7227C67.2545 19.4082 66.6833 19.9468 65.9543 20.3385C65.2252 20.7194 64.3983 20.9098 63.4734 20.9098ZM63.4734 18.8206C64.1262 18.8206 64.6594 18.603 65.0729 18.1678C65.4972 17.7216 65.7094 17.1286 65.7094 16.3887C65.7094 15.6488 65.4972 15.0612 65.0729 14.626C64.6594 14.1798 64.1262 13.9568 63.4734 13.9568C62.8205 13.9568 62.2819 14.1798 61.8575 14.626C61.4332 15.0612 61.221 15.6488 61.221 16.3887C61.221 17.1286 61.4332 17.7216 61.8575 18.1678C62.2819 18.603 62.8205 18.8206 63.4734 18.8206Z" fill="#101828"/>
<path d="M75.6538 20.3549C75.4035 20.5398 75.0934 20.6813 74.7235 20.7792C74.3644 20.8663 73.9835 20.9098 73.5809 20.9098C72.5363 20.9098 71.7257 20.6432 71.149 20.11C70.5832 19.5769 70.3003 18.7934 70.3003 17.7597V14.1526H68.9456V12.194H70.3003V10.0559H72.8465V12.194H75.0336V14.1526H72.8465V17.7271C72.8465 18.097 72.9389 18.3854 73.1239 18.5921C73.3198 18.788 73.5918 18.8859 73.94 18.8859C74.3426 18.8859 74.6854 18.7771 74.9683 18.5595L75.6538 20.3549Z" fill="#101828"/>
<path d="M77.0831 11.9982H79.6293V20.7792H77.0831V11.9982ZM78.3562 10.7741C77.8883 10.7741 77.5074 10.638 77.2137 10.366C76.9199 10.094 76.773 9.75667 76.773 9.35407C76.773 8.95147 76.9199 8.61415 77.2137 8.34212C77.5074 8.0701 77.8883 7.93408 78.3562 7.93408C78.8241 7.93408 79.2049 8.06466 79.4987 8.3258C79.7925 8.58695 79.9394 8.91338 79.9394 9.3051C79.9394 9.72947 79.7925 10.0831 79.4987 10.366C79.2049 10.638 78.8241 10.7741 78.3562 10.7741Z" fill="#101828"/>
<path d="M90.5939 16.4213C90.5939 16.454 90.5775 16.6825 90.5449 17.1069H83.902C84.0217 17.6509 84.3046 18.0807 84.7507 18.3963C85.1968 18.7118 85.7518 18.8696 86.4155 18.8696C86.8725 18.8696 87.2751 18.8043 87.6233 18.6737C87.9824 18.5323 88.3143 18.3147 88.6189 18.0209L89.9736 19.4898C89.1467 20.4365 87.9389 20.9098 86.3502 20.9098C85.36 20.9098 84.4841 20.7194 83.7224 20.3385C82.9607 19.9468 82.3732 19.4082 81.9597 18.7227C81.5462 18.0372 81.3395 17.2592 81.3395 16.3887C81.3395 15.5291 81.5408 14.7565 81.9434 14.071C82.3568 13.3746 82.9172 12.836 83.6245 12.4552C84.3427 12.0635 85.1424 11.8676 86.0238 11.8676C86.8834 11.8676 87.6614 12.0526 88.3578 12.4225C89.0542 12.7925 89.5982 13.3257 89.9899 14.0221C90.3925 14.7076 90.5939 15.5073 90.5939 16.4213ZM86.0401 13.7936C85.4634 13.7936 84.9792 13.9568 84.5875 14.2832C84.1958 14.6096 83.9564 15.0558 83.8693 15.6216H88.1946C88.1075 15.0667 87.8681 14.626 87.4764 14.2995C87.0847 13.9622 86.6059 13.7936 86.0401 13.7936Z" fill="#101828"/>
<path d="M97.6262 11.8676C98.7143 11.8676 99.5902 12.194 100.254 12.8469C100.929 13.4998 101.266 14.4682 101.266 15.7522V20.7792H98.7197V16.1439C98.7197 15.4475 98.5674 14.9306 98.2627 14.5933C97.9581 14.2451 97.5174 14.071 96.9407 14.071C96.2987 14.071 95.7873 14.2723 95.4064 14.6749C95.0256 15.0667 94.8352 15.6542 94.8352 16.4377V20.7792H92.289V11.9982H94.7209V13.0264C95.0583 12.6565 95.4772 12.3736 95.9777 12.1777C96.4782 11.971 97.0277 11.8676 97.6262 11.8676Z" fill="#101828"/>
<path d="M109.238 20.3549C108.987 20.5398 108.677 20.6813 108.307 20.7792C107.948 20.8663 107.567 20.9098 107.165 20.9098C106.12 20.9098 105.309 20.6432 104.733 20.11C104.167 19.5769 103.884 18.7934 103.884 17.7597V14.1526H102.529V12.194H103.884V10.0559H106.43V12.194H108.617V14.1526H106.43V17.7271C106.43 18.097 106.523 18.3854 106.708 18.5921C106.904 18.788 107.176 18.8859 107.524 18.8859C107.926 18.8859 108.269 18.7771 108.552 18.5595L109.238 20.3549Z" fill="#101828"/>
</svg>
