<svg width="22" height="22" viewBox="0 0 22 22" fill="none" xmlns="http://www.w3.org/2000/svg">
<path d="M14.5 3.52734C16.4031 3.53794 17.4338 3.62233 18.1062 4.29467C18.875 5.06351 18.875 6.30095 18.875 8.77582V14.0258C18.875 16.5007 18.875 17.7381 18.1062 18.507C17.3373 19.2758 16.0999 19.2758 13.625 19.2758H8.375C5.90013 19.2758 4.66269 19.2758 3.89384 18.507C3.125 17.7381 3.125 16.5007 3.125 14.0258V8.77582C3.125 6.30095 3.125 5.06351 3.89384 4.29467C4.56618 3.62233 5.59685 3.53794 7.5 3.52734" stroke="#16A34A" stroke-width="1.3125"/>
<path d="M8.375 11.7523L9.875 13.1523L13.625 9.65234" stroke="#16A34A" stroke-width="1.3125" stroke-linecap="round" stroke-linejoin="round"/>
<path d="M7.5 3.08984C7.5 2.36497 8.08763 1.77734 8.8125 1.77734H13.1875C13.9124 1.77734 14.5 2.36497 14.5 3.08984V3.96484C14.5 4.68972 13.9124 5.27734 13.1875 5.27734H8.8125C8.08763 5.27734 7.5 4.68972 7.5 3.96484V3.08984Z" stroke="#16A34A" stroke-width="1.3125"/>
</svg>
