<svg width="22" height="22" viewBox="0 0 22 22" fill="none" xmlns="http://www.w3.org/2000/svg">
<path d="M12.1792 19.4489L12.76 19.7927L12.76 19.7927L12.1792 19.4489ZM12.667 18.6246L12.0862 18.2808L12.0862 18.2808L12.667 18.6246ZM9.73526 18.6246L9.15438 18.9685L9.15439 18.9685L9.73526 18.6246ZM10.2231 19.4489L10.804 19.1051L10.804 19.1051L10.2231 19.4489ZM2.54371 14.5221L3.16733 14.2638L3.16733 14.2638L2.54371 14.5221ZM7.41179 17.2923L7.40016 17.9672L7.40016 17.9672L7.41179 17.2923ZM4.9791 16.9575L4.72078 17.5811L4.72079 17.5811L4.9791 16.9575ZM19.8586 14.5221L20.4823 14.7804L20.4823 14.7804L19.8586 14.5221ZM14.9905 17.2923L14.9789 16.6174L14.9789 16.6174L14.9905 17.2923ZM17.4232 16.9575L17.6816 17.5811L17.6816 17.5811L17.4232 16.9575ZM18.0524 2.66312L17.6997 3.23865L17.6997 3.23865L18.0524 2.66312ZM19.5381 4.14876L20.1136 3.79607L20.1136 3.79607L19.5381 4.14876ZM4.34993 2.66312L3.99724 2.08759L3.99724 2.08759L4.34993 2.66312ZM2.86429 4.14876L2.28876 3.79607L2.28876 3.79607L2.86429 4.14876ZM8.86368 17.4889L9.20305 16.9054L9.20305 16.9054L8.86368 17.4889ZM12.76 19.7927L13.2479 18.9685L12.0862 18.2808L11.5983 19.1051L12.76 19.7927ZM9.15439 18.9685L9.64227 19.7927L10.804 19.1051L10.3161 18.2808L9.15439 18.9685ZM11.5983 19.1051C11.4248 19.3982 10.9775 19.3982 10.804 19.1051L9.64227 19.7927C10.3385 20.969 12.0638 20.969 12.76 19.7927L11.5983 19.1051ZM9.85117 2.675H12.5512V1.325H9.85117V2.675ZM19.5262 9.65V10.55H20.8762V9.65H19.5262ZM2.87617 10.55V9.65H1.52617V10.55H2.87617ZM1.52617 10.55C1.52617 11.5891 1.52581 12.4023 1.57056 13.0581C1.61572 13.7201 1.70908 14.2709 1.9201 14.7804L3.16733 14.2638C3.03581 13.9462 2.9579 13.5594 2.91742 12.9663C2.87654 12.367 2.87617 11.6076 2.87617 10.55H1.52617ZM7.42342 16.6174C6.29353 16.5979 5.70148 16.5261 5.23741 16.3338L4.72079 17.5811C5.44526 17.8812 6.27041 17.9477 7.40016 17.9672L7.42342 16.6174ZM1.9201 14.7804C2.44533 16.0484 3.45277 17.0558 4.72078 17.5811L5.23741 16.3338C4.30018 15.9456 3.55555 15.201 3.16733 14.2638L1.9201 14.7804ZM19.5262 10.55C19.5262 11.6076 19.5258 12.367 19.4849 12.9663C19.4444 13.5594 19.3665 13.9462 19.235 14.2638L20.4823 14.7804C20.6933 14.2709 20.7866 13.7201 20.8318 13.0581C20.8765 12.4023 20.8762 11.5891 20.8762 10.55H19.5262ZM15.0021 17.9672C16.1319 17.9477 16.9571 17.8812 17.6816 17.5811L17.1649 16.3338C16.7009 16.5261 16.1088 16.5979 14.9789 16.6174L15.0021 17.9672ZM19.235 14.2638C18.8468 15.201 18.1022 15.9456 17.1649 16.3338L17.6816 17.5811C18.9496 17.0558 19.957 16.0484 20.4823 14.7804L19.235 14.2638ZM12.5512 2.675C14.0373 2.675 15.1045 2.67571 15.9369 2.75486C16.7593 2.83305 17.2826 2.98301 17.6997 3.23865L18.4051 2.08759C17.7402 1.68011 16.9859 1.49851 16.0647 1.41092C15.1535 1.32429 14.0111 1.325 12.5512 1.325V2.675ZM20.8762 9.65C20.8762 8.19003 20.8769 7.04765 20.7903 6.1365C20.7027 5.2153 20.5211 4.46101 20.1136 3.79607L18.9625 4.50144C19.2182 4.91862 19.3681 5.4419 19.4463 6.26428C19.5255 7.0967 19.5262 8.16389 19.5262 9.65H20.8762ZM17.6997 3.23865C18.2144 3.55404 18.6471 3.98677 18.9625 4.50144L20.1136 3.79607C19.6869 3.09975 19.1014 2.5143 18.4051 2.08759L17.6997 3.23865ZM9.85117 1.325C8.3912 1.325 7.24882 1.32429 6.33767 1.41092C5.41647 1.49851 4.66218 1.68011 3.99724 2.08759L4.70261 3.23865C5.11979 2.98301 5.64307 2.83305 6.46545 2.75486C7.29787 2.67571 8.36506 2.675 9.85117 2.675V1.325ZM2.87617 9.65C2.87617 8.16389 2.87688 7.0967 2.95603 6.26428C3.03422 5.4419 3.18418 4.91862 3.43982 4.50144L2.28876 3.79607C1.88128 4.46101 1.69968 5.2153 1.61209 6.1365C1.52546 7.04765 1.52617 8.19003 1.52617 9.65H2.87617ZM3.99724 2.08759C3.30092 2.5143 2.71547 3.09975 2.28876 3.79607L3.43982 4.50144C3.75522 3.98677 4.18794 3.55404 4.70261 3.23865L3.99724 2.08759ZM10.3161 18.2808C10.1334 17.9721 9.973 17.6997 9.81703 17.4857C9.65275 17.2603 9.46431 17.0573 9.20305 16.9054L8.52432 18.0723C8.56699 18.0972 8.62512 18.1424 8.72604 18.2809C8.83527 18.4307 8.95868 18.6378 9.15438 18.9685L10.3161 18.2808ZM7.40016 17.9672C7.79535 17.974 8.04566 17.979 8.23647 18.0001C8.41476 18.0199 8.48388 18.0488 8.52432 18.0723L9.20305 16.9054C8.93957 16.7521 8.66539 16.6894 8.38505 16.6583C8.11722 16.6287 7.79354 16.6238 7.42342 16.6174L7.40016 17.9672ZM13.2479 18.9685C13.4436 18.6378 13.567 18.4307 13.6763 18.2809C13.7772 18.1424 13.8353 18.0972 13.878 18.0723L13.1993 16.9054C12.938 17.0573 12.7496 17.2603 12.5853 17.4857C12.4293 17.6997 12.2689 17.9721 12.0862 18.2808L13.2479 18.9685ZM14.9789 16.6174C14.6088 16.6238 14.2851 16.6287 14.0173 16.6583C13.7369 16.6894 13.4627 16.7521 13.1993 16.9054L13.878 18.0723C13.9184 18.0488 13.9875 18.0199 14.1658 18.0001C14.3567 17.979 14.607 17.974 15.0021 17.9672L14.9789 16.6174Z" fill="#16A34A"/>
<path d="M7.59961 10.1001H7.60771M11.1915 10.1001H11.1996M14.7915 10.1001H14.7996" stroke="#16A34A" stroke-width="1.8" stroke-linecap="round" stroke-linejoin="round"/>
</svg>
