<svg width="26" height="24" viewBox="0 0 26 24" fill="none" xmlns="http://www.w3.org/2000/svg">
<path d="M13 24.0098C8.6875 24.0098 4.75 21.7598 2.59375 18.0098C0.4375 14.3066 0.4375 9.75977 2.59375 6.00977C4.75 2.30664 8.6875 0.00976562 13 0.00976562C17.2656 0.00976562 21.2031 2.30664 23.3594 6.00977C25.5156 9.75977 25.5156 14.3066 23.3594 18.0098C21.2031 21.7598 17.2656 24.0098 13 24.0098ZM18.2969 9.80664H18.25C18.7188 9.38477 18.7188 8.68164 18.25 8.21289C17.8281 7.79102 17.125 7.79102 16.7031 8.21289L11.5 13.4629L9.29688 11.2598C8.82812 10.791 8.125 10.791 7.70312 11.2598C7.23438 11.6816 7.23438 12.3848 7.70312 12.8066L10.7031 15.8066C11.125 16.2754 11.8281 16.2754 12.2969 15.8066L18.2969 9.80664Z" fill="white"/>
</svg>
