<svg width="22" height="22" viewBox="0 0 22 22" fill="none" xmlns="http://www.w3.org/2000/svg">
<path d="M14.5 4C16.4031 4.01059 17.4338 4.09499 18.1062 4.76732C18.875 5.53617 18.875 6.77361 18.875 9.24848V14.4985C18.875 16.9734 18.875 18.2108 18.1062 18.9796C17.3373 19.7485 16.0999 19.7485 13.625 19.7485H8.375C5.90013 19.7485 4.66269 19.7485 3.89384 18.9796C3.125 18.2108 3.125 16.9734 3.125 14.4985V9.24848C3.125 6.77361 3.125 5.53617 3.89384 4.76732C4.56618 4.09499 5.59685 4.01059 7.5 4" stroke="#E11D48" stroke-width="1.3125"/>
<path d="M7.5 3.5625C7.5 2.83763 8.08763 2.25 8.8125 2.25H13.1875C13.9124 2.25 14.5 2.83763 14.5 3.5625V4.4375C14.5 5.16237 13.9124 5.75 13.1875 5.75H8.8125C8.08763 5.75 7.5 5.16237 7.5 4.4375V3.5625Z" stroke="#E11D48" stroke-width="1.3125"/>
<path d="M13.1875 10.125L8.81254 14.5M8.81252 10.125L13.1875 14.5" stroke="#E11D48" stroke-width="1.3125" stroke-linecap="round"/>
</svg>
