<svg width="116" height="28" viewBox="0 0 116 28" fill="none" xmlns="http://www.w3.org/2000/svg">
<path d="M6.89726 2.61455L9.89838 13.8149V1.501C10.1364 1.44547 10.3769 1.39656 10.6197 1.35449V13.8161L13.9952 1.21851C14.2385 1.24053 14.4798 1.26934 14.7189 1.30476L11.3162 14.0038L18.0799 2.28876C18.3003 2.38789 18.5173 2.49305 18.7308 2.60405L11.9419 14.3628L21.634 4.67076C21.8087 4.836 21.9788 5.00611 22.144 5.18086L12.4505 14.8743L24.2107 8.08459C24.3217 8.29813 24.4268 8.51519 24.5259 8.73555L12.8138 15.4976L25.5093 12.0958C25.5447 12.3349 25.5735 12.5762 25.5956 12.8195L12.9982 16.1949L25.4594 16.1949C25.4173 16.4378 25.3684 16.6783 25.3128 16.9163L12.9962 16.9163L24.1988 19.918C24.0837 20.1383 23.9625 20.3549 23.8352 20.5674L12.8127 17.6139L22.019 22.9292C21.8448 23.1084 21.6653 23.2826 21.4808 23.4514L12.4528 18.2391L19.2842 25.0705C19.0681 25.1967 18.848 25.3168 18.6241 25.4305L11.942 18.7485L16.3202 26.3317C16.0805 26.3994 15.8379 26.4604 15.5927 26.5144L11.3167 19.108L13.3783 26.8022C13.1946 26.81 13.0098 26.814 12.8241 26.814C12.7607 26.814 12.6975 26.8135 12.6343 26.8126L10.6197 19.2941V26.6252C10.3769 26.5832 10.1364 26.5343 9.89838 26.4787V19.2953L8.12208 25.9246C7.89552 25.8352 7.67211 25.7396 7.45207 25.638L9.20134 19.1096L5.9176 24.7972C5.71431 24.667 5.51493 24.5313 5.31968 24.3901L8.5776 18.7473L4.01511 23.3097C3.84036 23.1445 3.67025 22.9744 3.50501 22.7997L8.06606 18.2386L2.4248 21.4956C2.28365 21.3004 2.14785 21.101 2.01764 20.8977L7.70792 17.6125L1.17632 19.3626C1.07466 19.1426 0.979048 18.9192 0.8897 18.6926L7.51891 16.9163L0.335414 16.9163C0.279868 16.6783 0.230949 16.4378 0.188861 16.1949L7.51697 16.1949L0.00139763 14.1812C0.000466952 14.1175 0 14.0537 0 13.9899C0 13.8047 0.00392563 13.6204 0.0116982 13.4371L7.70687 15.499L0.299398 11.2223C0.353335 10.9771 0.414289 10.7345 0.482039 10.4948L8.06834 14.8748L1.38346 8.18989C1.49718 7.966 1.61729 7.7459 1.74354 7.52982L8.57768 14.364L3.36328 5.33235C3.53213 5.14794 3.70629 4.96848 3.88554 4.79422L9.20177 14.0022L6.24785 2.97802C6.4604 2.8508 6.67695 2.72957 6.89726 2.61455Z" fill="#6927DA"/>
<path d="M33.7205 19.7663H36.5115V14.9188H42.0771V12.4542H36.5115V10.3813H42.4362V7.93311H33.7205V19.7663Z" fill="#101828"/>
<path d="M47.1798 12.8133C48.2407 12.8133 49.0894 13.4661 49.0894 15.3431C49.0894 17.1875 48.2733 17.8893 47.1798 17.8893C46.0862 17.8893 45.2702 17.1875 45.2702 15.3431C45.2702 13.4661 46.1189 12.8133 47.1798 12.8133ZM47.1798 10.7241C44.7479 10.7241 42.5281 12.1604 42.5281 15.3431C42.5281 18.5258 44.7479 19.9785 47.1798 19.9785C49.6117 19.9785 51.8315 18.5258 51.8315 15.3431C51.8315 12.1604 49.6117 10.7241 47.1798 10.7241Z" fill="#101828"/>
<path d="M57.0027 10.7241C54.3423 10.7241 52.5143 12.5358 52.5143 15.3268C52.5143 18.1178 54.1138 19.9785 57.0027 19.9785C58.7655 19.9785 60.8709 19.1461 61.4748 16.5346H58.9613C58.7655 17.367 58.1616 17.8893 57.1659 17.8893C56.203 17.8893 55.2563 17.2527 55.2563 15.3431C55.2563 13.4661 56.203 12.8133 57.1659 12.8133C57.9657 12.8133 58.6022 13.1723 58.8471 14.2006H61.3606C60.8383 11.5565 58.8307 10.7241 57.0027 10.7241Z" fill="#101828"/>
<path d="M67.8028 14.2822C64.3916 14.5434 61.9596 15.2452 61.9596 17.3996C61.9596 18.9992 63.3307 19.9785 64.9955 19.9785C66.2522 19.9785 67.2968 19.6357 67.9497 18.7054L67.9823 19.7663H70.6264C70.4958 19.2113 70.4306 18.1831 70.4306 17.2201V16.3061L70.4632 14.3965C70.5122 11.736 69.0759 10.7078 66.546 10.7078C63.9346 10.7078 62.3677 12.1767 62.2371 13.8252H64.7506C64.8649 12.9765 65.4525 12.5358 66.3175 12.5358C67.2968 12.5358 67.8028 12.8949 67.8028 13.9395V14.2822ZM67.8681 16.0776C67.8681 17.6934 67.052 18.1504 65.9748 18.1504C65.2729 18.1504 64.7343 17.775 64.7343 17.2038C64.7343 16.2571 65.9911 16.0449 67.8681 15.8654V16.0776Z" fill="#101828"/>
<path d="M74.5384 7.93311H71.8453V19.7663H74.5384V7.93311Z" fill="#101828"/>
<path d="M76.2555 7.93311V19.7663H79.0465V15.6695H80.8092C83.8777 15.6695 86.179 14.9024 86.179 11.785C86.179 8.6839 83.8777 7.93311 80.8092 7.93311H76.2555ZM80.8908 10.2834C82.1965 10.2834 83.2248 10.5446 83.2248 11.785C83.2248 13.0254 82.1965 13.3192 80.8908 13.3192H79.0465V10.2834H80.8908Z" fill="#101828"/>
<path d="M90.9102 12.8133C91.9711 12.8133 92.8199 13.4661 92.8199 15.3431C92.8199 17.1875 92.0038 17.8893 90.9102 17.8893C89.8167 17.8893 89.0006 17.1875 89.0006 15.3431C89.0006 13.4661 89.8493 12.8133 90.9102 12.8133ZM90.9102 10.7241C88.4783 10.7241 86.2586 12.1604 86.2586 15.3431C86.2586 18.5258 88.4783 19.9785 90.9102 19.9785C93.3421 19.9785 95.5619 18.5258 95.5619 15.3431C95.5619 12.1604 93.3421 10.7241 90.9102 10.7241Z" fill="#101828"/>
<path d="M96.6395 10.9852V19.7663H99.3489V10.9852H96.6395ZM96.6395 7.93311V10.0876H99.3326V7.93311H96.6395Z" fill="#101828"/>
<path d="M103.644 10.9852H100.951V19.7663H103.644V15.2615C103.644 13.6293 104.118 12.8786 105.277 12.8786C106.582 12.8786 106.631 13.9068 106.631 15.1636V19.7663H109.324V14.4944C109.324 12.1114 108.622 10.7894 106.37 10.7894C104.983 10.7894 104.036 11.4912 103.644 12.1441V10.9852Z" fill="#101828"/>
<path d="M111.187 10.9852H109.799V12.8949H111.187V17.3017C111.187 19.3419 111.921 19.7663 114.092 19.7663H115.806V17.824H115.038C114.141 17.824 113.88 17.6608 113.88 16.8284V12.8949H115.806V10.9852H113.88V8.58597H111.187V10.9852Z" fill="#101828"/>
</svg>
