<svg width="22" height="22" viewBox="0 0 22 22" fill="none" xmlns="http://www.w3.org/2000/svg">
<path d="M16.8062 14.2114L18.3081 9.7057C19.6201 5.76961 20.2762 3.80157 19.2373 2.76271C18.1984 1.72385 16.2304 2.37986 12.2943 3.69189L7.78863 5.19378C4.61183 6.25272 3.02343 6.78218 2.57205 7.55861C2.14265 8.29723 2.14265 9.20948 2.57205 9.9481C3.02343 10.7245 4.61183 11.254 7.78863 12.3129C8.29872 12.483 8.55376 12.568 8.76694 12.7107C8.97354 12.849 9.15101 13.0265 9.28932 13.2331C9.43203 13.4462 9.51704 13.7013 9.68707 14.2114C10.746 17.3882 11.2755 18.9766 12.0519 19.4279C12.7905 19.8574 13.7028 19.8574 14.4414 19.4279C15.2178 18.9766 15.7473 17.3882 16.8062 14.2114Z" stroke="#0891B2" stroke-width="1.3125"/>
<path d="M14.6851 8.24244C14.9428 7.98759 14.9451 7.57208 14.6903 7.31438C14.4354 7.05668 14.0199 7.05438 13.7622 7.30924L14.6851 8.24244ZM9.82981 13.0442L14.6851 8.24244L13.7622 7.30924L8.90689 12.111L9.82981 13.0442Z" fill="#0891B2"/>
</svg>
