<svg width="178" height="54" viewBox="0 0 178 54" fill="none" xmlns="http://www.w3.org/2000/svg">
<g filter="url(#filter0_ddiii_886_17491)">
<mask id="path-1-inside-1_886_17491" fill="white">
<path fill-rule="evenodd" clip-rule="evenodd" d="M48.9889 36.905C44.7573 44.7044 36.4971 50 27 50C13.1929 50 2 38.8071 2 25C2 21.9064 2.56192 18.944 3.58927 16.2093L11.1238 36.9049H16.3328L18.9373 29.7505L21.5418 36.9049H26.7428L24.1463 29.7505L21.1158 21.4226L18.0852 13.1026H12.8762L16.3328 22.5962L13.7283 29.7505L7.66724 13.1026H5.00699C9.23734 5.29904 17.4998 0 27 0C36.5132 0 44.7854 5.31365 49.0105 13.1349H46.6465V22.5722H36.8555V13.1349H35.4006L35.4086 13.1027H30.2076L26.5581 23.1108L29.1626 30.2651L31.9601 22.5802V27.4677H36.8555H46.6465V36.905H48.9889ZM51.542 29.7877C51.8426 28.2381 52 26.6374 52 25C52 23.3626 51.8426 21.7619 51.542 20.2123V29.7877ZM31.9602 32.0095H36.8557V36.905H31.9602V32.0095Z"/>
</mask>
<path fill-rule="evenodd" clip-rule="evenodd" d="M48.9889 36.905C44.7573 44.7044 36.4971 50 27 50C13.1929 50 2 38.8071 2 25C2 21.9064 2.56192 18.944 3.58927 16.2093L11.1238 36.9049H16.3328L18.9373 29.7505L21.5418 36.9049H26.7428L24.1463 29.7505L21.1158 21.4226L18.0852 13.1026H12.8762L16.3328 22.5962L13.7283 29.7505L7.66724 13.1026H5.00699C9.23734 5.29904 17.4998 0 27 0C36.5132 0 44.7854 5.31365 49.0105 13.1349H46.6465V22.5722H36.8555V13.1349H35.4006L35.4086 13.1027H30.2076L26.5581 23.1108L29.1626 30.2651L31.9601 22.5802V27.4677H36.8555H46.6465V36.905H48.9889ZM51.542 29.7877C51.8426 28.2381 52 26.6374 52 25C52 23.3626 51.8426 21.7619 51.542 20.2123V29.7877ZM31.9602 32.0095H36.8557V36.905H31.9602V32.0095Z" fill="white"/>
<path d="M48.9889 36.905L50.1248 37.5213L51.1604 35.6126H48.9889V36.905ZM3.58927 16.2093L4.80367 15.7672L3.60829 12.4838L2.37944 15.7548L3.58927 16.2093ZM11.1238 36.9049L9.90943 37.347L10.219 38.1973H11.1238V36.9049ZM16.3328 36.9049V38.1973H17.2377L17.5472 37.347L16.3328 36.9049ZM18.9373 29.7505L20.1517 29.3085L18.9373 25.9726L17.7229 29.3085L18.9373 29.7505ZM21.5418 36.9049L20.3274 37.347L20.637 38.1973H21.5418V36.9049ZM26.7428 36.9049V38.1973H28.5867L27.9576 36.464L26.7428 36.9049ZM24.1463 29.7505L25.3612 29.3097L25.3608 29.3086L24.1463 29.7505ZM21.1158 21.4226L22.3303 20.9806L22.3301 20.9803L21.1158 21.4226ZM18.0852 13.1026L19.2996 12.6603L18.9899 11.8103H18.0852V13.1026ZM12.8762 13.1026V11.8103H11.0303L11.6619 13.5448L12.8762 13.1026ZM16.3328 22.5962L17.5472 23.0383L17.7082 22.5962L17.5472 22.1541L16.3328 22.5962ZM13.7283 29.7505L12.5139 30.1927L13.7284 33.5284L14.9427 30.1926L13.7283 29.7505ZM7.66724 13.1026L8.88163 12.6605L8.57208 11.8103H7.66724V13.1026ZM5.00699 13.1026L3.87082 12.4867L2.83632 14.395H5.00699V13.1026ZM49.0105 13.1349V14.4273H51.1775L50.1475 12.5206L49.0105 13.1349ZM46.6465 13.1349V11.8425H45.3542V13.1349H46.6465ZM46.6465 22.5722V23.8646H47.9389V22.5722H46.6465ZM36.8555 22.5722H35.5632V23.8646H36.8555V22.5722ZM36.8555 13.1349H38.1479V11.8425H36.8555V13.1349ZM35.4006 13.1349L34.1468 12.8215L33.7454 14.4273H35.4006V13.1349ZM35.4086 13.1027L36.6624 13.4161L37.0638 11.8104H35.4086V13.1027ZM30.2076 13.1027V11.8104H29.3033L28.9935 12.66L30.2076 13.1027ZM26.5581 23.1108L25.344 22.668L25.1826 23.1104L25.3437 23.5529L26.5581 23.1108ZM29.1626 30.2651L27.9482 30.7072L29.1627 34.0432L30.377 30.7072L29.1626 30.2651ZM31.9601 22.5802H33.2524L30.7456 22.1382L31.9601 22.5802ZM31.9601 27.4677H30.6677V28.7601H31.9601V27.4677ZM46.6465 27.4677H47.9389V26.1753H46.6465V27.4677ZM46.6465 36.905H45.3542V38.1974H46.6465V36.905ZM51.542 29.7877H50.2497L52.8108 30.0337L51.542 29.7877ZM51.542 20.2123L52.8108 19.9662L50.2497 20.2123H51.542ZM36.8557 32.0095H38.1481V30.7171H36.8557V32.0095ZM31.9602 32.0095V30.7171H30.6678V32.0095H31.9602ZM36.8557 36.905V38.1974H38.1481V36.905H36.8557ZM31.9602 36.905H30.6678V38.1974H31.9602V36.905ZM27 51.2924C36.9898 51.2924 45.6763 45.7206 50.1248 37.5213L47.8529 36.2887C43.8383 43.6882 36.0043 48.7076 27 48.7076V51.2924ZM0.707623 25C0.707623 39.5209 12.4791 51.2924 27 51.2924V48.7076C13.9066 48.7076 3.29238 38.0934 3.29238 25H0.707623ZM2.37944 15.7548C1.29834 18.6326 0.707623 21.7488 0.707623 25H3.29238C3.29238 22.0639 3.8255 19.2554 4.79909 16.6638L2.37944 15.7548ZM2.37487 16.6514L9.90943 37.347L12.3382 36.4628L4.80367 15.7672L2.37487 16.6514ZM11.1238 38.1973H16.3328V35.6125H11.1238V38.1973ZM17.5472 37.347L20.1517 30.1926L17.7229 29.3085L15.1184 36.4628L17.5472 37.347ZM17.7229 30.1926L20.3274 37.347L22.7562 36.4628L20.1517 29.3085L17.7229 30.1926ZM21.5418 38.1973H26.7428V35.6125H21.5418V38.1973ZM27.9576 36.464L25.3612 29.3097L22.9315 30.1914L25.528 37.3458L27.9576 36.464ZM25.3608 29.3086L22.3303 20.9806L19.9013 21.8645L22.9319 30.1925L25.3608 29.3086ZM22.3301 20.9803L19.2996 12.6603L16.8709 13.545L19.9015 21.8649L22.3301 20.9803ZM18.0852 11.8103H12.8762V14.395H18.0852V11.8103ZM11.6619 13.5448L15.1184 23.0384L17.5472 22.1541L14.0906 12.6605L11.6619 13.5448ZM15.1184 22.1541L12.5139 29.3085L14.9427 30.1926L17.5472 23.0383L15.1184 22.1541ZM14.9427 29.3084L8.88163 12.6605L6.45284 13.5448L12.5139 30.1927L14.9427 29.3084ZM7.66724 11.8103H5.00699V14.395H7.66724V11.8103ZM27 -1.29238C17.007 -1.29238 8.31807 4.28302 3.87082 12.4867L6.14316 13.7186C10.1566 6.31506 17.9927 1.29238 27 1.29238V-1.29238ZM50.1475 12.5206C45.7059 4.29838 37.0068 -1.29238 27 -1.29238V1.29238C36.0197 1.29238 43.865 6.32891 47.8734 13.7491L50.1475 12.5206ZM46.6465 14.4273H49.0105V11.8425H46.6465V14.4273ZM47.9389 22.5722V13.1349H45.3542V22.5722H47.9389ZM36.8555 23.8646H46.6465V21.2798H36.8555V23.8646ZM35.5632 13.1349V22.5722H38.1479V13.1349H35.5632ZM35.4006 14.4273H36.8555V11.8425H35.4006V14.4273ZM34.1548 12.7893L34.1468 12.8215L36.6544 13.4483L36.6624 13.4161L34.1548 12.7893ZM30.2076 14.3951H35.4086V11.8104H30.2076V14.3951ZM27.7723 23.5535L31.4218 13.5455L28.9935 12.66L25.344 22.668L27.7723 23.5535ZM30.377 29.823L27.7725 22.6687L25.3437 23.5529L27.9482 30.7072L30.377 29.823ZM30.7456 22.1382L27.9482 29.8231L30.377 30.7072L33.1745 23.0223L30.7456 22.1382ZM33.2524 27.4677V22.5802H30.6677V27.4677H33.2524ZM36.8555 26.1753H31.9601V28.7601H36.8555V26.1753ZM46.6465 26.1753H36.8555V28.7601H46.6465V26.1753ZM47.9389 36.905V27.4677H45.3542V36.905H47.9389ZM48.9889 35.6126H46.6465V38.1974H48.9889V35.6126ZM52.8108 30.0337C53.127 28.4035 53.2924 26.7204 53.2924 25H50.7076C50.7076 26.5544 50.5582 28.0727 50.2733 29.5416L52.8108 30.0337ZM53.2924 25C53.2924 23.2796 53.127 21.5965 52.8108 19.9662L50.2733 20.4584C50.5582 21.9273 50.7076 23.4456 50.7076 25H53.2924ZM50.2497 20.2123V29.7877H52.8344V20.2123H50.2497ZM36.8557 30.7171H31.9602V33.3019H36.8557V30.7171ZM38.1481 36.905V32.0095H35.5633V36.905H38.1481ZM31.9602 38.1974H36.8557V35.6126H31.9602V38.1974ZM30.6678 32.0095V36.905H33.2526V32.0095H30.6678Z" fill="url(#paint0_linear_886_17491)" mask="url(#path-1-inside-1_886_17491)"/>
</g>
<path d="M59.8039 44.3168C59.5547 44.2043 59.3617 44.0516 59.217 43.8506C59.0724 43.6496 59 43.4245 59 43.1673H59.6592C59.6833 43.3924 59.7717 43.5773 59.9325 43.73C60.0933 43.8827 60.3264 43.9631 60.6399 43.9631C60.9534 43.9631 61.1704 43.8908 61.3392 43.7381C61.508 43.5934 61.5965 43.4004 61.5965 43.1673C61.5965 42.9824 61.5482 42.8377 61.4437 42.7252C61.3473 42.6127 61.2186 42.5242 61.0659 42.468C60.9132 42.4117 60.7122 42.3474 60.455 42.275C60.1415 42.1946 59.8923 42.1143 59.6994 42.0258C59.5064 41.9454 59.3457 41.8168 59.217 41.64C59.0804 41.4631 59.0161 41.23 59.0161 40.9326C59.0161 40.6754 59.0804 40.4422 59.217 40.2413C59.3537 40.0403 59.5386 39.8876 59.7717 39.775C60.0129 39.6625 60.2862 39.6143 60.5916 39.6143C61.0338 39.6143 61.4035 39.7268 61.6849 39.9519C61.9662 40.177 62.127 40.4744 62.1672 40.8442H61.4839C61.4598 40.6593 61.3633 40.4985 61.1945 40.3618C61.0257 40.2252 60.8006 40.1528 60.5273 40.1528C60.2701 40.1528 60.0531 40.2172 59.8923 40.3538C59.7315 40.4905 59.6431 40.6754 59.6431 40.9165C59.6431 41.0853 59.6913 41.23 59.7878 41.3426C59.8842 41.4551 60.0048 41.5355 60.1495 41.5918C60.2942 41.648 60.4952 41.7123 60.7524 41.7847C61.0659 41.8731 61.3232 41.9535 61.508 42.0419C61.701 42.1223 61.8617 42.259 61.9984 42.4278C62.1351 42.6046 62.1994 42.8377 62.1994 43.1432C62.1994 43.3763 62.135 43.5934 62.0145 43.8024C61.8939 44.0114 61.709 44.1721 61.4678 44.3008C61.2267 44.4294 60.9453 44.4937 60.6158 44.4937C60.2862 44.4937 60.0209 44.4374 59.7717 44.3249L59.8039 44.3168Z" fill="white"/>
<path d="M63.9033 41.2052V43.4158C63.9033 43.6007 63.9435 43.7293 64.0158 43.8017C64.0962 43.874 64.2248 43.9142 64.4177 43.9142H64.8759V44.4367H64.3132C63.9676 44.4367 63.7103 44.3563 63.5335 44.1956C63.3566 44.0348 63.2763 43.7776 63.2763 43.4078V41.1972H62.7939V40.6827H63.2763V39.7422H63.8952V40.6827H64.8759V41.1972H63.8952L63.9033 41.2052Z" fill="white"/>
<path d="M66.7249 40.8038C66.9258 40.6832 67.175 40.627 67.4644 40.627V41.27H67.3036C66.6043 41.27 66.2586 41.6479 66.2586 42.4035V44.4372H65.6396V40.6913H66.2586V41.3022C66.3712 41.0852 66.5239 40.9244 66.7249 40.8038Z" fill="white"/>
<path d="M71.5802 42.7971H68.5899C68.614 43.1669 68.7426 43.4563 68.9677 43.6653C69.1928 43.8743 69.4741 43.9788 69.8037 43.9788C70.069 43.9788 70.294 43.9145 70.4789 43.7939C70.6558 43.6653 70.7844 43.5045 70.8567 43.2955H71.524C71.4275 43.6573 71.2265 43.9467 70.9211 44.1717C70.6236 44.3968 70.2458 44.5094 69.8037 44.5094C69.45 44.5094 69.1285 44.429 68.8471 44.2682C68.5658 44.1074 68.3487 43.8824 68.1879 43.5849C68.0272 43.2875 67.9468 42.9499 67.9468 42.564C67.9468 42.1782 68.0272 41.8406 68.1799 41.5431C68.3326 41.2537 68.5497 41.0287 68.831 40.8679C69.1124 40.7071 69.4339 40.6348 69.7957 40.6348C70.1574 40.6348 70.4629 40.7152 70.7362 40.8679C71.0095 41.0206 71.2185 41.2377 71.3712 41.5029C71.5159 41.7762 71.5963 42.0817 71.5963 42.4193C71.5963 42.5399 71.5963 42.6605 71.5722 42.7971H71.5802ZM70.8005 41.6798C70.696 41.511 70.5513 41.3824 70.3744 41.2939C70.1976 41.2055 69.9966 41.1573 69.7796 41.1573C69.4661 41.1573 69.2008 41.2537 68.9757 41.4547C68.7506 41.6557 68.6301 41.929 68.5979 42.2907H70.9612C70.9612 42.0576 70.905 41.8486 70.8005 41.6798Z" fill="white"/>
<path d="M72.4162 41.5434C72.569 41.254 72.786 41.0289 73.0513 40.8681C73.3246 40.7073 73.622 40.627 73.9596 40.627C74.2973 40.627 74.5706 40.6993 74.8117 40.836C75.0529 40.9806 75.2297 41.1575 75.3503 41.3665V40.6832H75.9773V44.4292H75.3503V43.7298C75.2297 43.9469 75.0448 44.1318 74.8037 44.2765C74.5625 44.4212 74.2731 44.4935 73.9516 44.4935C73.63 44.4935 73.3165 44.4131 73.0513 44.2443C72.786 44.0835 72.569 43.8504 72.4162 43.553C72.2635 43.2556 72.1831 42.9179 72.1831 42.5401C72.1831 42.1623 72.2635 41.8247 72.4162 41.5353V41.5434ZM75.1895 41.8167C75.077 41.6077 74.9243 41.4469 74.7313 41.3343C74.5384 41.2218 74.3214 41.1655 74.0963 41.1655C73.8712 41.1655 73.6542 41.2218 73.4612 41.3263C73.2683 41.4388 73.1156 41.5916 73.003 41.8086C72.8905 42.0257 72.8342 42.2668 72.8342 42.5482C72.8342 42.8295 72.8905 43.0868 73.003 43.2958C73.1156 43.5048 73.2683 43.6655 73.4612 43.7781C73.6542 43.8906 73.8632 43.9469 74.0963 43.9469C74.3294 43.9469 74.5384 43.8906 74.7313 43.7781C74.9243 43.6655 75.077 43.5048 75.1895 43.2958C75.3021 43.0868 75.3583 42.8376 75.3583 42.5562C75.3583 42.2749 75.3021 42.0257 75.1895 41.8167Z" fill="white"/>
<path d="M82.32 40.8033C82.545 40.9239 82.7299 41.1088 82.8585 41.35C82.9872 41.5911 83.0595 41.8886 83.0595 42.2342V44.4448H82.4486V42.3307C82.4486 41.9609 82.3602 41.6715 82.1753 41.4706C81.9904 41.2696 81.7412 41.1731 81.4277 41.1731C81.1142 41.1731 80.8489 41.2776 80.656 41.4866C80.4631 41.6956 80.3666 41.9931 80.3666 42.3869V44.4529H79.7557V42.3387C79.7557 41.9689 79.6592 41.6796 79.4823 41.4786C79.2975 41.2776 79.0483 41.1812 78.7348 41.1812C78.4213 41.1812 78.156 41.2857 77.9631 41.4947C77.7701 41.7037 77.6737 42.0011 77.6737 42.395V44.4609H77.0547V40.7149H77.6737V41.2535C77.7942 41.0606 77.963 40.9078 78.1721 40.8033C78.3811 40.6988 78.6061 40.6426 78.8553 40.6426C79.1688 40.6426 79.4502 40.7149 79.6913 40.8516C79.9325 40.9963 80.1094 41.1972 80.2299 41.4706C80.3344 41.2053 80.5032 41.0043 80.7524 40.8596C80.9936 40.7149 81.2589 40.6426 81.5563 40.6426C81.8537 40.6426 82.111 40.7069 82.336 40.8275L82.32 40.8033Z" fill="white"/>
<path d="M84.6991 39.3809V44.4371H84.0801V39.3809H84.6991Z" fill="white"/>
<path d="M85.7763 39.9596C85.6959 39.8792 85.6558 39.7747 85.6558 39.6621C85.6558 39.5496 85.6959 39.4451 85.7763 39.3647C85.8567 39.2843 85.9612 39.2441 86.0738 39.2441C86.1863 39.2441 86.2828 39.2843 86.3632 39.3647C86.4435 39.4451 86.4837 39.5496 86.4837 39.6621C86.4837 39.7747 86.4435 39.8792 86.3632 39.9596C86.2828 40.04 86.1863 40.0802 86.0738 40.0802C85.9612 40.0802 85.8567 40.04 85.7763 39.9596ZM86.3792 40.6911V44.4371H85.7603V40.6911H86.3792Z" fill="white"/>
<path d="M90.3663 41.0371C90.6476 41.3105 90.7923 41.7124 90.7923 42.2269V44.4375H90.1814V42.3233C90.1814 41.9535 90.0849 41.6642 89.9 41.4632C89.7151 41.2622 89.4579 41.1658 89.1363 41.1658C88.8148 41.1658 88.5495 41.2703 88.3566 41.4712C88.1637 41.6802 88.0672 41.9777 88.0672 42.3635V44.4375H87.4482V40.6915H88.0672V41.222C88.1878 41.0291 88.3566 40.8844 88.5656 40.7799C88.7746 40.6754 89.0077 40.6191 89.265 40.6191C89.7232 40.6191 90.0929 40.7558 90.3743 41.0291L90.3663 41.0371Z" fill="white"/>
<path d="M95.2057 42.7971H92.2153C92.2395 43.1669 92.3681 43.4563 92.5932 43.6653C92.8182 43.8743 93.0996 43.9788 93.4292 43.9788C93.6945 43.9788 93.9195 43.9145 94.1044 43.7939C94.2813 43.6653 94.4099 43.5045 94.4822 43.2955H95.1494C95.053 43.6573 94.852 43.9467 94.5465 44.1717C94.2491 44.3968 93.8713 44.5094 93.4292 44.5094C93.0755 44.5094 92.7539 44.429 92.4726 44.2682C92.1912 44.1074 91.9742 43.8824 91.8134 43.5849C91.6526 43.2875 91.5723 42.9499 91.5723 42.564C91.5723 42.1782 91.6526 41.8406 91.8054 41.5431C91.9581 41.2537 92.1752 41.0287 92.4565 40.8679C92.7379 40.7071 93.0594 40.6348 93.4211 40.6348C93.7829 40.6348 94.0883 40.7152 94.3616 40.8679C94.635 41.0206 94.844 41.2377 94.9967 41.5029C95.1414 41.7762 95.2218 42.0817 95.2218 42.4193C95.2218 42.5399 95.2218 42.6605 95.1977 42.7971H95.2057ZM94.426 41.6798C94.3215 41.511 94.1768 41.3824 93.9999 41.2939C93.8231 41.2055 93.6221 41.1573 93.4051 41.1573C93.0916 41.1573 92.8263 41.2537 92.6012 41.4547C92.3761 41.6557 92.2555 41.929 92.2234 42.2907H94.5867C94.5867 42.0576 94.5305 41.8486 94.426 41.6798Z" fill="white"/>
<path d="M101.203 39.6699L99.6511 42.6362V44.4368H99.0321V42.6362L97.4727 39.6699H98.164L99.3376 42.0815L100.511 39.6699H101.203Z" fill="white"/>
<path d="M102.537 44.2602C102.255 44.0994 102.03 43.8743 101.87 43.5769C101.709 43.2795 101.628 42.9418 101.628 42.556C101.628 42.1701 101.709 41.8325 101.878 41.5431C102.046 41.2537 102.272 41.0206 102.561 40.8679C102.85 40.7152 103.172 40.6348 103.526 40.6348C103.879 40.6348 104.201 40.7152 104.49 40.8679C104.78 41.0287 105.005 41.2457 105.173 41.5431C105.342 41.8325 105.423 42.1701 105.423 42.564C105.423 42.9579 105.334 43.2955 105.165 43.5849C104.997 43.8824 104.763 44.1074 104.474 44.2682C104.185 44.429 103.863 44.5094 103.501 44.5094C103.14 44.5094 102.834 44.429 102.545 44.2682L102.537 44.2602ZM104.12 43.7939C104.313 43.6894 104.474 43.5287 104.595 43.3197C104.715 43.1107 104.78 42.8534 104.78 42.556C104.78 42.2586 104.723 42.0013 104.603 41.7923C104.482 41.5833 104.329 41.4225 104.136 41.3261C103.944 41.2216 103.735 41.1734 103.517 41.1734C103.3 41.1734 103.083 41.2216 102.89 41.3261C102.698 41.4306 102.553 41.5833 102.432 41.7923C102.312 42.0013 102.263 42.2586 102.263 42.556C102.263 42.8534 102.32 43.1187 102.432 43.3277C102.545 43.5367 102.69 43.6975 102.882 43.7939C103.067 43.8984 103.276 43.9467 103.493 43.9467C103.71 43.9467 103.927 43.8904 104.12 43.7859V43.7939Z" fill="white"/>
<path d="M109.554 40.6916V44.4376H108.935V43.883C108.815 44.0759 108.654 44.2206 108.437 44.3331C108.22 44.4457 107.995 44.4939 107.738 44.4939C107.448 44.4939 107.183 44.4296 106.95 44.309C106.717 44.1884 106.532 44.0035 106.403 43.7624C106.266 43.5212 106.202 43.2238 106.202 42.8781V40.6836H106.813V42.7977C106.813 43.1675 106.91 43.4489 107.094 43.6498C107.279 43.8508 107.537 43.9473 107.858 43.9473C108.18 43.9473 108.453 43.8428 108.646 43.6418C108.839 43.4408 108.935 43.1354 108.935 42.7495V40.6916H109.554Z" fill="white"/>
<path d="M111.701 40.8038C111.902 40.6832 112.151 40.627 112.44 40.627V41.27H112.28C111.58 41.27 111.235 41.6479 111.235 42.4035V44.4372H110.616V40.6913H111.235V41.3022C111.347 41.0852 111.5 40.9244 111.701 40.8038Z" fill="white"/>
<path d="M117.754 42.0581C117.48 42.3234 117.071 42.452 116.516 42.452H115.599V44.4376H114.98V39.6787H116.516C117.054 39.6787 117.464 39.8073 117.746 40.0646C118.027 40.3218 118.164 40.6594 118.164 41.0694C118.164 41.4794 118.027 41.7929 117.754 42.0581ZM117.28 41.7125C117.44 41.5597 117.529 41.3507 117.529 41.0694C117.529 40.4826 117.191 40.1851 116.516 40.1851H115.599V41.9376H116.516C116.862 41.9376 117.119 41.8652 117.28 41.7125Z" fill="white"/>
<path d="M122.336 42.7971H119.346C119.37 43.1669 119.498 43.4563 119.724 43.6653C119.949 43.8743 120.23 43.9788 120.56 43.9788C120.825 43.9788 121.05 43.9145 121.235 43.7939C121.412 43.6653 121.54 43.5045 121.613 43.2955H122.28C122.183 43.6573 121.982 43.9467 121.677 44.1717C121.379 44.3968 121.002 44.5094 120.56 44.5094C120.206 44.5094 119.884 44.429 119.603 44.2682C119.322 44.1074 119.105 43.8824 118.944 43.5849C118.783 43.2875 118.703 42.9499 118.703 42.564C118.703 42.1782 118.783 41.8406 118.936 41.5431C119.088 41.2537 119.306 41.0287 119.587 40.8679C119.868 40.7071 120.19 40.6348 120.552 40.6348C120.913 40.6348 121.219 40.7152 121.492 40.8679C121.765 41.0206 121.974 41.2377 122.127 41.5029C122.272 41.7762 122.352 42.0817 122.352 42.4193C122.352 42.5399 122.352 42.6605 122.328 42.7971H122.336ZM121.556 41.6798C121.452 41.511 121.307 41.3824 121.13 41.2939C120.953 41.2055 120.752 41.1573 120.535 41.1573C120.222 41.1573 119.957 41.2537 119.732 41.4547C119.506 41.6557 119.386 41.929 119.354 42.2907H121.717C121.717 42.0576 121.661 41.8486 121.556 41.6798Z" fill="white"/>
<path d="M123.855 44.2602C123.574 44.0994 123.349 43.8743 123.188 43.5769C123.027 43.2795 122.947 42.9418 122.947 42.556C122.947 42.1701 123.027 41.8325 123.196 41.5431C123.365 41.2537 123.59 41.0206 123.879 40.8679C124.169 40.7152 124.49 40.6348 124.844 40.6348C125.198 40.6348 125.519 40.7152 125.809 40.8679C126.098 41.0287 126.323 41.2457 126.492 41.5431C126.661 41.8325 126.741 42.1701 126.741 42.564C126.741 42.9579 126.653 43.2955 126.484 43.5849C126.315 43.8824 126.082 44.1074 125.792 44.2682C125.503 44.429 125.182 44.5094 124.82 44.5094C124.458 44.5094 124.153 44.429 123.863 44.2682L123.855 44.2602ZM125.431 43.7939C125.624 43.6894 125.784 43.5287 125.905 43.3197C126.026 43.1107 126.09 42.8534 126.09 42.556C126.09 42.2586 126.034 42.0013 125.913 41.7923C125.792 41.5833 125.64 41.4225 125.447 41.3261C125.254 41.2216 125.045 41.1734 124.828 41.1734C124.611 41.1734 124.394 41.2216 124.201 41.3261C124.008 41.4306 123.863 41.5833 123.743 41.7923C123.622 42.0013 123.574 42.2586 123.574 42.556C123.574 42.8534 123.63 43.1187 123.743 43.3277C123.855 43.5367 124 43.6975 124.193 43.7939C124.378 43.8984 124.587 43.9467 124.804 43.9467C125.021 43.9467 125.238 43.8904 125.431 43.7859V43.7939Z" fill="white"/>
<path d="M128.718 40.844C128.959 40.6993 129.249 40.627 129.57 40.627C129.892 40.627 130.205 40.7073 130.479 40.8681C130.752 41.0289 130.961 41.254 131.114 41.5434C131.267 41.8327 131.347 42.1704 131.347 42.5482C131.347 42.926 131.267 43.2636 131.114 43.561C130.961 43.8585 130.744 44.0835 130.479 44.2524C130.214 44.4212 129.908 44.5016 129.57 44.5016C129.233 44.5016 128.968 44.4292 128.726 44.2845C128.485 44.1398 128.3 43.963 128.172 43.7459V46.2138H127.553V40.6913H128.172V41.3826C128.292 41.1655 128.477 40.9887 128.718 40.844ZM130.535 41.8086C130.423 41.5996 130.27 41.4388 130.077 41.3263C129.884 41.2138 129.667 41.1655 129.442 41.1655C129.217 41.1655 129.008 41.2218 128.807 41.3343C128.606 41.4469 128.461 41.6077 128.341 41.8167C128.22 42.0257 128.164 42.2749 128.164 42.5482C128.164 42.8215 128.22 43.0787 128.341 43.2877C128.461 43.4967 128.614 43.6575 128.807 43.77C129 43.8826 129.209 43.9388 129.442 43.9388C129.675 43.9388 129.884 43.8826 130.077 43.77C130.27 43.6575 130.423 43.4967 130.535 43.2877C130.648 43.0787 130.704 42.8295 130.704 42.5401C130.704 42.2507 130.648 42.0096 130.535 41.8006V41.8086Z" fill="white"/>
<path d="M132.786 39.3809V44.4371H132.167V39.3809H132.786Z" fill="white"/>
<path d="M137.239 42.7971H134.249C134.273 43.1669 134.402 43.4563 134.627 43.6653C134.852 43.8743 135.133 43.9788 135.463 43.9788C135.728 43.9788 135.953 43.9145 136.138 43.7939C136.315 43.6653 136.444 43.5045 136.516 43.2955H137.183C137.087 43.6573 136.886 43.9467 136.58 44.1717C136.283 44.3968 135.905 44.5094 135.463 44.5094C135.109 44.5094 134.788 44.429 134.506 44.2682C134.225 44.1074 134.008 43.8824 133.847 43.5849C133.686 43.2875 133.606 42.9499 133.606 42.564C133.606 42.1782 133.686 41.8406 133.839 41.5431C133.992 41.2537 134.209 41.0287 134.49 40.8679C134.772 40.7071 135.093 40.6348 135.455 40.6348C135.817 40.6348 136.122 40.7152 136.395 40.8679C136.669 41.0206 136.878 41.2377 137.03 41.5029C137.175 41.7762 137.255 42.0817 137.255 42.4193C137.255 42.5399 137.255 42.6605 137.231 42.7971H137.239ZM136.46 41.6798C136.355 41.511 136.21 41.3824 136.034 41.2939C135.857 41.2055 135.656 41.1573 135.439 41.1573C135.125 41.1573 134.86 41.2537 134.635 41.4547C134.41 41.6557 134.289 41.929 134.257 42.2907H136.62C136.62 42.0576 136.564 41.8486 136.46 41.6798Z" fill="white"/>
<path d="M142.682 42.0581C142.408 42.3234 141.998 42.452 141.444 42.452H140.527V44.4376H139.908V39.6787H141.444C141.982 39.6787 142.392 39.8073 142.673 40.0646C142.955 40.3218 143.091 40.6594 143.091 41.0694C143.091 41.4794 142.955 41.7929 142.682 42.0581ZM142.207 41.7125C142.368 41.5597 142.456 41.3507 142.456 41.0694C142.456 40.4826 142.119 40.1851 141.444 40.1851H140.527V41.9376H141.444C141.789 41.9376 142.046 41.8652 142.207 41.7125Z" fill="white"/>
<path d="M144.948 40.8038C145.149 40.6832 145.399 40.627 145.688 40.627V41.27H145.527C144.828 41.27 144.482 41.6479 144.482 42.4035V44.4372H143.863V40.6913H144.482V41.3022C144.595 41.0852 144.748 40.9244 144.948 40.8038Z" fill="white"/>
<path d="M147.087 44.2602C146.805 44.0994 146.58 43.8743 146.419 43.5769C146.259 43.2795 146.178 42.9418 146.178 42.556C146.178 42.1701 146.259 41.8325 146.427 41.5431C146.596 41.2537 146.821 41.0206 147.111 40.8679C147.4 40.7152 147.722 40.6348 148.075 40.6348C148.429 40.6348 148.751 40.7152 149.04 40.8679C149.329 41.0287 149.554 41.2457 149.723 41.5431C149.892 41.8325 149.972 42.1701 149.972 42.564C149.972 42.9579 149.884 43.2955 149.715 43.5849C149.546 43.8824 149.313 44.1074 149.024 44.2682C148.734 44.429 148.413 44.5094 148.051 44.5094C147.689 44.5094 147.384 44.429 147.095 44.2682L147.087 44.2602ZM148.67 43.7939C148.863 43.6894 149.024 43.5287 149.144 43.3197C149.265 43.1107 149.329 42.8534 149.329 42.556C149.329 42.2586 149.273 42.0013 149.152 41.7923C149.032 41.5833 148.879 41.4225 148.686 41.3261C148.493 41.2216 148.284 41.1734 148.067 41.1734C147.85 41.1734 147.633 41.2216 147.44 41.3261C147.247 41.4306 147.103 41.5833 146.982 41.7923C146.862 42.0013 146.813 42.2586 146.813 42.556C146.813 42.8534 146.87 43.1187 146.982 43.3277C147.095 43.5367 147.239 43.6975 147.432 43.7939C147.617 43.8984 147.826 43.9467 148.043 43.9467C148.26 43.9467 148.477 43.8904 148.67 43.7859V43.7939Z" fill="white"/>
<path d="M150.784 41.5434C150.937 41.254 151.154 41.0289 151.428 40.8681C151.701 40.7073 152.022 40.627 152.376 40.627C152.834 40.627 153.212 40.7395 153.518 40.9646C153.815 41.1897 154.016 41.4951 154.112 41.897H153.445C153.381 41.672 153.26 41.4871 153.075 41.3585C152.891 41.2298 152.665 41.1575 152.392 41.1575C152.038 41.1575 151.749 41.2781 151.532 41.5273C151.315 41.7684 151.202 42.1141 151.202 42.5643C151.202 43.0144 151.315 43.3681 151.532 43.6093C151.749 43.8585 152.038 43.979 152.392 43.979C152.665 43.979 152.891 43.9147 153.075 43.7861C153.26 43.6575 153.381 43.4807 153.453 43.2395H154.12C154.024 43.6253 153.823 43.9308 153.518 44.1559C153.212 44.381 152.842 44.5016 152.392 44.5016C152.038 44.5016 151.725 44.4212 151.444 44.2604C151.162 44.0996 150.953 43.8745 150.8 43.5852C150.648 43.2958 150.567 42.9501 150.567 42.5562C150.567 42.1623 150.648 41.8327 150.8 41.5434H150.784Z" fill="white"/>
<path d="M158.325 42.7971H155.334C155.359 43.1669 155.487 43.4563 155.712 43.6653C155.937 43.8743 156.219 43.9788 156.548 43.9788C156.814 43.9788 157.039 43.9145 157.224 43.7939C157.4 43.6653 157.529 43.5045 157.601 43.2955H158.269C158.172 43.6573 157.971 43.9467 157.666 44.1717C157.368 44.3968 156.99 44.5094 156.548 44.5094C156.195 44.5094 155.873 44.429 155.592 44.2682C155.31 44.1074 155.093 43.8824 154.933 43.5849C154.772 43.2875 154.691 42.9499 154.691 42.564C154.691 42.1782 154.772 41.8406 154.925 41.5431C155.077 41.2537 155.294 41.0287 155.576 40.8679C155.857 40.7071 156.179 40.6348 156.54 40.6348C156.902 40.6348 157.207 40.7152 157.481 40.8679C157.754 41.0206 157.963 41.2377 158.116 41.5029C158.261 41.7762 158.341 42.0817 158.341 42.4193C158.341 42.5399 158.341 42.6605 158.317 42.7971H158.325ZM157.545 41.6798C157.441 41.511 157.296 41.3824 157.119 41.2939C156.942 41.2055 156.741 41.1573 156.524 41.1573C156.211 41.1573 155.945 41.2537 155.72 41.4547C155.495 41.6557 155.375 41.929 155.343 42.2907H157.706C157.706 42.0576 157.65 41.8486 157.545 41.6798Z" fill="white"/>
<path d="M159.723 44.349C159.498 44.2526 159.313 44.1159 159.185 43.9391C159.048 43.7622 158.976 43.5613 158.968 43.3362H159.611C159.627 43.5211 159.715 43.6738 159.876 43.7944C160.037 43.915 160.238 43.9712 160.495 43.9712C160.728 43.9712 160.921 43.915 161.058 43.8105C161.194 43.706 161.259 43.5773 161.259 43.4166C161.259 43.2558 161.186 43.1272 161.042 43.0468C160.897 42.9664 160.672 42.886 160.366 42.8137C160.085 42.7413 159.86 42.669 159.683 42.5886C159.506 42.5162 159.354 42.4037 159.233 42.251C159.104 42.1063 159.048 41.9053 159.048 41.6642C159.048 41.4712 159.104 41.2944 159.217 41.1336C159.33 40.9728 159.49 40.8442 159.699 40.7558C159.908 40.6674 160.149 40.6191 160.415 40.6191C160.833 40.6191 161.162 40.7236 161.42 40.9326C161.677 41.1416 161.813 41.431 161.83 41.7928H161.211C161.194 41.5999 161.114 41.4391 160.977 41.3185C160.833 41.1979 160.64 41.1416 160.399 41.1416C160.174 41.1416 159.997 41.1899 159.868 41.2863C159.739 41.3828 159.667 41.5034 159.667 41.6642C159.667 41.7847 159.707 41.8892 159.788 41.9696C159.868 42.05 159.965 42.1143 160.085 42.1626C160.206 42.2108 160.375 42.2671 160.584 42.3233C160.849 42.3957 161.074 42.468 161.243 42.5404C161.412 42.6127 161.556 42.7172 161.677 42.8619C161.797 43.0066 161.862 43.1915 161.862 43.4166C161.862 43.6175 161.805 43.8024 161.693 43.9712C161.58 44.14 161.42 44.2606 161.211 44.3571C161.002 44.4535 160.768 44.4937 160.495 44.4937C160.206 44.4937 159.948 44.4455 159.723 44.349Z" fill="white"/>
<path d="M163.284 44.349C163.059 44.2526 162.874 44.1159 162.746 43.9391C162.609 43.7622 162.537 43.5613 162.529 43.3362H163.172C163.188 43.5211 163.276 43.6738 163.437 43.7944C163.598 43.915 163.799 43.9712 164.056 43.9712C164.289 43.9712 164.482 43.915 164.619 43.8105C164.756 43.706 164.82 43.5773 164.82 43.4166C164.82 43.2558 164.747 43.1272 164.603 43.0468C164.458 42.9664 164.233 42.886 163.928 42.8137C163.646 42.7413 163.421 42.669 163.244 42.5886C163.067 42.5162 162.915 42.4037 162.794 42.251C162.665 42.1063 162.609 41.9053 162.609 41.6642C162.609 41.4712 162.665 41.2944 162.778 41.1336C162.891 40.9728 163.051 40.8442 163.26 40.7558C163.469 40.6674 163.71 40.6191 163.976 40.6191C164.394 40.6191 164.723 40.7236 164.981 40.9326C165.238 41.1416 165.374 41.431 165.391 41.7928H164.772C164.756 41.5999 164.675 41.4391 164.538 41.3185C164.394 41.1979 164.201 41.1416 163.96 41.1416C163.735 41.1416 163.558 41.1899 163.429 41.2863C163.301 41.3828 163.228 41.5034 163.228 41.6642C163.228 41.7847 163.268 41.8892 163.349 41.9696C163.429 42.05 163.526 42.1143 163.646 42.1626C163.767 42.2108 163.936 42.2671 164.145 42.3233C164.41 42.3957 164.635 42.468 164.804 42.5404C164.973 42.6127 165.117 42.7172 165.238 42.8619C165.358 43.0066 165.423 43.1915 165.423 43.4166C165.423 43.6175 165.366 43.8024 165.254 43.9712C165.141 44.14 164.981 44.2606 164.772 44.3571C164.563 44.4535 164.329 44.4937 164.056 44.4937C163.767 44.4937 163.51 44.4455 163.284 44.349Z" fill="white"/>
<path d="M166.854 44.349C166.629 44.2526 166.444 44.1159 166.315 43.9391C166.179 43.7622 166.106 43.5613 166.098 43.3362H166.741C166.757 43.5211 166.846 43.6738 167.007 43.7944C167.167 43.915 167.368 43.9712 167.625 43.9712C167.859 43.9712 168.052 43.915 168.188 43.8105C168.325 43.706 168.389 43.5773 168.389 43.4166C168.389 43.2558 168.317 43.1272 168.172 43.0468C168.027 42.9664 167.802 42.886 167.497 42.8137C167.216 42.7413 166.99 42.669 166.814 42.5886C166.637 42.5162 166.484 42.4037 166.363 42.251C166.235 42.1063 166.179 41.9053 166.179 41.6642C166.179 41.4712 166.235 41.2944 166.347 41.1336C166.46 40.9728 166.621 40.8442 166.83 40.7558C167.039 40.6674 167.28 40.6191 167.545 40.6191C167.963 40.6191 168.293 40.7236 168.55 40.9326C168.807 41.1416 168.944 41.431 168.96 41.7928H168.341C168.325 41.5999 168.244 41.4391 168.108 41.3185C167.963 41.1979 167.77 41.1416 167.529 41.1416C167.304 41.1416 167.127 41.1899 166.998 41.2863C166.87 41.3828 166.798 41.5034 166.798 41.6642C166.798 41.7847 166.838 41.8892 166.918 41.9696C166.998 42.05 167.095 42.1143 167.216 42.1626C167.336 42.2108 167.505 42.2671 167.714 42.3233C167.979 42.3957 168.204 42.468 168.373 42.5404C168.542 42.6127 168.687 42.7172 168.807 42.8619C168.928 43.0066 168.992 43.1915 168.992 43.4166C168.992 43.6175 168.936 43.8024 168.823 43.9712C168.711 44.14 168.55 44.2606 168.341 44.3571C168.132 44.4535 167.899 44.4937 167.625 44.4937C167.336 44.4937 167.079 44.4455 166.854 44.349Z" fill="white"/>
<path d="M173.26 42.7971H170.27C170.294 43.1669 170.422 43.4563 170.647 43.6653C170.872 43.8743 171.154 43.9788 171.483 43.9788C171.749 43.9788 171.974 43.9145 172.159 43.7939C172.335 43.6653 172.464 43.5045 172.536 43.2955H173.204C173.107 43.6573 172.906 43.9467 172.601 44.1717C172.303 44.3968 171.926 44.5094 171.483 44.5094C171.13 44.5094 170.808 44.429 170.527 44.2682C170.245 44.1074 170.028 43.8824 169.868 43.5849C169.707 43.2875 169.626 42.9499 169.626 42.564C169.626 42.1782 169.707 41.8406 169.86 41.5431C170.012 41.2537 170.229 41.0287 170.511 40.8679C170.792 40.7071 171.114 40.6348 171.475 40.6348C171.837 40.6348 172.143 40.7152 172.416 40.8679C172.689 41.0206 172.898 41.2377 173.051 41.5029C173.196 41.7762 173.276 42.0817 173.276 42.4193C173.276 42.5399 173.276 42.6605 173.252 42.7971H173.26ZM172.48 41.6798C172.376 41.511 172.231 41.3824 172.054 41.2939C171.877 41.2055 171.676 41.1573 171.459 41.1573C171.146 41.1573 170.88 41.2537 170.655 41.4547C170.43 41.6557 170.31 41.929 170.278 42.2907H172.641C172.641 42.0576 172.585 41.8486 172.48 41.6798Z" fill="white"/>
<path d="M174.659 44.349C174.434 44.2526 174.249 44.1159 174.12 43.9391C173.984 43.7622 173.911 43.5613 173.903 43.3362H174.546C174.562 43.5211 174.651 43.6738 174.812 43.7944C174.972 43.915 175.173 43.9712 175.431 43.9712C175.664 43.9712 175.857 43.915 175.993 43.8105C176.13 43.706 176.194 43.5773 176.194 43.4166C176.194 43.2558 176.122 43.1272 175.977 43.0468C175.833 42.9664 175.608 42.886 175.302 42.8137C175.021 42.7413 174.796 42.669 174.619 42.5886C174.442 42.5162 174.289 42.4037 174.169 42.251C174.04 42.1063 173.984 41.9053 173.984 41.6642C173.984 41.4712 174.04 41.2944 174.153 41.1336C174.265 40.9728 174.426 40.8442 174.635 40.7558C174.844 40.6674 175.085 40.6191 175.35 40.6191C175.768 40.6191 176.098 40.7236 176.355 40.9326C176.612 41.1416 176.749 41.431 176.765 41.7928H176.146C176.13 41.5999 176.05 41.4391 175.913 41.3185C175.768 41.1979 175.575 41.1416 175.334 41.1416C175.109 41.1416 174.932 41.1899 174.804 41.2863C174.675 41.3828 174.603 41.5034 174.603 41.6642C174.603 41.7847 174.643 41.8892 174.723 41.9696C174.804 42.05 174.9 42.1143 175.021 42.1626C175.141 42.2108 175.31 42.2671 175.519 42.3233C175.784 42.3957 176.009 42.468 176.178 42.5404C176.347 42.6127 176.492 42.7172 176.612 42.8619C176.733 43.0066 176.797 43.1915 176.797 43.4166C176.797 43.6175 176.741 43.8024 176.628 43.9712C176.516 44.14 176.355 44.2606 176.146 44.3571C175.937 44.4535 175.704 44.4937 175.431 44.4937C175.141 44.4937 174.884 44.4455 174.659 44.349Z" fill="white"/>
<path d="M164.75 24.4043V21.4487H169.295C170.225 21.4487 170.94 21.2163 171.442 20.7516C171.963 20.2683 172.223 19.6084 172.223 18.7719C172.223 18.0097 171.963 17.3777 171.442 16.8758C170.94 16.3553 170.225 16.0951 169.295 16.0951H164.75V13H169.63C170.894 13 172 13.251 172.948 13.7529C173.915 14.2362 174.658 14.9054 175.179 15.7605C175.718 16.6156 175.987 17.6008 175.987 18.7161C175.987 19.8686 175.718 20.8724 175.179 21.7275C174.658 22.564 173.915 23.2239 172.948 23.7072C171.981 24.172 170.857 24.4043 169.574 24.4043H164.75ZM161.962 32.6021V13H165.754V32.6021H161.962ZM172.669 32.6021L166.2 24.1255L169.686 23.038L177.27 32.6021H172.669Z" fill="white"/>
<path d="M141.867 32.6021V13H145.659V32.6021H141.867ZM154.163 32.6021V13H157.955V32.6021H154.163ZM144.265 24.1534V20.8074H155.223V24.1534H144.265Z" fill="white"/>
<path d="M128.481 32.6021L120.757 13H124.856L130.823 28.8657H129.233L135.256 13H139.299L131.492 32.6021H128.481Z" fill="white"/>
<path d="M103.384 32.6021L111.275 13H114.37L122.233 32.6021H118.19L112.111 16.5133H113.505L107.343 32.6021H103.384ZM107.566 28.9493V25.7706H118.106V28.9493H107.566Z" fill="white"/>
<path d="M88.0601 32.6021V13H91.8522V32.6021H88.0601ZM90.8484 32.6021V29.2561H101.695V32.6021H90.8484ZM90.8484 24.2091V20.9747H100.719V24.2091H90.8484ZM90.8484 16.346V13H101.556V16.346H90.8484Z" fill="white"/>
<path d="M65.3574 32.6021L59 13H62.7364L67.4487 28.0849H66.1939L70.8226 13H73.6388L78.2675 28.0849H76.9848L81.725 13H85.4614L79.0761 32.6021H76.2599L71.6033 17.545H72.8302L68.2015 32.6021H65.3574Z" fill="white"/>
<defs>
<filter id="filter0_ddiii_886_17491" x="0.0614347" y="-1.93857" width="53.8771" height="55.8157" filterUnits="userSpaceOnUse" color-interpolation-filters="sRGB">
<feFlood flood-opacity="0" result="BackgroundImageFix"/>
<feColorMatrix in="SourceAlpha" type="matrix" values="0 0 0 0 0 0 0 0 0 0 0 0 0 0 0 0 0 0 127 0" result="hardAlpha"/>
<feOffset dy="0.646188"/>
<feGaussianBlur stdDeviation="0.323094"/>
<feComposite in2="hardAlpha" operator="out"/>
<feColorMatrix type="matrix" values="0 0 0 0 0.162923 0 0 0 0 0.162923 0 0 0 0 0.162923 0 0 0 0.08 0"/>
<feBlend mode="normal" in2="BackgroundImageFix" result="effect1_dropShadow_886_17491"/>
<feColorMatrix in="SourceAlpha" type="matrix" values="0 0 0 0 0 0 0 0 0 0 0 0 0 0 0 0 0 0 127 0" result="hardAlpha"/>
<feMorphology radius="0.646188" operator="erode" in="SourceAlpha" result="effect2_dropShadow_886_17491"/>
<feOffset dy="1.93857"/>
<feGaussianBlur stdDeviation="1.29238"/>
<feComposite in2="hardAlpha" operator="out"/>
<feColorMatrix type="matrix" values="0 0 0 0 0.164706 0 0 0 0 0.164706 0 0 0 0 0.164706 0 0 0 0.14 0"/>
<feBlend mode="normal" in2="effect1_dropShadow_886_17491" result="effect2_dropShadow_886_17491"/>
<feBlend mode="normal" in="SourceGraphic" in2="effect2_dropShadow_886_17491" result="shape"/>
<feColorMatrix in="SourceAlpha" type="matrix" values="0 0 0 0 0 0 0 0 0 0 0 0 0 0 0 0 0 0 127 0" result="hardAlpha"/>
<feOffset dy="-1.93857"/>
<feGaussianBlur stdDeviation="0.969283"/>
<feComposite in2="hardAlpha" operator="arithmetic" k2="-1" k3="1"/>
<feColorMatrix type="matrix" values="0 0 0 0 0 0 0 0 0 0 0 0 0 0 0 0 0 0 0.1 0"/>
<feBlend mode="normal" in2="shape" result="effect3_innerShadow_886_17491"/>
<feColorMatrix in="SourceAlpha" type="matrix" values="0 0 0 0 0 0 0 0 0 0 0 0 0 0 0 0 0 0 127 0" result="hardAlpha"/>
<feOffset dy="1.93857"/>
<feGaussianBlur stdDeviation="0.969283"/>
<feComposite in2="hardAlpha" operator="arithmetic" k2="-1" k3="1"/>
<feColorMatrix type="matrix" values="0 0 0 0 1 0 0 0 0 1 0 0 0 0 1 0 0 0 0.1 0"/>
<feBlend mode="normal" in2="effect3_innerShadow_886_17491" result="effect4_innerShadow_886_17491"/>
<feColorMatrix in="SourceAlpha" type="matrix" values="0 0 0 0 0 0 0 0 0 0 0 0 0 0 0 0 0 0 127 0" result="hardAlpha"/>
<feMorphology radius="0.646188" operator="erode" in="SourceAlpha" result="effect5_innerShadow_886_17491"/>
<feOffset/>
<feComposite in2="hardAlpha" operator="arithmetic" k2="-1" k3="1"/>
<feColorMatrix type="matrix" values="0 0 0 0 0.0627451 0 0 0 0 0.0941176 0 0 0 0 0.156863 0 0 0 0.24 0"/>
<feBlend mode="normal" in2="effect4_innerShadow_886_17491" result="effect5_innerShadow_886_17491"/>
</filter>
<linearGradient id="paint0_linear_886_17491" x1="27" y1="0" x2="27" y2="50" gradientUnits="userSpaceOnUse">
<stop stop-color="white" stop-opacity="0.12"/>
<stop offset="1" stop-color="white" stop-opacity="0"/>
</linearGradient>
</defs>
</svg>
