<svg width="178" height="54" viewBox="0 0 178 54" fill="none" xmlns="http://www.w3.org/2000/svg">
<g filter="url(#filter0_ddiii_890_24314)">
<mask id="path-1-inside-1_890_24314" fill="white">
<path fill-rule="evenodd" clip-rule="evenodd" d="M49.3541 36.905C45.1225 44.7044 36.8623 50 27.3652 50C13.5581 50 2.36523 38.8071 2.36523 25C2.36523 21.9064 2.92716 18.944 3.9545 16.2093L11.4891 36.9049H16.6981L19.3026 29.7505L21.9071 36.9049H27.108L24.5116 29.7505L21.481 21.4226L18.4505 13.1026H13.2415L16.6981 22.5962L14.0936 29.7505L8.03247 13.1026H5.37222C9.60258 5.29904 17.8651 0 27.3652 0C36.8785 0 45.1506 5.31365 49.3757 13.1349H47.0118V22.5722H37.2208V13.1349H35.7658L35.7738 13.1027H30.5729L26.9234 23.1108L29.5279 30.2651L32.3253 22.5802V27.4677H37.2208H47.0118V36.905H49.3541ZM51.9073 29.7877C52.2078 28.2381 52.3652 26.6374 52.3652 25C52.3652 23.3626 52.2078 21.7619 51.9073 20.2123V29.7877ZM32.3255 32.0095H37.221V36.905H32.3255V32.0095Z"/>
</mask>
<path fill-rule="evenodd" clip-rule="evenodd" d="M49.3541 36.905C45.1225 44.7044 36.8623 50 27.3652 50C13.5581 50 2.36523 38.8071 2.36523 25C2.36523 21.9064 2.92716 18.944 3.9545 16.2093L11.4891 36.9049H16.6981L19.3026 29.7505L21.9071 36.9049H27.108L24.5116 29.7505L21.481 21.4226L18.4505 13.1026H13.2415L16.6981 22.5962L14.0936 29.7505L8.03247 13.1026H5.37222C9.60258 5.29904 17.8651 0 27.3652 0C36.8785 0 45.1506 5.31365 49.3757 13.1349H47.0118V22.5722H37.2208V13.1349H35.7658L35.7738 13.1027H30.5729L26.9234 23.1108L29.5279 30.2651L32.3253 22.5802V27.4677H37.2208H47.0118V36.905H49.3541ZM51.9073 29.7877C52.2078 28.2381 52.3652 26.6374 52.3652 25C52.3652 23.3626 52.2078 21.7619 51.9073 20.2123V29.7877ZM32.3255 32.0095H37.221V36.905H32.3255V32.0095Z" fill="#993AE2"/>
<path d="M49.3541 36.905L50.4901 37.5213L51.5256 35.6126H49.3541V36.905ZM3.9545 16.2093L5.1689 15.7672L3.97352 12.4838L2.74468 15.7548L3.9545 16.2093ZM11.4891 36.9049L10.2747 37.347L10.5842 38.1973H11.4891V36.9049ZM16.6981 36.9049V38.1973H17.6029L17.9125 37.347L16.6981 36.9049ZM19.3026 29.7505L20.517 29.3085L19.3026 25.9726L18.0882 29.3085L19.3026 29.7505ZM21.9071 36.9049L20.6927 37.347L21.0022 38.1973H21.9071V36.9049ZM27.108 36.9049V38.1973H28.9519L28.3229 36.464L27.108 36.9049ZM24.5116 29.7505L25.7264 29.3097L25.726 29.3086L24.5116 29.7505ZM21.481 21.4226L22.6955 20.9806L22.6954 20.9803L21.481 21.4226ZM18.4505 13.1026L19.6648 12.6603L19.3552 11.8103H18.4505V13.1026ZM13.2415 13.1026V11.8103H11.3955L12.0271 13.5448L13.2415 13.1026ZM16.6981 22.5962L17.9125 23.0383L18.0734 22.5962L17.9125 22.1541L16.6981 22.5962ZM14.0936 29.7505L12.8792 30.1927L14.0936 33.5284L15.308 30.1926L14.0936 29.7505ZM8.03247 13.1026L9.24687 12.6605L8.93731 11.8103H8.03247V13.1026ZM5.37222 13.1026L4.23605 12.4867L3.20156 14.395H5.37222V13.1026ZM49.3757 13.1349V14.4273H51.5427L50.5128 12.5206L49.3757 13.1349ZM47.0118 13.1349V11.8425H45.7194V13.1349H47.0118ZM47.0118 22.5722V23.8646H48.3042V22.5722H47.0118ZM37.2208 22.5722H35.9284V23.8646H37.2208V22.5722ZM37.2208 13.1349H38.5132V11.8425H37.2208V13.1349ZM35.7658 13.1349L34.512 12.8215L34.1106 14.4273H35.7658V13.1349ZM35.7738 13.1027L37.0276 13.4161L37.429 11.8104H35.7738V13.1027ZM30.5729 13.1027V11.8104H29.6685L29.3587 12.66L30.5729 13.1027ZM26.9234 23.1108L25.7092 22.668L25.5479 23.1104L25.7089 23.5529L26.9234 23.1108ZM29.5279 30.2651L28.3135 30.7072L29.5279 34.0432L30.7423 30.7072L29.5279 30.2651ZM32.3253 22.5802H33.6177L31.1109 22.1382L32.3253 22.5802ZM32.3253 27.4677H31.0329V28.7601H32.3253V27.4677ZM47.0118 27.4677H48.3042V26.1753H47.0118V27.4677ZM47.0118 36.905H45.7194V38.1974H47.0118V36.905ZM51.9073 29.7877H50.6149L53.176 30.0337L51.9073 29.7877ZM51.9073 20.2123L53.176 19.9662L50.6149 20.2123H51.9073ZM37.221 32.0095H38.5133V30.7171H37.221V32.0095ZM32.3255 32.0095V30.7171H31.0331V32.0095H32.3255ZM37.221 36.905V38.1974H38.5133V36.905H37.221ZM32.3255 36.905H31.0331V38.1974H32.3255V36.905ZM27.3652 51.2924C37.355 51.2924 46.0415 45.7206 50.4901 37.5213L48.2182 36.2887C44.2035 43.6882 36.3696 48.7076 27.3652 48.7076V51.2924ZM1.07286 25C1.07286 39.5209 12.8444 51.2924 27.3652 51.2924V48.7076C14.2719 48.7076 3.65761 38.0934 3.65761 25H1.07286ZM2.74468 15.7548C1.66358 18.6326 1.07286 21.7488 1.07286 25H3.65761C3.65761 22.0639 4.19074 19.2554 5.16432 16.6638L2.74468 15.7548ZM2.7401 16.6514L10.2747 37.347L12.7035 36.4628L5.1689 15.7672L2.7401 16.6514ZM11.4891 38.1973H16.6981V35.6125H11.4891V38.1973ZM17.9125 37.347L20.517 30.1926L18.0882 29.3085L15.4837 36.4628L17.9125 37.347ZM18.0882 30.1926L20.6927 37.347L23.1215 36.4628L20.517 29.3085L18.0882 30.1926ZM21.9071 38.1973H27.108V35.6125H21.9071V38.1973ZM28.3229 36.464L25.7264 29.3097L23.2967 30.1914L25.8932 37.3458L28.3229 36.464ZM25.726 29.3086L22.6955 20.9806L20.2666 21.8645L23.2971 30.1925L25.726 29.3086ZM22.6954 20.9803L19.6648 12.6603L17.2361 13.545L20.2667 21.8649L22.6954 20.9803ZM18.4505 11.8103H13.2415V14.395H18.4505V11.8103ZM12.0271 13.5448L15.4837 23.0384L17.9125 22.1541L14.4559 12.6605L12.0271 13.5448ZM15.4837 22.1541L12.8792 29.3085L15.308 30.1926L17.9125 23.0383L15.4837 22.1541ZM15.308 29.3084L9.24687 12.6605L6.81808 13.5448L12.8792 30.1927L15.308 29.3084ZM8.03247 11.8103H5.37222V14.395H8.03247V11.8103ZM27.3652 -1.29238C17.3722 -1.29238 8.6833 4.28302 4.23605 12.4867L6.50839 13.7186C10.5219 6.31506 18.3579 1.29238 27.3652 1.29238V-1.29238ZM50.5128 12.5206C46.0711 4.29838 37.372 -1.29238 27.3652 -1.29238V1.29238C36.3849 1.29238 44.2302 6.32891 48.2386 13.7491L50.5128 12.5206ZM47.0118 14.4273H49.3757V11.8425H47.0118V14.4273ZM48.3042 22.5722V13.1349H45.7194V22.5722H48.3042ZM37.2208 23.8646H47.0118V21.2798H37.2208V23.8646ZM35.9284 13.1349V22.5722H38.5132V13.1349H35.9284ZM35.7658 14.4273H37.2208V11.8425H35.7658V14.4273ZM34.52 12.7893L34.512 12.8215L37.0196 13.4483L37.0276 13.4161L34.52 12.7893ZM30.5729 14.3951H35.7738V11.8104H30.5729V14.3951ZM28.1375 23.5535L31.787 13.5455L29.3587 12.66L25.7092 22.668L28.1375 23.5535ZM30.7423 29.823L28.1378 22.6687L25.7089 23.5529L28.3135 30.7072L30.7423 29.823ZM31.1109 22.1382L28.3134 29.8231L30.7423 30.7072L33.5397 23.0223L31.1109 22.1382ZM33.6177 27.4677V22.5802H31.0329V27.4677H33.6177ZM37.2208 26.1753H32.3253V28.7601H37.2208V26.1753ZM47.0118 26.1753H37.2208V28.7601H47.0118V26.1753ZM48.3042 36.905V27.4677H45.7194V36.905H48.3042ZM49.3541 35.6126H47.0118V38.1974H49.3541V35.6126ZM53.176 30.0337C53.4922 28.4035 53.6576 26.7204 53.6576 25H51.0729C51.0729 26.5544 50.9234 28.0727 50.6385 29.5416L53.176 30.0337ZM53.6576 25C53.6576 23.2796 53.4922 21.5965 53.176 19.9662L50.6385 20.4584C50.9234 21.9273 51.0729 23.4456 51.0729 25H53.6576ZM50.6149 20.2123V29.7877H53.1997V20.2123H50.6149ZM37.221 30.7171H32.3255V33.3019H37.221V30.7171ZM38.5133 36.905V32.0095H35.9286V36.905H38.5133ZM32.3255 38.1974H37.221V35.6126H32.3255V38.1974ZM31.0331 32.0095V36.905H33.6178V32.0095H31.0331Z" fill="#993AE2" mask="url(#path-1-inside-1_890_24314)"/>
</g>
<path d="M60.1691 44.3168C59.9199 44.2043 59.727 44.0516 59.5823 43.8506C59.4376 43.6496 59.3652 43.4245 59.3652 43.1673H60.0244C60.0485 43.3924 60.1369 43.5773 60.2977 43.73C60.4585 43.8827 60.6916 43.9631 61.0051 43.9631C61.3186 43.9631 61.5357 43.8908 61.7045 43.7381C61.8733 43.5934 61.9617 43.4004 61.9617 43.1673C61.9617 42.9824 61.9135 42.8377 61.809 42.7252C61.7125 42.6127 61.5839 42.5242 61.4312 42.468C61.2784 42.4117 61.0775 42.3474 60.8202 42.275C60.5067 42.1946 60.2575 42.1143 60.0646 42.0258C59.8717 41.9454 59.7109 41.8168 59.5823 41.64C59.4456 41.4631 59.3813 41.23 59.3813 40.9326C59.3813 40.6754 59.4456 40.4422 59.5823 40.2413C59.7189 40.0403 59.9038 39.8876 60.1369 39.775C60.3781 39.6625 60.6514 39.6143 60.9569 39.6143C61.399 39.6143 61.7688 39.7268 62.0501 39.9519C62.3315 40.177 62.4922 40.4744 62.5324 40.8442H61.8492C61.825 40.6593 61.7286 40.4985 61.5598 40.3618C61.391 40.2252 61.1659 40.1528 60.8926 40.1528C60.6353 40.1528 60.4183 40.2172 60.2575 40.3538C60.0967 40.4905 60.0083 40.6754 60.0083 40.9165C60.0083 41.0853 60.0566 41.23 60.153 41.3426C60.2495 41.4551 60.3701 41.5355 60.5148 41.5918C60.6594 41.648 60.8604 41.7123 61.1176 41.7847C61.4312 41.8731 61.6884 41.9535 61.8733 42.0419C62.0662 42.1223 62.227 42.259 62.3636 42.4278C62.5003 42.6046 62.5646 42.8377 62.5646 43.1432C62.5646 43.3763 62.5003 43.5934 62.3797 43.8024C62.2591 44.0114 62.0742 44.1721 61.8331 44.3008C61.5919 44.4294 61.3106 44.4937 60.981 44.4937C60.6514 44.4937 60.3861 44.4374 60.1369 44.3249L60.1691 44.3168Z" fill="#0F172A"/>
<path d="M64.2685 41.2052V43.4158C64.2685 43.6007 64.3087 43.7293 64.381 43.8017C64.4614 43.874 64.59 43.9142 64.783 43.9142H65.2412V44.4367H64.6785C64.3328 44.4367 64.0756 44.3563 63.8987 44.1956C63.7219 44.0348 63.6415 43.7776 63.6415 43.4078V41.1972H63.1592V40.6827H63.6415V39.7422H64.2605V40.6827H65.2412V41.1972H64.2605L64.2685 41.2052Z" fill="#0F172A"/>
<path d="M67.0901 40.8038C67.2911 40.6832 67.5402 40.627 67.8296 40.627V41.27H67.6689C66.9695 41.27 66.6239 41.6479 66.6239 42.4035V44.4372H66.0049V40.6913H66.6239V41.3022C66.7364 41.0852 66.8891 40.9244 67.0901 40.8038Z" fill="#0F172A"/>
<path d="M71.9455 42.7971H68.9551C68.9792 43.1669 69.1078 43.4563 69.3329 43.6653C69.558 43.8743 69.8393 43.9788 70.1689 43.9788C70.4342 43.9788 70.6593 43.9145 70.8442 43.7939C71.021 43.6653 71.1496 43.5045 71.222 43.2955H71.8892C71.7927 43.6573 71.5918 43.9467 71.2863 44.1717C70.9889 44.3968 70.6111 44.5094 70.1689 44.5094C69.8152 44.5094 69.4937 44.429 69.2123 44.2682C68.931 44.1074 68.7139 43.8824 68.5532 43.5849C68.3924 43.2875 68.312 42.9499 68.312 42.564C68.312 42.1782 68.3924 41.8406 68.5451 41.5431C68.6979 41.2537 68.9149 41.0287 69.1963 40.8679C69.4776 40.7071 69.7992 40.6348 70.1609 40.6348C70.5226 40.6348 70.8281 40.7152 71.1014 40.8679C71.3747 41.0206 71.5837 41.2377 71.7365 41.5029C71.8811 41.7762 71.9615 42.0817 71.9615 42.4193C71.9615 42.5399 71.9615 42.6605 71.9374 42.7971H71.9455ZM71.1657 41.6798C71.0612 41.511 70.9165 41.3824 70.7397 41.2939C70.5628 41.2055 70.3619 41.1573 70.1448 41.1573C69.8313 41.1573 69.566 41.2537 69.341 41.4547C69.1159 41.6557 68.9953 41.929 68.9631 42.2907H71.3265C71.3265 42.0576 71.2702 41.8486 71.1657 41.6798Z" fill="#0F172A"/>
<path d="M72.7815 41.5434C72.9342 41.254 73.1512 41.0289 73.4165 40.8681C73.6898 40.7073 73.9872 40.627 74.3249 40.627C74.6625 40.627 74.9358 40.6993 75.177 40.836C75.4181 40.9806 75.595 41.1575 75.7155 41.3665V40.6832H76.3426V44.4292H75.7155V43.7298C75.595 43.9469 75.4101 44.1318 75.1689 44.2765C74.9278 44.4212 74.6384 44.4935 74.3168 44.4935C73.9953 44.4935 73.6818 44.4131 73.4165 44.2443C73.1512 44.0835 72.9342 43.8504 72.7815 43.553C72.6287 43.2556 72.5483 42.9179 72.5483 42.5401C72.5483 42.1623 72.6287 41.8247 72.7815 41.5353V41.5434ZM75.5548 41.8167C75.4422 41.6077 75.2895 41.4469 75.0966 41.3343C74.9036 41.2218 74.6866 41.1655 74.4615 41.1655C74.2364 41.1655 74.0194 41.2218 73.8265 41.3263C73.6335 41.4388 73.4808 41.5916 73.3683 41.8086C73.2557 42.0257 73.1995 42.2668 73.1995 42.5482C73.1995 42.8295 73.2557 43.0868 73.3683 43.2958C73.4808 43.5048 73.6335 43.6655 73.8265 43.7781C74.0194 43.8906 74.2284 43.9469 74.4615 43.9469C74.6946 43.9469 74.9036 43.8906 75.0966 43.7781C75.2895 43.6655 75.4422 43.5048 75.5548 43.2958C75.6673 43.0868 75.7236 42.8376 75.7236 42.5562C75.7236 42.2749 75.6673 42.0257 75.5548 41.8167Z" fill="#0F172A"/>
<path d="M82.6852 40.8033C82.9103 40.9239 83.0952 41.1088 83.2238 41.35C83.3524 41.5911 83.4247 41.8886 83.4247 42.2342V44.4448H82.8138V42.3307C82.8138 41.9609 82.7254 41.6715 82.5405 41.4706C82.3556 41.2696 82.1064 41.1731 81.7929 41.1731C81.4794 41.1731 81.2141 41.2776 81.0212 41.4866C80.8283 41.6956 80.7318 41.9931 80.7318 42.3869V44.4529H80.1209V42.3387C80.1209 41.9689 80.0244 41.6796 79.8476 41.4786C79.6627 41.2776 79.4135 41.1812 79.1 41.1812C78.7865 41.1812 78.5212 41.2857 78.3283 41.4947C78.1354 41.7037 78.0389 42.0011 78.0389 42.395V44.4609H77.4199V40.7149H78.0389V41.2535C78.1595 41.0606 78.3283 40.9078 78.5373 40.8033C78.7463 40.6988 78.9714 40.6426 79.2206 40.6426C79.5341 40.6426 79.8154 40.7149 80.0566 40.8516C80.2977 40.9963 80.4746 41.1972 80.5952 41.4706C80.6997 41.2053 80.8685 41.0043 81.1177 40.8596C81.3588 40.7149 81.6241 40.6426 81.9215 40.6426C82.219 40.6426 82.4762 40.7069 82.7013 40.8275L82.6852 40.8033Z" fill="#0F172A"/>
<path d="M85.0643 39.3809V44.4371H84.4453V39.3809H85.0643Z" fill="#0F172A"/>
<path d="M86.1416 39.9596C86.0612 39.8792 86.021 39.7747 86.021 39.6621C86.021 39.5496 86.0612 39.4451 86.1416 39.3647C86.222 39.2843 86.3265 39.2441 86.439 39.2441C86.5515 39.2441 86.648 39.2843 86.7284 39.3647C86.8088 39.4451 86.849 39.5496 86.849 39.6621C86.849 39.7747 86.8088 39.8792 86.7284 39.9596C86.648 40.04 86.5515 40.0802 86.439 40.0802C86.3265 40.0802 86.222 40.04 86.1416 39.9596ZM86.7445 40.6911V44.4371H86.1255V40.6911H86.7445Z" fill="#0F172A"/>
<path d="M90.7315 41.0371C91.0128 41.3105 91.1575 41.7124 91.1575 42.2269V44.4375H90.5466V42.3233C90.5466 41.9535 90.4501 41.6642 90.2652 41.4632C90.0804 41.2622 89.8231 41.1658 89.5016 41.1658C89.18 41.1658 88.9148 41.2703 88.7218 41.4712C88.5289 41.6802 88.4325 41.9777 88.4325 42.3635V44.4375H87.8135V40.6915H88.4325V41.222C88.553 41.0291 88.7218 40.8844 88.9308 40.7799C89.1398 40.6754 89.373 40.6191 89.6302 40.6191C90.0884 40.6191 90.4582 40.7558 90.7395 41.0291L90.7315 41.0371Z" fill="#0F172A"/>
<path d="M95.5709 42.7971H92.5806C92.6047 43.1669 92.7333 43.4563 92.9584 43.6653C93.1835 43.8743 93.4648 43.9788 93.7944 43.9788C94.0597 43.9788 94.2848 43.9145 94.4696 43.7939C94.6465 43.6653 94.7751 43.5045 94.8475 43.2955H95.5147C95.4182 43.6573 95.2172 43.9467 94.9118 44.1717C94.6143 44.3968 94.2365 44.5094 93.7944 44.5094C93.4407 44.5094 93.1192 44.429 92.8378 44.2682C92.5565 44.1074 92.3394 43.8824 92.1787 43.5849C92.0179 43.2875 91.9375 42.9499 91.9375 42.564C91.9375 42.1782 92.0179 41.8406 92.1706 41.5431C92.3233 41.2537 92.5404 41.0287 92.8217 40.8679C93.1031 40.7071 93.4246 40.6348 93.7864 40.6348C94.1481 40.6348 94.4536 40.7152 94.7269 40.8679C95.0002 41.0206 95.2092 41.2377 95.3619 41.5029C95.5066 41.7762 95.587 42.0817 95.587 42.4193C95.587 42.5399 95.587 42.6605 95.5629 42.7971H95.5709ZM94.7912 41.6798C94.6867 41.511 94.542 41.3824 94.3651 41.2939C94.1883 41.2055 93.9873 41.1573 93.7703 41.1573C93.4568 41.1573 93.1915 41.2537 92.9664 41.4547C92.7414 41.6557 92.6208 41.929 92.5886 42.2907H94.952C94.952 42.0576 94.8957 41.8486 94.7912 41.6798Z" fill="#0F172A"/>
<path d="M101.568 39.6699L100.016 42.6362V44.4368H99.3974V42.6362L97.8379 39.6699H98.5292L99.7028 42.0815L100.876 39.6699H101.568Z" fill="#0F172A"/>
<path d="M102.902 44.2602C102.621 44.0994 102.396 43.8743 102.235 43.5769C102.074 43.2795 101.994 42.9418 101.994 42.556C101.994 42.1701 102.074 41.8325 102.243 41.5431C102.412 41.2537 102.637 41.0206 102.926 40.8679C103.216 40.7152 103.537 40.6348 103.891 40.6348C104.244 40.6348 104.566 40.7152 104.855 40.8679C105.145 41.0287 105.37 41.2457 105.539 41.5431C105.707 41.8325 105.788 42.1701 105.788 42.564C105.788 42.9579 105.699 43.2955 105.531 43.5849C105.362 43.8824 105.129 44.1074 104.839 44.2682C104.55 44.429 104.228 44.5094 103.867 44.5094C103.505 44.5094 103.199 44.429 102.91 44.2682L102.902 44.2602ZM104.486 43.7939C104.679 43.6894 104.839 43.5287 104.96 43.3197C105.08 43.1107 105.145 42.8534 105.145 42.556C105.145 42.2586 105.089 42.0013 104.968 41.7923C104.847 41.5833 104.695 41.4225 104.502 41.3261C104.309 41.2216 104.1 41.1734 103.883 41.1734C103.666 41.1734 103.449 41.2216 103.256 41.3261C103.063 41.4306 102.918 41.5833 102.798 41.7923C102.677 42.0013 102.629 42.2586 102.629 42.556C102.629 42.8534 102.685 43.1187 102.798 43.3277C102.91 43.5367 103.055 43.6975 103.248 43.7939C103.433 43.8984 103.642 43.9467 103.859 43.9467C104.076 43.9467 104.293 43.8904 104.486 43.7859V43.7939Z" fill="#0F172A"/>
<path d="M109.919 40.6916V44.4376H109.3V43.883C109.18 44.0759 109.019 44.2206 108.802 44.3331C108.585 44.4457 108.36 44.4939 108.103 44.4939C107.813 44.4939 107.548 44.4296 107.315 44.309C107.082 44.1884 106.897 44.0035 106.768 43.7624C106.632 43.5212 106.567 43.2238 106.567 42.8781V40.6836H107.178V42.7977C107.178 43.1675 107.275 43.4489 107.46 43.6498C107.645 43.8508 107.902 43.9473 108.223 43.9473C108.545 43.9473 108.818 43.8428 109.011 43.6418C109.204 43.4408 109.3 43.1354 109.3 42.7495V40.6916H109.919Z" fill="#0F172A"/>
<path d="M112.066 40.8038C112.267 40.6832 112.516 40.627 112.806 40.627V41.27H112.645C111.946 41.27 111.6 41.6479 111.6 42.4035V44.4372H110.981V40.6913H111.6V41.3022C111.712 41.0852 111.865 40.9244 112.066 40.8038Z" fill="#0F172A"/>
<path d="M118.119 42.0581C117.846 42.3234 117.436 42.452 116.881 42.452H115.965V44.4376H115.346V39.6787H116.881C117.42 39.6787 117.83 39.8073 118.111 40.0646C118.392 40.3218 118.529 40.6594 118.529 41.0694C118.529 41.4794 118.392 41.7929 118.119 42.0581ZM117.645 41.7125C117.806 41.5597 117.894 41.3507 117.894 41.0694C117.894 40.4826 117.556 40.1851 116.881 40.1851H115.965V41.9376H116.881C117.227 41.9376 117.484 41.8652 117.645 41.7125Z" fill="#0F172A"/>
<path d="M122.701 42.7971H119.711C119.735 43.1669 119.864 43.4563 120.089 43.6653C120.314 43.8743 120.595 43.9788 120.925 43.9788C121.19 43.9788 121.415 43.9145 121.6 43.7939C121.777 43.6653 121.905 43.5045 121.978 43.2955H122.645C122.549 43.6573 122.348 43.9467 122.042 44.1717C121.745 44.3968 121.367 44.5094 120.925 44.5094C120.571 44.5094 120.25 44.429 119.968 44.2682C119.687 44.1074 119.47 43.8824 119.309 43.5849C119.148 43.2875 119.068 42.9499 119.068 42.564C119.068 42.1782 119.148 41.8406 119.301 41.5431C119.454 41.2537 119.671 41.0287 119.952 40.8679C120.233 40.7071 120.555 40.6348 120.917 40.6348C121.278 40.6348 121.584 40.7152 121.857 40.8679C122.131 41.0206 122.34 41.2377 122.492 41.5029C122.637 41.7762 122.717 42.0817 122.717 42.4193C122.717 42.5399 122.717 42.6605 122.693 42.7971H122.701ZM121.922 41.6798C121.817 41.511 121.672 41.3824 121.496 41.2939C121.319 41.2055 121.118 41.1573 120.901 41.1573C120.587 41.1573 120.322 41.2537 120.097 41.4547C119.872 41.6557 119.751 41.929 119.719 42.2907H122.082C122.082 42.0576 122.026 41.8486 121.922 41.6798Z" fill="#0F172A"/>
<path d="M124.22 44.2602C123.939 44.0994 123.714 43.8743 123.553 43.5769C123.392 43.2795 123.312 42.9418 123.312 42.556C123.312 42.1701 123.392 41.8325 123.561 41.5431C123.73 41.2537 123.955 41.0206 124.244 40.8679C124.534 40.7152 124.855 40.6348 125.209 40.6348C125.563 40.6348 125.884 40.7152 126.174 40.8679C126.463 41.0287 126.688 41.2457 126.857 41.5431C127.026 41.8325 127.106 42.1701 127.106 42.564C127.106 42.9579 127.018 43.2955 126.849 43.5849C126.68 43.8824 126.447 44.1074 126.158 44.2682C125.868 44.429 125.547 44.5094 125.185 44.5094C124.823 44.5094 124.518 44.429 124.228 44.2682L124.22 44.2602ZM125.796 43.7939C125.989 43.6894 126.15 43.5287 126.27 43.3197C126.391 43.1107 126.455 42.8534 126.455 42.556C126.455 42.2586 126.399 42.0013 126.278 41.7923C126.158 41.5833 126.005 41.4225 125.812 41.3261C125.619 41.2216 125.41 41.1734 125.193 41.1734C124.976 41.1734 124.759 41.2216 124.566 41.3261C124.373 41.4306 124.228 41.5833 124.108 41.7923C123.987 42.0013 123.939 42.2586 123.939 42.556C123.939 42.8534 123.995 43.1187 124.108 43.3277C124.22 43.5367 124.365 43.6975 124.558 43.7939C124.743 43.8984 124.952 43.9467 125.169 43.9467C125.386 43.9467 125.603 43.8904 125.796 43.7859V43.7939Z" fill="#0F172A"/>
<path d="M129.084 40.844C129.325 40.6993 129.614 40.627 129.936 40.627C130.257 40.627 130.571 40.7073 130.844 40.8681C131.117 41.0289 131.326 41.254 131.479 41.5434C131.632 41.8327 131.712 42.1704 131.712 42.5482C131.712 42.926 131.632 43.2636 131.479 43.561C131.326 43.8585 131.109 44.0835 130.844 44.2524C130.579 44.4212 130.273 44.5016 129.936 44.5016C129.598 44.5016 129.333 44.4292 129.092 44.2845C128.85 44.1398 128.666 43.963 128.537 43.7459V46.2138H127.918V40.6913H128.537V41.3826C128.658 41.1655 128.842 40.9887 129.084 40.844ZM130.9 41.8086C130.788 41.5996 130.635 41.4388 130.442 41.3263C130.249 41.2138 130.032 41.1655 129.807 41.1655C129.582 41.1655 129.373 41.2218 129.172 41.3343C128.971 41.4469 128.826 41.6077 128.706 41.8167C128.585 42.0257 128.529 42.2749 128.529 42.5482C128.529 42.8215 128.585 43.0787 128.706 43.2877C128.826 43.4967 128.979 43.6575 129.172 43.77C129.365 43.8826 129.574 43.9388 129.807 43.9388C130.04 43.9388 130.249 43.8826 130.442 43.77C130.635 43.6575 130.788 43.4967 130.9 43.2877C131.013 43.0787 131.069 42.8295 131.069 42.5401C131.069 42.2507 131.013 42.0096 130.9 41.8006V41.8086Z" fill="#0F172A"/>
<path d="M133.151 39.3809V44.4371H132.532V39.3809H133.151Z" fill="#0F172A"/>
<path d="M137.605 42.7971H134.614C134.638 43.1669 134.767 43.4563 134.992 43.6653C135.217 43.8743 135.499 43.9788 135.828 43.9788C136.093 43.9788 136.318 43.9145 136.503 43.7939C136.68 43.6653 136.809 43.5045 136.881 43.2955H137.548C137.452 43.6573 137.251 43.9467 136.945 44.1717C136.648 44.3968 136.27 44.5094 135.828 44.5094C135.474 44.5094 135.153 44.429 134.872 44.2682C134.59 44.1074 134.373 43.8824 134.212 43.5849C134.052 43.2875 133.971 42.9499 133.971 42.564C133.971 42.1782 134.052 41.8406 134.204 41.5431C134.357 41.2537 134.574 41.0287 134.855 40.8679C135.137 40.7071 135.458 40.6348 135.82 40.6348C136.182 40.6348 136.487 40.7152 136.761 40.8679C137.034 41.0206 137.243 41.2377 137.396 41.5029C137.54 41.7762 137.621 42.0817 137.621 42.4193C137.621 42.5399 137.621 42.6605 137.597 42.7971H137.605ZM136.825 41.6798C136.72 41.511 136.576 41.3824 136.399 41.2939C136.222 41.2055 136.021 41.1573 135.804 41.1573C135.49 41.1573 135.225 41.2537 135 41.4547C134.775 41.6557 134.654 41.929 134.622 42.2907H136.986C136.986 42.0576 136.929 41.8486 136.825 41.6798Z" fill="#0F172A"/>
<path d="M143.047 42.0581C142.773 42.3234 142.363 42.452 141.809 42.452H140.892V44.4376H140.273V39.6787H141.809C142.347 39.6787 142.757 39.8073 143.039 40.0646C143.32 40.3218 143.457 40.6594 143.457 41.0694C143.457 41.4794 143.32 41.7929 143.047 42.0581ZM142.572 41.7125C142.733 41.5597 142.822 41.3507 142.822 41.0694C142.822 40.4826 142.484 40.1851 141.809 40.1851H140.892V41.9376H141.809C142.154 41.9376 142.412 41.8652 142.572 41.7125Z" fill="#0F172A"/>
<path d="M145.314 40.8038C145.515 40.6832 145.764 40.627 146.053 40.627V41.27H145.892C145.193 41.27 144.847 41.6479 144.847 42.4035V44.4372H144.229V40.6913H144.847V41.3022C144.96 41.0852 145.113 40.9244 145.314 40.8038Z" fill="#0F172A"/>
<path d="M147.452 44.2602C147.17 44.0994 146.945 43.8743 146.785 43.5769C146.624 43.2795 146.543 42.9418 146.543 42.556C146.543 42.1701 146.624 41.8325 146.793 41.5431C146.961 41.2537 147.187 41.0206 147.476 40.8679C147.765 40.7152 148.087 40.6348 148.441 40.6348C148.794 40.6348 149.116 40.7152 149.405 40.8679C149.695 41.0287 149.92 41.2457 150.088 41.5431C150.257 41.8325 150.338 42.1701 150.338 42.564C150.338 42.9579 150.249 43.2955 150.08 43.5849C149.912 43.8824 149.679 44.1074 149.389 44.2682C149.1 44.429 148.778 44.5094 148.416 44.5094C148.055 44.5094 147.749 44.429 147.46 44.2682L147.452 44.2602ZM149.035 43.7939C149.228 43.6894 149.389 43.5287 149.51 43.3197C149.63 43.1107 149.695 42.8534 149.695 42.556C149.695 42.2586 149.638 42.0013 149.518 41.7923C149.397 41.5833 149.244 41.4225 149.052 41.3261C148.859 41.2216 148.65 41.1734 148.433 41.1734C148.215 41.1734 147.998 41.2216 147.806 41.3261C147.613 41.4306 147.468 41.5833 147.347 41.7923C147.227 42.0013 147.179 42.2586 147.179 42.556C147.179 42.8534 147.235 43.1187 147.347 43.3277C147.46 43.5367 147.605 43.6975 147.797 43.7939C147.982 43.8984 148.191 43.9467 148.408 43.9467C148.625 43.9467 148.842 43.8904 149.035 43.7859V43.7939Z" fill="#0F172A"/>
<path d="M151.15 41.5434C151.302 41.254 151.519 41.0289 151.793 40.8681C152.066 40.7073 152.388 40.627 152.741 40.627C153.199 40.627 153.577 40.7395 153.883 40.9646C154.18 41.1897 154.381 41.4951 154.478 41.897H153.81C153.746 41.672 153.626 41.4871 153.441 41.3585C153.256 41.2298 153.031 41.1575 152.757 41.1575C152.404 41.1575 152.114 41.2781 151.897 41.5273C151.68 41.7684 151.568 42.1141 151.568 42.5643C151.568 43.0144 151.68 43.3681 151.897 43.6093C152.114 43.8585 152.404 43.979 152.757 43.979C153.031 43.979 153.256 43.9147 153.441 43.7861C153.626 43.6575 153.746 43.4807 153.818 43.2395H154.486C154.389 43.6253 154.188 43.9308 153.883 44.1559C153.577 44.381 153.208 44.5016 152.757 44.5016C152.404 44.5016 152.09 44.4212 151.809 44.2604C151.527 44.0996 151.318 43.8745 151.166 43.5852C151.013 43.2958 150.933 42.9501 150.933 42.5562C150.933 42.1623 151.013 41.8327 151.166 41.5434H151.15Z" fill="#0F172A"/>
<path d="M158.69 42.7971H155.7C155.724 43.1669 155.852 43.4563 156.078 43.6653C156.303 43.8743 156.584 43.9788 156.914 43.9788C157.179 43.9788 157.404 43.9145 157.589 43.7939C157.766 43.6653 157.894 43.5045 157.967 43.2955H158.634C158.537 43.6573 158.336 43.9467 158.031 44.1717C157.733 44.3968 157.356 44.5094 156.914 44.5094C156.56 44.5094 156.238 44.429 155.957 44.2682C155.676 44.1074 155.459 43.8824 155.298 43.5849C155.137 43.2875 155.057 42.9499 155.057 42.564C155.057 42.1782 155.137 41.8406 155.29 41.5431C155.442 41.2537 155.66 41.0287 155.941 40.8679C156.222 40.7071 156.544 40.6348 156.906 40.6348C157.267 40.6348 157.573 40.7152 157.846 40.8679C158.119 41.0206 158.328 41.2377 158.481 41.5029C158.626 41.7762 158.706 42.0817 158.706 42.4193C158.706 42.5399 158.706 42.6605 158.682 42.7971H158.69ZM157.91 41.6798C157.806 41.511 157.661 41.3824 157.484 41.2939C157.307 41.2055 157.106 41.1573 156.889 41.1573C156.576 41.1573 156.311 41.2537 156.086 41.4547C155.861 41.6557 155.74 41.929 155.708 42.2907H158.071C158.071 42.0576 158.015 41.8486 157.91 41.6798Z" fill="#0F172A"/>
<path d="M160.089 44.349C159.864 44.2526 159.679 44.1159 159.55 43.9391C159.413 43.7622 159.341 43.5613 159.333 43.3362H159.976C159.992 43.5211 160.081 43.6738 160.241 43.7944C160.402 43.915 160.603 43.9712 160.86 43.9712C161.093 43.9712 161.286 43.915 161.423 43.8105C161.56 43.706 161.624 43.5773 161.624 43.4166C161.624 43.2558 161.552 43.1272 161.407 43.0468C161.262 42.9664 161.037 42.886 160.732 42.8137C160.45 42.7413 160.225 42.669 160.048 42.5886C159.872 42.5162 159.719 42.4037 159.598 42.251C159.47 42.1063 159.413 41.9053 159.413 41.6642C159.413 41.4712 159.47 41.2944 159.582 41.1336C159.695 40.9728 159.856 40.8442 160.065 40.7558C160.274 40.6674 160.515 40.6191 160.78 40.6191C161.198 40.6191 161.528 40.7236 161.785 40.9326C162.042 41.1416 162.179 41.431 162.195 41.7928H161.576C161.56 41.5999 161.479 41.4391 161.343 41.3185C161.198 41.1979 161.005 41.1416 160.764 41.1416C160.539 41.1416 160.362 41.1899 160.233 41.2863C160.105 41.3828 160.032 41.5034 160.032 41.6642C160.032 41.7847 160.073 41.8892 160.153 41.9696C160.233 42.05 160.33 42.1143 160.45 42.1626C160.571 42.2108 160.74 42.2671 160.949 42.3233C161.214 42.3957 161.439 42.468 161.608 42.5404C161.777 42.6127 161.921 42.7172 162.042 42.8619C162.163 43.0066 162.227 43.1915 162.227 43.4166C162.227 43.6175 162.171 43.8024 162.058 43.9712C161.946 44.14 161.785 44.2606 161.576 44.3571C161.367 44.4535 161.134 44.4937 160.86 44.4937C160.571 44.4937 160.314 44.4455 160.089 44.349Z" fill="#0F172A"/>
<path d="M163.65 44.349C163.425 44.2526 163.24 44.1159 163.111 43.9391C162.974 43.7622 162.902 43.5613 162.894 43.3362H163.537C163.553 43.5211 163.642 43.6738 163.802 43.7944C163.963 43.915 164.164 43.9712 164.421 43.9712C164.655 43.9712 164.847 43.915 164.984 43.8105C165.121 43.706 165.185 43.5773 165.185 43.4166C165.185 43.2558 165.113 43.1272 164.968 43.0468C164.823 42.9664 164.598 42.886 164.293 42.8137C164.011 42.7413 163.786 42.669 163.609 42.5886C163.433 42.5162 163.28 42.4037 163.159 42.251C163.031 42.1063 162.974 41.9053 162.974 41.6642C162.974 41.4712 163.031 41.2944 163.143 41.1336C163.256 40.9728 163.417 40.8442 163.626 40.7558C163.835 40.6674 164.076 40.6191 164.341 40.6191C164.759 40.6191 165.089 40.7236 165.346 40.9326C165.603 41.1416 165.74 41.431 165.756 41.7928H165.137C165.121 41.5999 165.04 41.4391 164.904 41.3185C164.759 41.1979 164.566 41.1416 164.325 41.1416C164.1 41.1416 163.923 41.1899 163.794 41.2863C163.666 41.3828 163.593 41.5034 163.593 41.6642C163.593 41.7847 163.634 41.8892 163.714 41.9696C163.794 42.05 163.891 42.1143 164.011 42.1626C164.132 42.2108 164.301 42.2671 164.51 42.3233C164.775 42.3957 165 42.468 165.169 42.5404C165.338 42.6127 165.482 42.7172 165.603 42.8619C165.724 43.0066 165.788 43.1915 165.788 43.4166C165.788 43.6175 165.732 43.8024 165.619 43.9712C165.507 44.14 165.346 44.2606 165.137 44.3571C164.928 44.4535 164.695 44.4937 164.421 44.4937C164.132 44.4937 163.875 44.4455 163.65 44.349Z" fill="#0F172A"/>
<path d="M167.219 44.349C166.994 44.2526 166.809 44.1159 166.68 43.9391C166.544 43.7622 166.471 43.5613 166.463 43.3362H167.106C167.123 43.5211 167.211 43.6738 167.372 43.7944C167.533 43.915 167.733 43.9712 167.991 43.9712C168.224 43.9712 168.417 43.915 168.553 43.8105C168.69 43.706 168.754 43.5773 168.754 43.4166C168.754 43.2558 168.682 43.1272 168.537 43.0468C168.393 42.9664 168.168 42.886 167.862 42.8137C167.581 42.7413 167.356 42.669 167.179 42.5886C167.002 42.5162 166.849 42.4037 166.729 42.251C166.6 42.1063 166.544 41.9053 166.544 41.6642C166.544 41.4712 166.6 41.2944 166.713 41.1336C166.825 40.9728 166.986 40.8442 167.195 40.7558C167.404 40.6674 167.645 40.6191 167.91 40.6191C168.328 40.6191 168.658 40.7236 168.915 40.9326C169.172 41.1416 169.309 41.431 169.325 41.7928H168.706C168.69 41.5999 168.61 41.4391 168.473 41.3185C168.328 41.1979 168.135 41.1416 167.894 41.1416C167.669 41.1416 167.492 41.1899 167.364 41.2863C167.235 41.3828 167.163 41.5034 167.163 41.6642C167.163 41.7847 167.203 41.8892 167.283 41.9696C167.364 42.05 167.46 42.1143 167.581 42.1626C167.701 42.2108 167.87 42.2671 168.079 42.3233C168.344 42.3957 168.569 42.468 168.738 42.5404C168.907 42.6127 169.052 42.7172 169.172 42.8619C169.293 43.0066 169.357 43.1915 169.357 43.4166C169.357 43.6175 169.301 43.8024 169.188 43.9712C169.076 44.14 168.915 44.2606 168.706 44.3571C168.497 44.4535 168.264 44.4937 167.991 44.4937C167.701 44.4937 167.444 44.4455 167.219 44.349Z" fill="#0F172A"/>
<path d="M173.625 42.7971H170.635C170.659 43.1669 170.788 43.4563 171.013 43.6653C171.238 43.8743 171.519 43.9788 171.849 43.9788C172.114 43.9788 172.339 43.9145 172.524 43.7939C172.701 43.6653 172.829 43.5045 172.902 43.2955H173.569C173.472 43.6573 173.271 43.9467 172.966 44.1717C172.669 44.3968 172.291 44.5094 171.849 44.5094C171.495 44.5094 171.173 44.429 170.892 44.2682C170.611 44.1074 170.394 43.8824 170.233 43.5849C170.072 43.2875 169.992 42.9499 169.992 42.564C169.992 42.1782 170.072 41.8406 170.225 41.5431C170.378 41.2537 170.595 41.0287 170.876 40.8679C171.157 40.7071 171.479 40.6348 171.841 40.6348C172.202 40.6348 172.508 40.7152 172.781 40.8679C173.054 41.0206 173.263 41.2377 173.416 41.5029C173.561 41.7762 173.641 42.0817 173.641 42.4193C173.641 42.5399 173.641 42.6605 173.617 42.7971H173.625ZM172.845 41.6798C172.741 41.511 172.596 41.3824 172.419 41.2939C172.243 41.2055 172.042 41.1573 171.824 41.1573C171.511 41.1573 171.246 41.2537 171.021 41.4547C170.796 41.6557 170.675 41.929 170.643 42.2907H173.006C173.006 42.0576 172.95 41.8486 172.845 41.6798Z" fill="#0F172A"/>
<path d="M175.024 44.349C174.799 44.2526 174.614 44.1159 174.486 43.9391C174.349 43.7622 174.277 43.5613 174.269 43.3362H174.912C174.928 43.5211 175.016 43.6738 175.177 43.7944C175.338 43.915 175.539 43.9712 175.796 43.9712C176.029 43.9712 176.222 43.915 176.359 43.8105C176.495 43.706 176.56 43.5773 176.56 43.4166C176.56 43.2558 176.487 43.1272 176.343 43.0468C176.198 42.9664 175.973 42.886 175.667 42.8137C175.386 42.7413 175.161 42.669 174.984 42.5886C174.807 42.5162 174.654 42.4037 174.534 42.251C174.405 42.1063 174.349 41.9053 174.349 41.6642C174.349 41.4712 174.405 41.2944 174.518 41.1336C174.63 40.9728 174.791 40.8442 175 40.7558C175.209 40.6674 175.45 40.6191 175.716 40.6191C176.134 40.6191 176.463 40.7236 176.72 40.9326C176.978 41.1416 177.114 41.431 177.13 41.7928H176.511C176.495 41.5999 176.415 41.4391 176.278 41.3185C176.134 41.1979 175.941 41.1416 175.699 41.1416C175.474 41.1416 175.297 41.1899 175.169 41.2863C175.04 41.3828 174.968 41.5034 174.968 41.6642C174.968 41.7847 175.008 41.8892 175.088 41.9696C175.169 42.05 175.265 42.1143 175.386 42.1626C175.506 42.2108 175.675 42.2671 175.884 42.3233C176.15 42.3957 176.375 42.468 176.543 42.5404C176.712 42.6127 176.857 42.7172 176.978 42.8619C177.098 43.0066 177.162 43.1915 177.162 43.4166C177.162 43.6175 177.106 43.8024 176.994 43.9712C176.881 44.14 176.72 44.2606 176.511 44.3571C176.302 44.4535 176.069 44.4937 175.796 44.4937C175.506 44.4937 175.249 44.4455 175.024 44.349Z" fill="#0F172A"/>
<path d="M165.116 24.4043V21.4487H169.66C170.59 21.4487 171.306 21.2163 171.808 20.7516C172.328 20.2683 172.588 19.6084 172.588 18.7719C172.588 18.0097 172.328 17.3777 171.808 16.8758C171.306 16.3553 170.59 16.0951 169.66 16.0951H165.116V13H169.995C171.259 13 172.365 13.251 173.313 13.7529C174.28 14.2362 175.023 14.9054 175.544 15.7605C176.083 16.6156 176.353 17.6008 176.353 18.7161C176.353 19.8686 176.083 20.8724 175.544 21.7275C175.023 22.564 174.28 23.2239 173.313 23.7072C172.347 24.172 171.222 24.4043 169.939 24.4043H165.116ZM162.327 32.6021V13H166.119V32.6021H162.327ZM173.034 32.6021L166.565 24.1255L170.051 23.038L177.635 32.6021H173.034Z" fill="#0F172A"/>
<path d="M142.232 32.6021V13H146.024V32.6021H142.232ZM154.529 32.6021V13H158.321V32.6021H154.529ZM144.63 24.1534V20.8074H155.588V24.1534H144.63Z" fill="#0F172A"/>
<path d="M128.846 32.6021L121.122 13H125.221L131.188 28.8657H129.599L135.621 13H139.665L131.857 32.6021H128.846Z" fill="#0F172A"/>
<path d="M103.749 32.6021L111.64 13H114.735L122.598 32.6021H118.555L112.477 16.5133H113.871L107.708 32.6021H103.749ZM107.932 28.9493V25.7706H118.471V28.9493H107.932Z" fill="#0F172A"/>
<path d="M88.4253 32.6021V13H92.2174V32.6021H88.4253ZM91.2136 32.6021V29.2561H102.06V32.6021H91.2136ZM91.2136 24.2091V20.9747H101.084V24.2091H91.2136ZM91.2136 16.346V13H101.921V16.346H91.2136Z" fill="#0F172A"/>
<path d="M65.7227 32.6021L59.3652 13H63.1016L67.8139 28.0849H66.5592L71.1878 13H74.004L78.6327 28.0849H77.3501L82.0903 13H85.8266L79.4413 32.6021H76.6251L71.9686 17.545H73.1954L68.5668 32.6021H65.7227Z" fill="#0F172A"/>
<defs>
<filter id="filter0_ddiii_890_24314" x="0.426669" y="-1.93857" width="53.8771" height="55.8157" filterUnits="userSpaceOnUse" color-interpolation-filters="sRGB">
<feFlood flood-opacity="0" result="BackgroundImageFix"/>
<feColorMatrix in="SourceAlpha" type="matrix" values="0 0 0 0 0 0 0 0 0 0 0 0 0 0 0 0 0 0 127 0" result="hardAlpha"/>
<feOffset dy="0.646188"/>
<feGaussianBlur stdDeviation="0.323094"/>
<feComposite in2="hardAlpha" operator="out"/>
<feColorMatrix type="matrix" values="0 0 0 0 0.162923 0 0 0 0 0.162923 0 0 0 0 0.162923 0 0 0 0.08 0"/>
<feBlend mode="normal" in2="BackgroundImageFix" result="effect1_dropShadow_890_24314"/>
<feColorMatrix in="SourceAlpha" type="matrix" values="0 0 0 0 0 0 0 0 0 0 0 0 0 0 0 0 0 0 127 0" result="hardAlpha"/>
<feMorphology radius="0.646188" operator="erode" in="SourceAlpha" result="effect2_dropShadow_890_24314"/>
<feOffset dy="1.93857"/>
<feGaussianBlur stdDeviation="1.29238"/>
<feComposite in2="hardAlpha" operator="out"/>
<feColorMatrix type="matrix" values="0 0 0 0 0.164706 0 0 0 0 0.164706 0 0 0 0 0.164706 0 0 0 0.14 0"/>
<feBlend mode="normal" in2="effect1_dropShadow_890_24314" result="effect2_dropShadow_890_24314"/>
<feBlend mode="normal" in="SourceGraphic" in2="effect2_dropShadow_890_24314" result="shape"/>
<feColorMatrix in="SourceAlpha" type="matrix" values="0 0 0 0 0 0 0 0 0 0 0 0 0 0 0 0 0 0 127 0" result="hardAlpha"/>
<feOffset dy="-1.93857"/>
<feGaussianBlur stdDeviation="0.969283"/>
<feComposite in2="hardAlpha" operator="arithmetic" k2="-1" k3="1"/>
<feColorMatrix type="matrix" values="0 0 0 0 0 0 0 0 0 0 0 0 0 0 0 0 0 0 0.1 0"/>
<feBlend mode="normal" in2="shape" result="effect3_innerShadow_890_24314"/>
<feColorMatrix in="SourceAlpha" type="matrix" values="0 0 0 0 0 0 0 0 0 0 0 0 0 0 0 0 0 0 127 0" result="hardAlpha"/>
<feOffset dy="1.93857"/>
<feGaussianBlur stdDeviation="0.969283"/>
<feComposite in2="hardAlpha" operator="arithmetic" k2="-1" k3="1"/>
<feColorMatrix type="matrix" values="0 0 0 0 1 0 0 0 0 1 0 0 0 0 1 0 0 0 0.1 0"/>
<feBlend mode="normal" in2="effect3_innerShadow_890_24314" result="effect4_innerShadow_890_24314"/>
<feColorMatrix in="SourceAlpha" type="matrix" values="0 0 0 0 0 0 0 0 0 0 0 0 0 0 0 0 0 0 127 0" result="hardAlpha"/>
<feMorphology radius="0.646188" operator="erode" in="SourceAlpha" result="effect5_innerShadow_890_24314"/>
<feOffset/>
<feComposite in2="hardAlpha" operator="arithmetic" k2="-1" k3="1"/>
<feColorMatrix type="matrix" values="0 0 0 0 0.0627451 0 0 0 0 0.0941176 0 0 0 0 0.156863 0 0 0 0.24 0"/>
<feBlend mode="normal" in2="effect4_innerShadow_890_24314" result="effect5_innerShadow_890_24314"/>
</filter>
</defs>
</svg>
