<svg width="245" height="70" viewBox="0 0 245 70" fill="none" xmlns="http://www.w3.org/2000/svg">
<path d="M48.7253 39.356V48.4055C41.177 49.4555 34.3388 49.5668 26.9199 47.5861C14.3198 44.2237 4.89398 34.0877 0 22.2969L6.42954 16.9355C8.22002 19.6992 9.40356 22.7764 11.1839 25.5521C19.754 38.9109 33.3515 43.7664 48.7253 39.356Z" fill="white"/>
<path d="M42.4292 18.5088C44.6506 17.9302 47.5579 15.3668 49.4981 14.7295C49.9614 14.5778 50.2244 14.4564 50.6877 14.7477C51.0579 14.9804 54.4689 20.2972 54.9423 21.1368C64.2184 37.591 62.1892 55.5242 50.4186 69.9997L42.8197 66.6919C49.3908 57.517 54.4487 47.0755 52.0088 35.4809C50.6371 28.9644 46.9489 23.2591 42.4292 18.5088Z" fill="white"/>
<path d="M67.1963 2.78661L68.0015 11.4173C54.839 8.84794 40.3634 11.1604 31.8156 22.2492C29.1653 25.6886 26.7396 29.9453 25.9 34.2384L18.5944 29.5163L18.4912 29.0025C26.4239 9.29101 46.1334 -1.3669 67.1963 2.78661Z" fill="white"/>
<path d="M21.8641 49.2785C29.5379 48.6169 30.2561 61.0168 22.1615 60.9176C15.0744 60.8306 14.6374 49.9016 21.8641 49.2785Z" fill="white"/>
<path d="M23.8346 0.106615C32.6615 -1.33993 32.7829 12.4296 24.1704 11.3877C17.8562 10.6229 17.5285 1.13842 23.8346 0.106615Z" fill="white"/>
<path d="M72.1977 26.8983C77.8038 32.5044 68.7665 40.514 63.8118 34.8917C58.9158 29.3321 67.1095 21.8121 72.1977 26.8983Z" fill="white"/>
<path d="M84.4116 17.6475H87.4165L94.8999 33.5388H94.9577L102.037 17.9653H104.724L111.658 33.5388H111.716L119.17 17.6475H122.002L113.016 36.6593H110.098L103.308 21.4903H103.25L96.3157 36.6593H93.3685L84.4116 17.6475Z" fill="white"/>
<path d="M124.92 17.6475H142.314V20.0167H127.636V26.0265H139.424V28.1646H127.636V34.29H142.603V36.6593H124.92V17.6475Z" fill="white"/>
<path d="M165.024 32.1519H150.462L147.746 36.6593H144.77L156.327 17.6475H159.39L170.947 36.6593H167.74L165.024 32.1519ZM163.752 30.0138L157.772 20.0745H157.714L151.733 30.0138H163.752Z" fill="white"/>
<path d="M167.971 17.6475H171.149L181.059 34.2611H181.117L190.97 17.6475H194.004L182.562 36.6593H179.412L167.971 17.6475Z" fill="white"/>
<path d="M196.922 17.6475H199.638V25.6509H216.685V17.6475H219.401V36.6593H216.685V27.8468H199.638V36.6593H196.922V17.6475Z" fill="white"/>
<path d="M223.735 17.6475H235.697C241.446 17.6475 244.076 19.7856 244.076 23.1372C244.076 25.3331 242.747 27.0667 240.435 27.6157V27.6734C242.891 28.1357 243.96 29.8982 243.96 32.5853V36.6593H241.244V32.5853C241.244 30.1583 239.915 28.9159 236.881 28.9159H226.451V36.6593H223.735V17.6475ZM236.39 26.7777C239.857 26.7777 241.533 25.4775 241.533 23.455C241.533 21.4325 239.742 20.0167 235.321 20.0167H226.451V26.7777H236.39Z" fill="white"/>
<path d="M85.3083 50.146C85.0306 50.0212 84.8116 49.848 84.6562 49.6264C84.4982 49.4047 84.4167 49.1474 84.4116 48.8596H85.1529C85.1784 49.1092 85.2803 49.3207 85.4611 49.4888C85.642 49.6595 85.9044 49.7461 86.2508 49.7461C86.5972 49.7461 86.8443 49.662 87.0354 49.4964C87.2264 49.3309 87.3207 49.1194 87.3207 48.8596C87.3207 48.6558 87.2646 48.4902 87.1526 48.3629C87.0405 48.2355 86.9004 48.1387 86.7323 48.0725C86.5641 48.0062 86.3374 47.9349 86.0521 47.8585C85.7006 47.7668 85.4178 47.6751 85.2089 47.5834C84.9975 47.4917 84.8166 47.349 84.6664 47.1503C84.5161 46.9542 84.4422 46.6918 84.4422 46.3607C84.4422 46.0703 84.5161 45.813 84.6638 45.5888C84.8116 45.3646 85.0204 45.1914 85.2854 45.0692C85.5528 44.9469 85.8585 44.8857 86.205 44.8857C86.7042 44.8857 87.1118 45.0106 87.4328 45.2602C87.7512 45.5098 87.9295 45.841 87.9703 46.2537H87.2061C87.1806 46.0499 87.0736 45.8716 86.8851 45.7136C86.6966 45.5582 86.4469 45.4793 86.1362 45.4793C85.8458 45.4793 85.6089 45.5532 85.4255 45.7034C85.2421 45.8537 85.1504 46.0652 85.1504 46.3326C85.1504 46.5262 85.2038 46.6842 85.3159 46.8064C85.4255 46.9287 85.5605 47.023 85.721 47.0841C85.8814 47.1478 86.1082 47.2217 86.396 47.3032C86.7475 47.4 87.0303 47.4942 87.2443 47.5885C87.4582 47.6827 87.6417 47.8279 87.7945 48.0241C87.9473 48.2202 88.0238 48.4877 88.0238 48.8214C88.0238 49.0812 87.955 49.3258 87.8174 49.555C87.6799 49.7843 87.4761 49.9702 87.2061 50.1129C86.936 50.2555 86.6176 50.3269 86.2508 50.3269C85.884 50.3269 85.5834 50.2632 85.3057 50.1384L85.3083 50.146Z" fill="white"/>
<path d="M90.6014 45.2739C90.5097 45.1822 90.4639 45.0701 90.4639 44.9377C90.4639 44.8052 90.5097 44.6931 90.6014 44.6014C90.6931 44.5097 90.8052 44.4639 90.9377 44.4639C91.0701 44.4639 91.172 44.5097 91.2612 44.6014C91.3503 44.6931 91.3936 44.8052 91.3936 44.9377C91.3936 45.0701 91.3478 45.1822 91.2612 45.2739C91.172 45.3656 91.0625 45.4115 90.9377 45.4115C90.8129 45.4115 90.6931 45.3656 90.6014 45.2739ZM91.2739 46.0916V50.2795H90.5785V46.0916H91.2739Z" fill="white"/>
<path d="M99.8941 46.2186C100.149 46.3536 100.35 46.5574 100.498 46.8274C100.646 47.0974 100.719 47.426 100.719 47.8132V50.2816H100.032V47.9126C100.032 47.4948 99.9272 47.1739 99.7234 46.9522C99.5171 46.7306 99.2369 46.6211 98.8854 46.6211C98.5338 46.6211 98.2358 46.7383 98.0218 46.9701C97.8078 47.2019 97.7008 47.5356 97.7008 47.9763V50.2842H97.0131V47.9151C97.0131 47.4974 96.9112 47.1764 96.7048 46.9548C96.4985 46.7332 96.2183 46.6236 95.8668 46.6236C95.5152 46.6236 95.2172 46.7408 95.0032 46.9726C94.7892 47.2044 94.6822 47.5381 94.6822 47.9788V50.2867H93.9868V46.0989H94.6822V46.7026C94.8198 46.4835 95.0032 46.3154 95.235 46.1982C95.4668 46.0811 95.7241 46.0225 96.0043 46.0225C96.3558 46.0225 96.6666 46.1014 96.9366 46.2594C97.2067 46.4173 97.4079 46.6491 97.5404 46.9548C97.6575 46.6593 97.8511 46.43 98.1212 46.267C98.3912 46.104 98.6918 46.0225 99.0229 46.0225C99.3541 46.0225 99.6394 46.0912 99.8941 46.2237V46.2186Z" fill="white"/>
<path d="M104.696 46.2645C104.968 46.104 105.284 46.0225 105.646 46.0225C106.008 46.0225 106.354 46.1116 106.66 46.2899C106.963 46.4682 107.2 46.7204 107.375 47.0439C107.549 47.3675 107.635 47.7445 107.635 48.1699C107.635 48.5953 107.549 48.9697 107.375 49.3009C107.202 49.632 106.963 49.8893 106.66 50.0727C106.357 50.2561 106.018 50.3478 105.646 50.3478C105.274 50.3478 104.973 50.2689 104.701 50.1084C104.428 49.9479 104.219 49.7467 104.079 49.5072V52.266H103.384V46.0912H104.079V46.8631C104.217 46.6236 104.421 46.4249 104.696 46.2645ZM106.734 47.3445C106.606 47.1102 106.433 46.9319 106.216 46.8096C106 46.6873 105.763 46.6262 105.503 46.6262C105.243 46.6262 105.012 46.6899 104.798 46.8121C104.581 46.937 104.408 47.1178 104.278 47.3547C104.148 47.5916 104.082 47.8642 104.082 48.175C104.082 48.4857 104.145 48.7685 104.278 49.0028C104.408 49.2398 104.581 49.4206 104.798 49.5454C105.014 49.6703 105.248 49.7339 105.503 49.7339C105.758 49.7339 106 49.6703 106.216 49.5454C106.433 49.4206 106.604 49.2398 106.734 49.0028C106.861 48.7659 106.925 48.4883 106.925 48.1648C106.925 47.8413 106.861 47.5738 106.734 47.3394V47.3445Z" fill="white"/>
<path d="M110.776 44.624V50.2791H110.081V44.624H110.776Z" fill="white"/>
<path d="M113.512 45.2739C113.42 45.1822 113.375 45.0701 113.375 44.9377C113.375 44.8052 113.42 44.6931 113.512 44.6014C113.604 44.5097 113.716 44.4639 113.848 44.4639C113.981 44.4639 114.083 44.5097 114.172 44.6014C114.261 44.6931 114.304 44.8052 114.304 44.9377C114.304 45.0701 114.258 45.1822 114.172 45.2739C114.083 45.3656 113.973 45.4115 113.848 45.4115C113.723 45.4115 113.604 45.3656 113.512 45.2739ZM114.185 46.0916V50.2795H113.489V46.0916H114.185Z" fill="white"/>
<path d="M118.602 46.6643H117.723V50.2789H117.027V46.6643H116.485V46.0911H117.027V45.7931C117.027 45.3244 117.15 44.983 117.392 44.7665C117.634 44.55 118.023 44.4404 118.556 44.4404V45.0212C118.25 45.0212 118.036 45.0824 117.911 45.2021C117.787 45.3218 117.723 45.518 117.723 45.7931V46.0911H118.602V46.6643Z" fill="white"/>
<path d="M124.548 46.0908L122.026 52.2503H121.307L122.133 50.2328L120.444 46.0908H121.216L122.53 49.4839L123.829 46.0908H124.548Z" fill="white"/>
<path d="M126.794 45.2739C126.703 45.1822 126.657 45.0701 126.657 44.9377C126.657 44.8052 126.703 44.6931 126.794 44.6014C126.886 44.5097 126.998 44.4639 127.131 44.4639C127.263 44.4639 127.365 44.5097 127.454 44.6014C127.543 44.6931 127.587 44.8052 127.587 44.9377C127.587 45.0701 127.541 45.1822 127.454 45.2739C127.365 45.3656 127.255 45.4115 127.131 45.4115C127.006 45.4115 126.886 45.3656 126.794 45.2739ZM127.467 46.0916V50.2795H126.771V46.0916H127.467Z" fill="white"/>
<path d="M133.458 46.4773C133.774 46.7855 133.932 47.2313 133.932 47.8095V50.2779H133.244V47.9089C133.244 47.4911 133.14 47.1702 132.931 46.9485C132.722 46.7269 132.437 46.6174 132.075 46.6174C131.713 46.6174 131.418 46.732 131.199 46.9613C130.982 47.1905 130.875 47.5242 130.875 47.9624V50.2779H130.18V46.0901H130.875V46.6862C131.013 46.4722 131.199 46.3066 131.438 46.1894C131.675 46.0723 131.935 46.0137 132.22 46.0137C132.73 46.0137 133.142 46.1691 133.458 46.4773Z" fill="white"/>
<path d="M139.276 46.2597C139.549 46.4177 139.75 46.6164 139.882 46.8558V46.0916H140.585V50.3712C140.585 50.7533 140.504 51.0921 140.341 51.3901C140.178 51.6881 139.943 51.9199 139.643 52.0906C139.34 52.2587 138.986 52.3428 138.583 52.3428C138.033 52.3428 137.574 52.2129 137.208 51.9531C136.841 51.6932 136.624 51.3392 136.558 50.8908H137.246C137.322 51.1456 137.48 51.3493 137.72 51.5073C137.959 51.6627 138.247 51.7416 138.583 51.7416C138.965 51.7416 139.279 51.6219 139.521 51.3825C139.763 51.143 139.882 50.8068 139.882 50.3737V49.4949C139.745 49.7394 139.541 49.9432 139.271 50.1062C139.001 50.2693 138.685 50.3508 138.323 50.3508C137.962 50.3508 137.613 50.2591 137.312 50.0757C137.009 49.8923 136.769 49.635 136.596 49.3038C136.423 48.9727 136.336 48.5957 136.336 48.1728C136.336 47.7499 136.423 47.3704 136.596 47.0469C136.769 46.7234 137.006 46.4737 137.312 46.2929C137.615 46.1146 137.951 46.0254 138.323 46.0254C138.695 46.0254 139.003 46.1044 139.276 46.2623V46.2597ZM139.694 47.3526C139.566 47.1182 139.393 46.9399 139.179 46.8125C138.963 46.6877 138.723 46.6266 138.463 46.6266C138.204 46.6266 137.967 46.6877 137.753 46.81C137.539 46.9322 137.368 47.1106 137.241 47.3449C137.113 47.5793 137.05 47.8544 137.05 48.1703C137.05 48.4861 137.113 48.7714 137.241 49.0083C137.368 49.2452 137.539 49.4261 137.753 49.5509C137.967 49.6757 138.204 49.7394 138.463 49.7394C138.723 49.7394 138.96 49.6757 139.179 49.5509C139.396 49.4261 139.566 49.2452 139.694 49.0083C139.821 48.7714 139.885 48.4963 139.885 48.1804C139.885 47.8646 139.821 47.5895 139.694 47.3551V47.3526Z" fill="white"/>
<path d="M149.967 47.6167C149.664 47.9096 149.203 48.0548 148.581 48.0548H147.557V50.2786H146.862V44.9521H148.581C149.182 44.9521 149.638 45.0973 149.952 45.3877C150.265 45.6781 150.423 46.0526 150.423 46.5111C150.423 46.9696 150.27 47.3237 149.967 47.6141V47.6167ZM149.437 47.2295C149.621 47.0613 149.712 46.8219 149.712 46.5111C149.712 45.8539 149.335 45.5253 148.581 45.5253H147.557V47.4817H148.581C148.968 47.4817 149.254 47.3976 149.437 47.2295Z" fill="white"/>
<path d="M156.614 48.4442H153.266C153.292 48.8569 153.432 49.1804 153.692 49.4097C153.949 49.6415 154.26 49.7587 154.627 49.7587C154.927 49.7587 155.177 49.6899 155.381 49.5472C155.582 49.4071 155.722 49.2212 155.806 48.9843H156.555C156.443 49.3867 156.219 49.7153 155.882 49.9675C155.546 50.2197 155.128 50.3445 154.629 50.3445C154.232 50.3445 153.875 50.2554 153.562 50.0771C153.249 49.8988 153.004 49.6466 152.823 49.318C152.642 48.9894 152.556 48.6073 152.556 48.1742C152.556 47.7412 152.642 47.3616 152.815 47.0355C152.989 46.7095 153.231 46.4573 153.544 46.2815C153.857 46.1058 154.219 46.0166 154.627 46.0166C155.034 46.0166 155.376 46.1032 155.681 46.2764C155.987 46.4497 156.221 46.6891 156.387 46.9922C156.552 47.2954 156.637 47.6393 156.637 48.0214C156.637 48.1538 156.629 48.2939 156.614 48.4417V48.4442ZM155.742 47.196C155.625 47.005 155.467 46.8598 155.263 46.7604C155.062 46.6611 154.838 46.6127 154.596 46.6127C154.245 46.6127 153.944 46.7248 153.699 46.9489C153.452 47.1731 153.31 47.4839 153.274 47.8813H155.918C155.918 47.6163 155.86 47.3871 155.742 47.196Z" fill="white"/>
<path d="M159.841 50.08C159.523 49.9017 159.273 49.6495 159.092 49.3209C158.911 48.9923 158.822 48.6102 158.822 48.1771C158.822 47.7441 158.914 47.3696 159.1 47.041C159.286 46.7124 159.541 46.4602 159.862 46.2845C160.183 46.1087 160.542 46.0195 160.939 46.0195C161.337 46.0195 161.696 46.1061 162.017 46.2845C162.338 46.4602 162.59 46.7099 162.776 47.0385C162.962 47.3645 163.056 47.7441 163.056 48.1771C163.056 48.6102 162.959 48.9923 162.771 49.3209C162.582 49.6495 162.32 49.9042 161.996 50.08C161.67 50.2583 161.308 50.3475 160.911 50.3475C160.514 50.3475 160.162 50.2583 159.844 50.08H159.841ZM161.612 49.5603C161.831 49.4432 162.006 49.2674 162.141 49.033C162.276 48.7987 162.343 48.5134 162.343 48.1771C162.343 47.8409 162.276 47.5556 162.144 47.3212C162.012 47.0869 161.838 46.9136 161.624 46.799C161.41 46.6844 161.179 46.6283 160.929 46.6283C160.679 46.6283 160.44 46.6844 160.231 46.799C160.02 46.9136 159.849 47.0894 159.721 47.3212C159.594 47.5556 159.53 47.8409 159.53 48.1771C159.53 48.5134 159.592 48.8063 159.716 49.0407C159.841 49.275 160.007 49.4508 160.216 49.5654C160.425 49.6801 160.654 49.7361 160.903 49.7361C161.153 49.7361 161.387 49.6775 161.607 49.5603H161.612Z" fill="white"/>
<path d="M166.81 46.2645C167.083 46.104 167.399 46.0225 167.763 46.0225C168.127 46.0225 168.471 46.1116 168.774 46.2899C169.077 46.4682 169.314 46.7204 169.49 47.0439C169.663 47.3675 169.75 47.7445 169.75 48.1699C169.75 48.5953 169.663 48.9697 169.49 49.3009C169.317 49.632 169.077 49.8893 168.774 50.0727C168.471 50.2561 168.135 50.3478 167.763 50.3478C167.391 50.3478 167.091 50.2689 166.818 50.1084C166.545 49.9479 166.337 49.7467 166.196 49.5072V52.266H165.501V46.0912H166.196V46.8631C166.334 46.6236 166.538 46.4249 166.81 46.2645ZM168.848 47.3445C168.721 47.1102 168.55 46.9319 168.331 46.8096C168.115 46.6873 167.878 46.6262 167.618 46.6262C167.358 46.6262 167.129 46.6899 166.912 46.8121C166.696 46.937 166.522 47.1178 166.393 47.3547C166.263 47.5916 166.196 47.8642 166.196 48.175C166.196 48.4857 166.26 48.7685 166.393 49.0028C166.522 49.2398 166.696 49.4206 166.912 49.5454C167.129 49.6703 167.363 49.7339 167.618 49.7339C167.873 49.7339 168.117 49.6703 168.331 49.5454C168.548 49.4206 168.721 49.2398 168.848 49.0028C168.976 48.7659 169.039 48.4883 169.039 48.1648C169.039 47.8413 168.976 47.5738 168.848 47.3394V47.3445Z" fill="white"/>
<path d="M172.891 44.624V50.2791H172.195V44.624H172.891Z" fill="white"/>
<path d="M179.402 48.4442H176.055C176.08 48.8569 176.223 49.1804 176.48 49.4097C176.738 49.6415 177.051 49.7587 177.415 49.7587C177.716 49.7587 177.968 49.6899 178.169 49.5472C178.37 49.4071 178.51 49.2212 178.595 48.9843H179.343C179.231 49.3867 179.007 49.7153 178.671 49.9675C178.335 50.2197 177.917 50.3445 177.418 50.3445C177.02 50.3445 176.664 50.2554 176.353 50.0771C176.04 49.8988 175.792 49.6466 175.614 49.318C175.436 48.9894 175.347 48.6073 175.347 48.1742C175.347 47.7412 175.433 47.3616 175.607 47.0355C175.78 46.7095 176.022 46.4573 176.335 46.2815C176.648 46.1058 177.01 46.0166 177.418 46.0166C177.825 46.0166 178.167 46.1032 178.472 46.2764C178.778 46.4497 179.012 46.6891 179.178 46.9922C179.343 47.2954 179.428 47.6393 179.428 48.0214C179.428 48.1538 179.42 48.2939 179.405 48.4417L179.402 48.4442ZM178.531 47.196C178.414 47.005 178.256 46.8598 178.052 46.7604C177.851 46.6611 177.627 46.6127 177.385 46.6127C177.033 46.6127 176.735 46.7248 176.488 46.9489C176.241 47.1731 176.098 47.4839 176.062 47.8813H178.707C178.707 47.6163 178.648 47.3871 178.531 47.196Z" fill="white"/>
<path d="M190.842 44.9912V50.2795H190.146V46.3362L188.389 50.2795H187.9L186.134 46.3286V50.2795H185.439V44.9912H186.188L188.144 49.3625L190.101 44.9912H190.842Z" fill="white"/>
<path d="M193.547 47.0439C193.72 46.7204 193.96 46.4708 194.263 46.2899C194.566 46.1116 194.902 46.0225 195.274 46.0225C195.646 46.0225 195.959 46.1014 196.229 46.2594C196.499 46.4173 196.701 46.616 196.833 46.8554V46.0912H197.536V50.2791H196.833V49.4996C196.696 49.7441 196.489 49.9454 196.217 50.1059C195.944 50.2663 195.626 50.3453 195.264 50.3453C194.902 50.3453 194.556 50.2536 194.255 50.0702C193.955 49.8868 193.718 49.6295 193.545 49.2983C193.371 48.9672 193.285 48.5902 193.285 48.1673C193.285 47.7445 193.371 47.3649 193.545 47.0414L193.547 47.0439ZM196.642 47.3522C196.515 47.1178 196.341 46.9395 196.125 46.8121C195.908 46.6873 195.669 46.6262 195.412 46.6262C195.154 46.6262 194.915 46.6873 194.701 46.8096C194.487 46.9319 194.316 47.1102 194.189 47.3445C194.062 47.5789 193.998 47.854 193.998 48.1699C193.998 48.4857 194.062 48.771 194.189 49.0079C194.316 49.2449 194.487 49.4257 194.701 49.5505C194.915 49.6753 195.152 49.739 195.412 49.739C195.672 49.739 195.908 49.6753 196.125 49.5505C196.341 49.4257 196.515 49.2449 196.642 49.0079C196.769 48.771 196.833 48.4959 196.833 48.1801C196.833 47.8642 196.769 47.5891 196.642 47.3547V47.3522Z" fill="white"/>
<path d="M203.52 46.4773C203.836 46.7855 203.994 47.2313 203.994 47.8095V50.2779H203.306V47.9089C203.306 47.4911 203.201 47.1702 202.992 46.9485C202.784 46.7269 202.498 46.6174 202.137 46.6174C201.775 46.6174 201.477 46.732 201.26 46.9613C201.044 47.1905 200.934 47.5242 200.934 47.9624V50.2779H200.239V46.0901H200.934V46.6862C201.072 46.4722 201.26 46.3066 201.497 46.1894C201.734 46.0723 201.996 46.0137 202.282 46.0137C202.791 46.0137 203.204 46.1691 203.52 46.4773Z" fill="white"/>
<path d="M206.661 47.0439C206.835 46.7204 207.074 46.4708 207.377 46.2899C207.68 46.1116 208.016 46.0225 208.388 46.0225C208.76 46.0225 209.074 46.1014 209.344 46.2594C209.614 46.4173 209.815 46.616 209.947 46.8554V46.0912H210.65V50.2791H209.947V49.4996C209.81 49.7441 209.603 49.9454 209.331 50.1059C209.058 50.2663 208.74 50.3453 208.378 50.3453C208.016 50.3453 207.67 50.2536 207.369 50.0702C207.069 49.8868 206.832 49.6295 206.659 49.2983C206.486 48.9672 206.399 48.5902 206.399 48.1673C206.399 47.7445 206.486 47.3649 206.659 47.0414L206.661 47.0439ZM209.756 47.3522C209.629 47.1178 209.458 46.9395 209.239 46.8121C209.023 46.6873 208.786 46.6262 208.526 46.6262C208.266 46.6262 208.029 46.6873 207.815 46.8096C207.601 46.9319 207.431 47.1102 207.303 47.3445C207.176 47.5789 207.112 47.854 207.112 48.1699C207.112 48.4857 207.176 48.771 207.303 49.0079C207.431 49.2449 207.601 49.4257 207.815 49.5505C208.029 49.6753 208.266 49.739 208.526 49.739C208.786 49.739 209.025 49.6753 209.239 49.5505C209.456 49.4257 209.629 49.2449 209.756 49.0079C209.884 48.771 209.947 48.4959 209.947 48.1801C209.947 47.8642 209.884 47.5891 209.756 47.3547V47.3522Z" fill="white"/>
<path d="M216.033 46.2597C216.306 46.4177 216.507 46.6164 216.639 46.8558V46.0916H217.342V50.3712C217.342 50.7533 217.261 51.0921 217.098 51.3901C216.935 51.6881 216.703 51.9199 216.397 52.0906C216.094 52.2587 215.74 52.3428 215.34 52.3428C214.79 52.3428 214.331 52.2129 213.965 51.9531C213.598 51.6932 213.381 51.3392 213.315 50.8908H214.003C214.079 51.1456 214.237 51.3493 214.477 51.5073C214.716 51.6627 215.004 51.7416 215.34 51.7416C215.722 51.7416 216.033 51.6219 216.275 51.3825C216.517 51.143 216.637 50.8068 216.637 50.3737V49.4949C216.499 49.7394 216.295 49.9432 216.025 50.1062C215.755 50.2693 215.439 50.3508 215.078 50.3508C214.716 50.3508 214.367 50.2591 214.066 50.0757C213.763 49.8923 213.524 49.635 213.351 49.3038C213.177 48.9727 213.091 48.5957 213.091 48.1728C213.091 47.7499 213.177 47.3704 213.351 47.0469C213.524 46.7234 213.763 46.4737 214.066 46.2929C214.37 46.1146 214.706 46.0254 215.078 46.0254C215.45 46.0254 215.758 46.1044 216.03 46.2623L216.033 46.2597ZM216.451 47.3526C216.323 47.1182 216.153 46.9399 215.934 46.8125C215.717 46.6877 215.48 46.6266 215.22 46.6266C214.961 46.6266 214.724 46.6877 214.51 46.81C214.296 46.9322 214.125 47.1106 213.998 47.3449C213.87 47.5793 213.807 47.8544 213.807 48.1703C213.807 48.4861 213.87 48.7714 213.998 49.0083C214.125 49.2452 214.296 49.4261 214.51 49.5509C214.724 49.6757 214.961 49.7394 215.22 49.7394C215.48 49.7394 215.72 49.6757 215.934 49.5509C216.15 49.4261 216.323 49.2452 216.451 49.0083C216.578 48.7714 216.642 48.4963 216.642 48.1804C216.642 47.8646 216.578 47.5895 216.451 47.3551V47.3526Z" fill="white"/>
<path d="M225.958 46.2186C226.212 46.3536 226.414 46.5574 226.561 46.8274C226.709 47.0974 226.783 47.426 226.783 47.8132V50.2816H226.095V47.9126C226.095 47.4948 225.991 47.1739 225.787 46.9522C225.581 46.7306 225.3 46.6211 224.949 46.6211C224.597 46.6211 224.299 46.7383 224.085 46.9701C223.871 47.2019 223.764 47.5356 223.764 47.9763V50.2842H223.077V47.9151C223.077 47.4974 222.972 47.1764 222.766 46.9548C222.559 46.7332 222.282 46.6236 221.93 46.6236C221.579 46.6236 221.281 46.7408 221.067 46.9726C220.853 47.2044 220.746 47.5381 220.746 47.9788V50.2867H220.05V46.0989H220.746V46.7026C220.883 46.4835 221.067 46.3154 221.298 46.1982C221.53 46.0811 221.788 46.0225 222.068 46.0225C222.419 46.0225 222.73 46.1014 223 46.2594C223.27 46.4173 223.471 46.6491 223.604 46.9548C223.721 46.6593 223.915 46.43 224.185 46.267C224.455 46.104 224.755 46.0225 225.086 46.0225C225.418 46.0225 225.703 46.0912 225.958 46.2237V46.2186Z" fill="white"/>
<path d="M233.248 48.4442H229.901C229.926 48.8569 230.066 49.1804 230.326 49.4097C230.583 49.6415 230.897 49.7587 231.261 49.7587C231.561 49.7587 231.814 49.6899 232.015 49.5472C232.216 49.4071 232.356 49.2212 232.44 48.9843H233.189C233.077 49.3867 232.853 49.7153 232.517 49.9675C232.18 50.2197 231.763 50.3445 231.263 50.3445C230.866 50.3445 230.509 50.2554 230.199 50.0771C229.885 49.8988 229.638 49.6466 229.46 49.318C229.282 48.9894 229.192 48.6073 229.192 48.1742C229.192 47.7412 229.279 47.3616 229.452 47.0355C229.625 46.7095 229.87 46.4573 230.183 46.2815C230.497 46.1058 230.856 46.0166 231.266 46.0166C231.676 46.0166 232.015 46.1032 232.321 46.2764C232.626 46.4497 232.861 46.6891 233.029 46.9922C233.194 47.2954 233.276 47.6393 233.276 48.0214C233.276 48.1538 233.268 48.2939 233.253 48.4417L233.248 48.4442ZM232.377 47.196C232.259 47.005 232.101 46.8598 231.898 46.7604C231.696 46.6611 231.472 46.6127 231.23 46.6127C230.879 46.6127 230.581 46.7248 230.334 46.9489C230.087 47.1731 229.944 47.4839 229.908 47.8813H232.552C232.552 47.6163 232.494 47.3871 232.377 47.196Z" fill="white"/>
<path d="M238.992 46.4773C239.308 46.7855 239.466 47.2313 239.466 47.8095V50.2779H238.778V47.9089C238.778 47.4911 238.673 47.1702 238.465 46.9485C238.256 46.7269 237.97 46.6174 237.609 46.6174C237.247 46.6174 236.951 46.732 236.735 46.9613C236.518 47.1905 236.409 47.5242 236.409 47.9624V50.2779H235.713V46.0901H236.409V46.6862C236.546 46.4722 236.735 46.3066 236.972 46.1894C237.209 46.0723 237.468 46.0137 237.756 46.0137C238.266 46.0137 238.678 46.1691 238.994 46.4773H238.992Z" fill="white"/>
<path d="M242.984 46.6643V49.1326C242.984 49.3364 243.027 49.4816 243.114 49.5657C243.2 49.6498 243.35 49.6931 243.564 49.6931H244.076V50.2815H243.45C243.063 50.2815 242.772 50.1923 242.579 50.014C242.385 49.8357 242.288 49.5428 242.288 49.1352V46.6668H241.746V46.0937H242.288V45.0391H242.984V46.0937H244.076V46.6668H242.984V46.6643Z" fill="white"/>
</svg>
