<svg width="54" height="54" viewBox="0 0 54 54" fill="none" xmlns="http://www.w3.org/2000/svg">
<g filter="url(#filter0_ddiii_890_24314)">
<mask id="path-1-inside-1_890_24314" fill="white">
<path fill-rule="evenodd" clip-rule="evenodd" d="M48.9889 36.905C44.7573 44.7044 36.4971 50 27 50C13.1929 50 2 38.8071 2 25C2 21.9064 2.56192 18.944 3.58927 16.2093L11.1238 36.9049H16.3328L18.9373 29.7505L21.5418 36.9049H26.7428L24.1463 29.7505L21.1158 21.4226L18.0852 13.1026H12.8762L16.3328 22.5962L13.7283 29.7505L7.66724 13.1026H5.00699C9.23734 5.29904 17.4998 0 27 0C36.5132 0 44.7854 5.31365 49.0105 13.1349H46.6465V22.5722H36.8555V13.1349H35.4006L35.4086 13.1027H30.2076L26.5581 23.1108L29.1626 30.2651L31.9601 22.5802V27.4677H36.8555H46.6465V36.905H48.9889ZM51.542 29.7877C51.8426 28.2381 52 26.6374 52 25C52 23.3626 51.8426 21.7619 51.542 20.2123V29.7877ZM31.9602 32.0095H36.8557V36.905H31.9602V32.0095Z"/>
</mask>
<path fill-rule="evenodd" clip-rule="evenodd" d="M48.9889 36.905C44.7573 44.7044 36.4971 50 27 50C13.1929 50 2 38.8071 2 25C2 21.9064 2.56192 18.944 3.58927 16.2093L11.1238 36.9049H16.3328L18.9373 29.7505L21.5418 36.9049H26.7428L24.1463 29.7505L21.1158 21.4226L18.0852 13.1026H12.8762L16.3328 22.5962L13.7283 29.7505L7.66724 13.1026H5.00699C9.23734 5.29904 17.4998 0 27 0C36.5132 0 44.7854 5.31365 49.0105 13.1349H46.6465V22.5722H36.8555V13.1349H35.4006L35.4086 13.1027H30.2076L26.5581 23.1108L29.1626 30.2651L31.9601 22.5802V27.4677H36.8555H46.6465V36.905H48.9889ZM51.542 29.7877C51.8426 28.2381 52 26.6374 52 25C52 23.3626 51.8426 21.7619 51.542 20.2123V29.7877ZM31.9602 32.0095H36.8557V36.905H31.9602V32.0095Z" fill="#993AE2"/>
<path d="M48.9889 36.905L50.1248 37.5213L51.1604 35.6126H48.9889V36.905ZM3.58927 16.2093L4.80367 15.7672L3.60829 12.4838L2.37944 15.7548L3.58927 16.2093ZM11.1238 36.9049L9.90943 37.347L10.219 38.1973H11.1238V36.9049ZM16.3328 36.9049V38.1973H17.2377L17.5472 37.347L16.3328 36.9049ZM18.9373 29.7505L20.1517 29.3085L18.9373 25.9726L17.7229 29.3085L18.9373 29.7505ZM21.5418 36.9049L20.3274 37.347L20.637 38.1973H21.5418V36.9049ZM26.7428 36.9049V38.1973H28.5867L27.9576 36.464L26.7428 36.9049ZM24.1463 29.7505L25.3612 29.3097L25.3608 29.3086L24.1463 29.7505ZM21.1158 21.4226L22.3303 20.9806L22.3301 20.9803L21.1158 21.4226ZM18.0852 13.1026L19.2996 12.6603L18.9899 11.8103H18.0852V13.1026ZM12.8762 13.1026V11.8103H11.0303L11.6619 13.5448L12.8762 13.1026ZM16.3328 22.5962L17.5472 23.0383L17.7082 22.5962L17.5472 22.1541L16.3328 22.5962ZM13.7283 29.7505L12.5139 30.1927L13.7284 33.5284L14.9427 30.1926L13.7283 29.7505ZM7.66724 13.1026L8.88163 12.6605L8.57208 11.8103H7.66724V13.1026ZM5.00699 13.1026L3.87082 12.4867L2.83632 14.395H5.00699V13.1026ZM49.0105 13.1349V14.4273H51.1775L50.1475 12.5206L49.0105 13.1349ZM46.6465 13.1349V11.8425H45.3542V13.1349H46.6465ZM46.6465 22.5722V23.8646H47.9389V22.5722H46.6465ZM36.8555 22.5722H35.5632V23.8646H36.8555V22.5722ZM36.8555 13.1349H38.1479V11.8425H36.8555V13.1349ZM35.4006 13.1349L34.1468 12.8215L33.7454 14.4273H35.4006V13.1349ZM35.4086 13.1027L36.6624 13.4161L37.0638 11.8104H35.4086V13.1027ZM30.2076 13.1027V11.8104H29.3033L28.9935 12.66L30.2076 13.1027ZM26.5581 23.1108L25.344 22.668L25.1826 23.1104L25.3437 23.5529L26.5581 23.1108ZM29.1626 30.2651L27.9482 30.7072L29.1627 34.0432L30.377 30.7072L29.1626 30.2651ZM31.9601 22.5802H33.2524L30.7456 22.1382L31.9601 22.5802ZM31.9601 27.4677H30.6677V28.7601H31.9601V27.4677ZM46.6465 27.4677H47.9389V26.1753H46.6465V27.4677ZM46.6465 36.905H45.3542V38.1974H46.6465V36.905ZM51.542 29.7877H50.2497L52.8108 30.0337L51.542 29.7877ZM51.542 20.2123L52.8108 19.9662L50.2497 20.2123H51.542ZM36.8557 32.0095H38.1481V30.7171H36.8557V32.0095ZM31.9602 32.0095V30.7171H30.6678V32.0095H31.9602ZM36.8557 36.905V38.1974H38.1481V36.905H36.8557ZM31.9602 36.905H30.6678V38.1974H31.9602V36.905ZM27 51.2924C36.9898 51.2924 45.6763 45.7206 50.1248 37.5213L47.8529 36.2887C43.8383 43.6882 36.0043 48.7076 27 48.7076V51.2924ZM0.707623 25C0.707623 39.5209 12.4791 51.2924 27 51.2924V48.7076C13.9066 48.7076 3.29238 38.0934 3.29238 25H0.707623ZM2.37944 15.7548C1.29834 18.6326 0.707623 21.7488 0.707623 25H3.29238C3.29238 22.0639 3.8255 19.2554 4.79909 16.6638L2.37944 15.7548ZM2.37487 16.6514L9.90943 37.347L12.3382 36.4628L4.80367 15.7672L2.37487 16.6514ZM11.1238 38.1973H16.3328V35.6125H11.1238V38.1973ZM17.5472 37.347L20.1517 30.1926L17.7229 29.3085L15.1184 36.4628L17.5472 37.347ZM17.7229 30.1926L20.3274 37.347L22.7562 36.4628L20.1517 29.3085L17.7229 30.1926ZM21.5418 38.1973H26.7428V35.6125H21.5418V38.1973ZM27.9576 36.464L25.3612 29.3097L22.9315 30.1914L25.528 37.3458L27.9576 36.464ZM25.3608 29.3086L22.3303 20.9806L19.9013 21.8645L22.9319 30.1925L25.3608 29.3086ZM22.3301 20.9803L19.2996 12.6603L16.8709 13.545L19.9015 21.8649L22.3301 20.9803ZM18.0852 11.8103H12.8762V14.395H18.0852V11.8103ZM11.6619 13.5448L15.1184 23.0384L17.5472 22.1541L14.0906 12.6605L11.6619 13.5448ZM15.1184 22.1541L12.5139 29.3085L14.9427 30.1926L17.5472 23.0383L15.1184 22.1541ZM14.9427 29.3084L8.88163 12.6605L6.45284 13.5448L12.5139 30.1927L14.9427 29.3084ZM7.66724 11.8103H5.00699V14.395H7.66724V11.8103ZM27 -1.29238C17.007 -1.29238 8.31807 4.28302 3.87082 12.4867L6.14316 13.7186C10.1566 6.31506 17.9927 1.29238 27 1.29238V-1.29238ZM50.1475 12.5206C45.7059 4.29838 37.0068 -1.29238 27 -1.29238V1.29238C36.0197 1.29238 43.865 6.32891 47.8734 13.7491L50.1475 12.5206ZM46.6465 14.4273H49.0105V11.8425H46.6465V14.4273ZM47.9389 22.5722V13.1349H45.3542V22.5722H47.9389ZM36.8555 23.8646H46.6465V21.2798H36.8555V23.8646ZM35.5632 13.1349V22.5722H38.1479V13.1349H35.5632ZM35.4006 14.4273H36.8555V11.8425H35.4006V14.4273ZM34.1548 12.7893L34.1468 12.8215L36.6544 13.4483L36.6624 13.4161L34.1548 12.7893ZM30.2076 14.3951H35.4086V11.8104H30.2076V14.3951ZM27.7723 23.5535L31.4218 13.5455L28.9935 12.66L25.344 22.668L27.7723 23.5535ZM30.377 29.823L27.7725 22.6687L25.3437 23.5529L27.9482 30.7072L30.377 29.823ZM30.7456 22.1382L27.9482 29.8231L30.377 30.7072L33.1745 23.0223L30.7456 22.1382ZM33.2524 27.4677V22.5802H30.6677V27.4677H33.2524ZM36.8555 26.1753H31.9601V28.7601H36.8555V26.1753ZM46.6465 26.1753H36.8555V28.7601H46.6465V26.1753ZM47.9389 36.905V27.4677H45.3542V36.905H47.9389ZM48.9889 35.6126H46.6465V38.1974H48.9889V35.6126ZM52.8108 30.0337C53.127 28.4035 53.2924 26.7204 53.2924 25H50.7076C50.7076 26.5544 50.5582 28.0727 50.2733 29.5416L52.8108 30.0337ZM53.2924 25C53.2924 23.2796 53.127 21.5965 52.8108 19.9662L50.2733 20.4584C50.5582 21.9273 50.7076 23.4456 50.7076 25H53.2924ZM50.2497 20.2123V29.7877H52.8344V20.2123H50.2497ZM36.8557 30.7171H31.9602V33.3019H36.8557V30.7171ZM38.1481 36.905V32.0095H35.5633V36.905H38.1481ZM31.9602 38.1974H36.8557V35.6126H31.9602V38.1974ZM30.6678 32.0095V36.905H33.2526V32.0095H30.6678Z" fill="#993AE2" mask="url(#path-1-inside-1_890_24314)"/>
</g>
<defs>
<filter id="filter0_ddiii_890_24314" x="0.0614347" y="-1.93857" width="53.8771" height="55.8157" filterUnits="userSpaceOnUse" color-interpolation-filters="sRGB">
<feFlood flood-opacity="0" result="BackgroundImageFix"/>
<feColorMatrix in="SourceAlpha" type="matrix" values="0 0 0 0 0 0 0 0 0 0 0 0 0 0 0 0 0 0 127 0" result="hardAlpha"/>
<feOffset dy="0.646188"/>
<feGaussianBlur stdDeviation="0.323094"/>
<feComposite in2="hardAlpha" operator="out"/>
<feColorMatrix type="matrix" values="0 0 0 0 0.162923 0 0 0 0 0.162923 0 0 0 0 0.162923 0 0 0 0.08 0"/>
<feBlend mode="normal" in2="BackgroundImageFix" result="effect1_dropShadow_890_24314"/>
<feColorMatrix in="SourceAlpha" type="matrix" values="0 0 0 0 0 0 0 0 0 0 0 0 0 0 0 0 0 0 127 0" result="hardAlpha"/>
<feMorphology radius="0.646188" operator="erode" in="SourceAlpha" result="effect2_dropShadow_890_24314"/>
<feOffset dy="1.93857"/>
<feGaussianBlur stdDeviation="1.29238"/>
<feComposite in2="hardAlpha" operator="out"/>
<feColorMatrix type="matrix" values="0 0 0 0 0.164706 0 0 0 0 0.164706 0 0 0 0 0.164706 0 0 0 0.14 0"/>
<feBlend mode="normal" in2="effect1_dropShadow_890_24314" result="effect2_dropShadow_890_24314"/>
<feBlend mode="normal" in="SourceGraphic" in2="effect2_dropShadow_890_24314" result="shape"/>
<feColorMatrix in="SourceAlpha" type="matrix" values="0 0 0 0 0 0 0 0 0 0 0 0 0 0 0 0 0 0 127 0" result="hardAlpha"/>
<feOffset dy="-1.93857"/>
<feGaussianBlur stdDeviation="0.969283"/>
<feComposite in2="hardAlpha" operator="arithmetic" k2="-1" k3="1"/>
<feColorMatrix type="matrix" values="0 0 0 0 0 0 0 0 0 0 0 0 0 0 0 0 0 0 0.1 0"/>
<feBlend mode="normal" in2="shape" result="effect3_innerShadow_890_24314"/>
<feColorMatrix in="SourceAlpha" type="matrix" values="0 0 0 0 0 0 0 0 0 0 0 0 0 0 0 0 0 0 127 0" result="hardAlpha"/>
<feOffset dy="1.93857"/>
<feGaussianBlur stdDeviation="0.969283"/>
<feComposite in2="hardAlpha" operator="arithmetic" k2="-1" k3="1"/>
<feColorMatrix type="matrix" values="0 0 0 0 1 0 0 0 0 1 0 0 0 0 1 0 0 0 0.1 0"/>
<feBlend mode="normal" in2="effect3_innerShadow_890_24314" result="effect4_innerShadow_890_24314"/>
<feColorMatrix in="SourceAlpha" type="matrix" values="0 0 0 0 0 0 0 0 0 0 0 0 0 0 0 0 0 0 127 0" result="hardAlpha"/>
<feMorphology radius="0.646188" operator="erode" in="SourceAlpha" result="effect5_innerShadow_890_24314"/>
<feOffset/>
<feComposite in2="hardAlpha" operator="arithmetic" k2="-1" k3="1"/>
<feColorMatrix type="matrix" values="0 0 0 0 0.0627451 0 0 0 0 0.0941176 0 0 0 0 0.156863 0 0 0 0.24 0"/>
<feBlend mode="normal" in2="effect4_innerShadow_890_24314" result="effect5_innerShadow_890_24314"/>
</filter>
</defs>
</svg>
