<svg width="280" height="80" viewBox="0 0 280 80" fill="none" xmlns="http://www.w3.org/2000/svg">
<path d="M56.2125 44.9779V55.3202C47.5858 56.5202 39.7707 56.6473 31.292 54.3837C16.8918 50.5409 6.11949 38.957 0.526367 25.4817L7.87442 19.3545C9.92068 22.5129 11.2733 26.0297 13.308 29.202C23.1023 44.4692 38.6424 50.0184 56.2125 44.9779Z" fill="#361642"/>
<path d="M49.0166 21.1534C51.5554 20.4922 54.8779 17.5626 57.0953 16.8343C57.6248 16.6609 57.9254 16.5222 58.4548 16.8551C58.878 17.121 62.7763 23.1974 63.3173 24.1569C73.9186 42.9617 71.5995 63.4567 58.1473 80.0003L49.4628 76.2199C56.9727 65.7342 62.7532 53.8012 59.9647 40.5502C58.397 33.1027 54.182 26.5824 49.0166 21.1534Z" fill="#9440D1"/>
<path d="M77.3222 3.18525L78.2424 13.0489C63.1995 10.1125 46.656 12.7553 36.8871 25.4282C33.8581 29.3589 31.0859 34.2237 30.1263 39.1301L21.7771 33.7335L21.6592 33.1462C30.7252 10.6189 53.2502 -1.56162 77.3222 3.18525Z" fill="#44A8B4"/>
<path d="M25.5135 56.3193C34.2835 55.5632 35.1043 69.7344 25.8534 69.6211C17.7539 69.5217 17.2544 57.0314 25.5135 56.3193Z" fill="#361642"/>
<path d="M27.7655 0.121846C37.8534 -1.53135 37.9922 14.2052 28.1493 13.0145C20.933 12.1405 20.5585 1.30105 27.7655 0.121846Z" fill="#44A8B4"/>
<path d="M83.0377 30.7417C89.4447 37.1487 79.1163 46.3026 73.4538 39.8771C67.8584 33.5233 77.2227 24.929 83.0377 30.7417Z" fill="#9440D1"/>
<path d="M96.998 20.168H100.432L108.985 38.3295H109.051L117.141 20.5312H120.212L128.137 38.3295H128.203L136.722 20.168H139.958L129.689 41.8957H126.354L118.594 24.5598H118.528L110.603 41.8957H107.235L96.998 20.168Z" fill="black"/>
<path d="M143.293 20.168H163.172V22.8757H146.397V29.744H159.869V32.1876H146.397V39.188H163.502V41.8957H143.293V20.168Z" fill="black"/>
<path d="M189.126 36.7445H172.484L169.38 41.8957H165.979L179.187 20.168H182.687L195.895 41.8957H192.23L189.126 36.7445ZM187.673 34.3009L180.838 22.9417H180.772L173.937 34.3009H187.673Z" fill="black"/>
<path d="M192.495 20.168H196.127L207.454 39.155H207.52L218.78 20.168H222.247L209.171 41.8957H205.571L192.495 20.168Z" fill="black"/>
<path d="M225.582 20.168H228.686V29.3148H248.168V20.168H251.272V41.8957H248.168V31.8243H228.686V41.8957H225.582V20.168Z" fill="black"/>
<path d="M256.225 20.168H269.895C276.466 20.168 279.471 22.6115 279.471 26.4419C279.471 28.9515 277.952 30.9328 275.311 31.5602V31.6262C278.117 32.1546 279.339 34.1688 279.339 37.2398V41.8957H276.235V37.2398C276.235 34.466 274.716 33.0461 271.249 33.0461H259.329V41.8957H256.225V20.168ZM270.688 30.6026C274.65 30.6026 276.566 29.1166 276.566 26.8052C276.566 24.4937 274.518 22.8757 269.466 22.8757H259.329V30.6026H270.688Z" fill="black"/>
<path d="M98.0228 57.3096C97.7055 57.1669 97.4551 56.969 97.2775 56.7157C97.097 56.4624 97.0039 56.1684 96.998 55.8394H97.8452C97.8743 56.1247 97.9908 56.3663 98.1975 56.5585C98.4042 56.7535 98.704 56.8525 99.1 56.8525C99.4959 56.8525 99.7783 56.7564 99.9966 56.5672C100.215 56.378 100.323 56.1364 100.323 55.8394C100.323 55.6065 100.259 55.4173 100.131 55.2717C100.002 55.1262 99.8423 55.0155 99.6502 54.9398C99.4581 54.8641 99.199 54.7826 98.8729 54.6953C98.4711 54.5905 98.148 54.4857 97.9093 54.3809C97.6676 54.2761 97.4609 54.113 97.2892 53.886C97.1174 53.6618 97.033 53.3619 97.033 52.9835C97.033 52.6516 97.1174 52.3575 97.2863 52.1014C97.4551 51.8452 97.6938 51.6472 97.9966 51.5075C98.3023 51.3677 98.6516 51.2979 99.0476 51.2979C99.6182 51.2979 100.084 51.4405 100.451 51.7258C100.815 52.0111 101.018 52.3896 101.065 52.8612H100.192C100.163 52.6283 100.04 52.4245 99.8249 52.244C99.6094 52.0664 99.3241 51.9762 98.969 51.9762C98.6371 51.9762 98.3663 52.0606 98.1567 52.2324C97.9471 52.4041 97.8423 52.6458 97.8423 52.9514C97.8423 53.1727 97.9034 53.3532 98.0315 53.4929C98.1567 53.6327 98.311 53.7404 98.4944 53.8103C98.6778 53.883 98.9369 53.9675 99.2659 54.0606C99.6677 54.1713 99.9908 54.279 100.235 54.3867C100.48 54.4944 100.69 54.6603 100.864 54.8845C101.039 55.1087 101.126 55.4144 101.126 55.7957C101.126 56.0927 101.048 56.3722 100.89 56.6342C100.733 56.8962 100.5 57.1087 100.192 57.2717C99.8831 57.4348 99.5192 57.5163 99.1 57.5163C98.6807 57.5163 98.3372 57.4435 98.0199 57.3009L98.0228 57.3096Z" fill="black"/>
<path d="M104.072 51.7402C103.967 51.6354 103.915 51.5073 103.915 51.356C103.915 51.2046 103.967 51.0765 104.072 50.9717C104.177 50.8669 104.305 50.8145 104.457 50.8145C104.608 50.8145 104.724 50.8669 104.826 50.9717C104.928 51.0765 104.978 51.2046 104.978 51.356C104.978 51.5073 104.925 51.6354 104.826 51.7402C104.724 51.845 104.599 51.8974 104.457 51.8974C104.314 51.8974 104.177 51.845 104.072 51.7402ZM104.841 52.6747V57.4608H104.046V52.6747H104.841Z" fill="black"/>
<path d="M114.693 52.8199C114.984 52.9742 115.214 53.2071 115.383 53.5157C115.551 53.8243 115.636 54.1998 115.636 54.6423V57.4633H114.85V54.7558C114.85 54.2784 114.73 53.9116 114.498 53.6583C114.262 53.405 113.941 53.2798 113.54 53.2798C113.138 53.2798 112.797 53.4138 112.553 53.6787C112.308 53.9436 112.186 54.325 112.186 54.8286V57.4662H111.4V54.7588C111.4 54.2813 111.284 53.9145 111.048 53.6612C110.812 53.4079 110.492 53.2828 110.09 53.2828C109.688 53.2828 109.348 53.4167 109.103 53.6816C108.858 53.9465 108.736 54.3279 108.736 54.8315V57.4691H107.941V52.683H108.736V53.373C108.893 53.1226 109.103 52.9305 109.368 52.7966C109.633 52.6627 109.927 52.5957 110.247 52.5957C110.649 52.5957 111.004 52.6859 111.313 52.8664C111.621 53.0469 111.851 53.3119 112.003 53.6612C112.137 53.3235 112.358 53.0615 112.666 52.8752C112.975 52.6889 113.318 52.5957 113.697 52.5957C114.075 52.5957 114.401 52.6743 114.693 52.8257V52.8199Z" fill="black"/>
<path d="M120.18 52.8723C120.491 52.6889 120.852 52.5957 121.266 52.5957C121.679 52.5957 122.075 52.6976 122.425 52.9014C122.771 53.1052 123.042 53.3934 123.243 53.7631C123.441 54.1328 123.54 54.5637 123.54 55.0499C123.54 55.5361 123.441 55.964 123.243 56.3425C123.045 56.7209 122.771 57.015 122.425 57.2246C122.078 57.4342 121.691 57.539 121.266 57.539C120.841 57.539 120.497 57.4488 120.186 57.2653C119.874 57.0819 119.636 56.8519 119.475 56.5783V59.7312H118.681V52.6743H119.475V53.5564C119.633 53.2828 119.866 53.0557 120.18 52.8723ZM122.509 54.1066C122.363 53.8388 122.165 53.635 121.918 53.4953C121.671 53.3555 121.4 53.2857 121.103 53.2857C120.806 53.2857 120.541 53.3584 120.296 53.4982C120.049 53.6408 119.851 53.8475 119.703 54.1183C119.554 54.389 119.478 54.7005 119.478 55.0557C119.478 55.4109 119.551 55.734 119.703 56.0019C119.851 56.2726 120.049 56.4793 120.296 56.622C120.544 56.7646 120.812 56.8374 121.103 56.8374C121.394 56.8374 121.671 56.7646 121.918 56.622C122.165 56.4793 122.36 56.2726 122.509 56.0019C122.655 55.7311 122.727 55.4138 122.727 55.0441C122.727 54.6743 122.655 54.3686 122.509 54.1008V54.1066Z" fill="black"/>
<path d="M127.13 50.9971V57.46H126.335V50.9971H127.13Z" fill="black"/>
<path d="M130.256 51.7402C130.151 51.6354 130.099 51.5073 130.099 51.356C130.099 51.2046 130.151 51.0765 130.256 50.9717C130.361 50.8669 130.489 50.8145 130.64 50.8145C130.792 50.8145 130.908 50.8669 131.01 50.9717C131.112 51.0765 131.161 51.2046 131.161 51.356C131.161 51.5073 131.109 51.6354 131.01 51.7402C130.908 51.845 130.783 51.8974 130.64 51.8974C130.497 51.8974 130.361 51.845 130.256 51.7402ZM131.024 52.6747V57.4608H130.23V52.6747H131.024Z" fill="black"/>
<path d="M136.073 53.3296H135.068V57.4607H134.273V53.3296H133.653V52.6746H134.273V52.334C134.273 51.7983 134.413 51.4082 134.69 51.1607C134.966 50.9133 135.412 50.7881 136.02 50.7881V51.4519C135.671 51.4519 135.426 51.5217 135.284 51.6586C135.141 51.7954 135.068 52.0195 135.068 52.334V52.6746H136.073V53.3296Z" fill="black"/>
<path d="M142.868 52.6748L139.986 59.7142H139.165L140.108 57.4085L138.178 52.6748H139.06L140.562 56.5526L142.047 52.6748H142.868Z" fill="black"/>
<path d="M145.435 51.7402C145.33 51.6354 145.277 51.5073 145.277 51.356C145.277 51.2046 145.33 51.0765 145.435 50.9717C145.539 50.8669 145.667 50.8145 145.819 50.8145C145.97 50.8145 146.087 50.8669 146.189 50.9717C146.29 51.0765 146.34 51.2046 146.34 51.356C146.34 51.5073 146.288 51.6354 146.189 51.7402C146.087 51.845 145.961 51.8974 145.819 51.8974C145.676 51.8974 145.539 51.845 145.435 51.7402ZM146.203 52.6747V57.4608H145.408V52.6747H146.203Z" fill="black"/>
<path d="M153.051 53.1168C153.412 53.469 153.593 53.9785 153.593 54.6393V57.4603H152.807V54.7529C152.807 54.2754 152.688 53.9086 152.449 53.6553C152.21 53.4021 151.884 53.2769 151.471 53.2769C151.057 53.2769 150.72 53.4079 150.469 53.6699C150.222 53.9319 150.099 54.3133 150.099 54.814V57.4603H149.305V52.6742H150.099V53.3555C150.257 53.1109 150.469 52.9217 150.743 52.7878C151.014 52.6539 151.311 52.5869 151.637 52.5869C152.219 52.5869 152.69 52.7645 153.051 53.1168Z" fill="black"/>
<path d="M159.7 52.8665C160.012 53.047 160.242 53.274 160.393 53.5477V52.6743H161.197V57.5652C161.197 58.0019 161.104 58.3891 160.917 58.7297C160.731 59.0703 160.463 59.3353 160.12 59.5303C159.773 59.7225 159.369 59.8185 158.909 59.8185C158.28 59.8185 157.756 59.6701 157.336 59.3731C156.917 59.0762 156.67 58.6715 156.594 58.1591H157.38C157.467 58.4502 157.648 58.6832 157.922 58.8636C158.195 59.0412 158.524 59.1315 158.909 59.1315C159.345 59.1315 159.703 58.9946 159.98 58.721C160.256 58.4473 160.393 58.0631 160.393 57.5681V56.5638C160.236 56.8432 160.003 57.0761 159.695 57.2625C159.386 57.4488 159.025 57.5419 158.612 57.5419C158.198 57.5419 157.799 57.4371 157.456 57.2275C157.109 57.0179 156.836 56.7239 156.638 56.3454C156.44 55.9669 156.341 55.5361 156.341 55.0528C156.341 54.5696 156.44 54.1358 156.638 53.766C156.836 53.3963 157.106 53.111 157.456 52.9043C157.802 52.7005 158.187 52.5986 158.612 52.5986C159.037 52.5986 159.389 52.6889 159.7 52.8694V52.8665ZM160.178 54.1154C160.032 53.8476 159.834 53.6438 159.59 53.4982C159.342 53.3556 159.069 53.2857 158.772 53.2857C158.475 53.2857 158.204 53.3556 157.959 53.4953C157.715 53.635 157.52 53.8388 157.374 54.1067C157.229 54.3745 157.156 54.6889 157.156 55.0499C157.156 55.4109 157.229 55.737 157.374 56.0077C157.52 56.2785 157.715 56.4852 157.959 56.6278C158.204 56.7705 158.475 56.8432 158.772 56.8432C159.069 56.8432 159.339 56.7705 159.59 56.6278C159.837 56.4852 160.032 56.2785 160.178 56.0077C160.323 55.737 160.396 55.4226 160.396 55.0616C160.396 54.7006 160.323 54.3861 160.178 54.1183V54.1154Z" fill="black"/>
<path d="M171.919 54.4182C171.572 54.753 171.046 54.9189 170.335 54.9189H169.165V57.4605H168.37V51.373H170.335C171.022 51.373 171.543 51.539 171.901 51.8709C172.26 52.2028 172.44 52.6307 172.44 53.1547C172.44 53.6788 172.265 54.0834 171.919 54.4153V54.4182ZM171.313 53.9757C171.523 53.7836 171.628 53.5099 171.628 53.1547C171.628 52.4036 171.197 52.0281 170.335 52.0281H169.165V54.2639H170.335C170.778 54.2639 171.104 54.1678 171.313 53.9757Z" fill="black"/>
<path d="M179.515 55.3652H175.689C175.718 55.8369 175.878 56.2066 176.175 56.4686C176.469 56.7335 176.825 56.8674 177.244 56.8674C177.587 56.8674 177.873 56.7888 178.106 56.6258C178.336 56.4657 178.496 56.2532 178.592 55.9824H179.448C179.32 56.4424 179.063 56.818 178.679 57.1062C178.295 57.3944 177.817 57.537 177.247 57.537C176.793 57.537 176.385 57.4351 176.027 57.2314C175.669 57.0276 175.389 56.7394 175.183 56.3638C174.976 55.9883 174.877 55.5516 174.877 55.0566C174.877 54.5617 174.976 54.128 175.174 53.7553C175.372 53.3827 175.648 53.0945 176.007 52.8936C176.365 52.6927 176.778 52.5908 177.244 52.5908C177.71 52.5908 178.1 52.6898 178.449 52.8878C178.798 53.0857 179.066 53.3594 179.255 53.7058C179.445 54.0523 179.541 54.4453 179.541 54.882C179.541 55.0334 179.532 55.1935 179.515 55.3623V55.3652ZM178.519 53.9387C178.385 53.7204 178.205 53.5544 177.972 53.4409C177.742 53.3274 177.485 53.2721 177.209 53.2721C176.807 53.2721 176.464 53.4001 176.184 53.6563C175.902 53.9125 175.739 54.2677 175.698 54.7219H178.72C178.72 54.4191 178.653 54.1571 178.519 53.9387Z" fill="black"/>
<path d="M183.204 57.2343C182.84 57.0305 182.554 56.7423 182.348 56.3667C182.141 55.9912 182.039 55.5545 182.039 55.0596C182.039 54.5647 182.144 54.1367 182.356 53.7612C182.569 53.3856 182.86 53.0974 183.227 52.8965C183.594 52.6956 184.004 52.5938 184.458 52.5938C184.912 52.5938 185.323 52.6927 185.69 52.8965C186.057 53.0974 186.345 53.3827 186.557 53.7582C186.77 54.1309 186.878 54.5647 186.878 55.0596C186.878 55.5545 186.767 55.9912 186.552 56.3667C186.336 56.7423 186.036 57.0334 185.666 57.2343C185.294 57.4381 184.88 57.54 184.426 57.54C183.972 57.54 183.57 57.4381 183.206 57.2343H183.204ZM185.227 56.6404C185.477 56.5065 185.678 56.3056 185.832 56.0378C185.987 55.7699 186.062 55.4439 186.062 55.0596C186.062 54.6753 185.987 54.3492 185.835 54.0814C185.684 53.8136 185.486 53.6156 185.241 53.4846C184.997 53.3536 184.732 53.2895 184.447 53.2895C184.161 53.2895 183.888 53.3536 183.649 53.4846C183.407 53.6156 183.212 53.8165 183.067 54.0814C182.921 54.3492 182.848 54.6753 182.848 55.0596C182.848 55.4439 182.918 55.7787 183.061 56.0465C183.204 56.3143 183.393 56.5152 183.632 56.6462C183.87 56.7772 184.132 56.8413 184.418 56.8413C184.703 56.8413 184.971 56.7743 185.221 56.6404H185.227Z" fill="black"/>
<path d="M191.168 52.8723C191.48 52.6889 191.841 52.5957 192.257 52.5957C192.673 52.5957 193.066 52.6976 193.413 52.9014C193.759 53.1052 194.03 53.3934 194.231 53.7631C194.429 54.1328 194.528 54.5637 194.528 55.0499C194.528 55.5361 194.429 55.964 194.231 56.3425C194.033 56.7209 193.759 57.015 193.413 57.2246C193.066 57.4342 192.682 57.539 192.257 57.539C191.832 57.539 191.488 57.4488 191.177 57.2653C190.865 57.0819 190.627 56.8519 190.467 56.5783V59.7312H189.672V52.6743H190.467V53.5564C190.624 53.2828 190.857 53.0557 191.168 52.8723ZM193.497 54.1066C193.352 53.8388 193.157 53.635 192.906 53.4953C192.659 53.3555 192.388 53.2857 192.091 53.2857C191.794 53.2857 191.532 53.3584 191.285 53.4982C191.037 53.6408 190.839 53.8475 190.691 54.1183C190.542 54.389 190.467 54.7005 190.467 55.0557C190.467 55.4109 190.539 55.734 190.691 56.0019C190.839 56.2726 191.037 56.4793 191.285 56.622C191.532 56.7646 191.8 56.8374 192.091 56.8374C192.382 56.8374 192.662 56.7646 192.906 56.622C193.154 56.4793 193.352 56.2726 193.497 56.0019C193.643 55.7311 193.716 55.4138 193.716 55.0441C193.716 54.6743 193.643 54.3686 193.497 54.1008V54.1066Z" fill="black"/>
<path d="M198.117 50.9971V57.46H197.322V50.9971H198.117Z" fill="black"/>
<path d="M205.559 55.3652H201.733C201.762 55.8369 201.925 56.2066 202.219 56.4686C202.513 56.7335 202.871 56.8674 203.288 56.8674C203.631 56.8674 203.92 56.7888 204.149 56.6258C204.379 56.4657 204.54 56.2532 204.636 55.9824H205.492C205.363 56.4424 205.107 56.818 204.723 57.1062C204.339 57.3944 203.861 57.537 203.291 57.537C202.837 57.537 202.429 57.4351 202.074 57.2314C201.716 57.0276 201.433 56.7394 201.23 56.3638C201.026 55.9883 200.924 55.5516 200.924 55.0566C200.924 54.5617 201.023 54.128 201.221 53.7553C201.419 53.3827 201.695 53.0945 202.053 52.8936C202.411 52.6927 202.825 52.5908 203.291 52.5908C203.756 52.5908 204.147 52.6898 204.496 52.8878C204.845 53.0857 205.113 53.3594 205.302 53.7058C205.492 54.0523 205.588 54.4453 205.588 54.882C205.588 55.0334 205.579 55.1935 205.561 55.3623L205.559 55.3652ZM204.563 53.9387C204.429 53.7204 204.248 53.5544 204.016 53.4409C203.786 53.3274 203.529 53.2721 203.253 53.2721C202.851 53.2721 202.51 53.4001 202.228 53.6563C201.946 53.9125 201.783 54.2677 201.742 54.7219H204.764C204.764 54.4191 204.697 54.1571 204.563 53.9387Z" fill="black"/>
<path d="M218.633 51.417V57.4608H217.838V52.9541L215.829 57.4608H215.27L213.253 52.9454V57.4608H212.458V51.417H213.314L215.55 56.4127L217.786 51.417H218.633Z" fill="black"/>
<path d="M221.725 53.7631C221.923 53.3934 222.196 53.1081 222.543 52.9014C222.889 52.6976 223.273 52.5957 223.698 52.5957C224.124 52.5957 224.482 52.6859 224.79 52.8664C225.099 53.0469 225.329 53.274 225.48 53.5477V52.6743H226.284V57.4604H225.48V56.5696C225.323 56.849 225.087 57.079 224.776 57.2624C224.464 57.4458 224.1 57.5361 223.687 57.5361C223.273 57.5361 222.878 57.4313 222.534 57.2217C222.19 57.0121 221.92 56.718 221.722 56.3396C221.524 55.9611 221.425 55.5302 221.425 55.047C221.425 54.5637 221.524 54.1299 221.722 53.7602L221.725 53.7631ZM225.262 54.1154C225.116 53.8475 224.918 53.6437 224.671 53.4982C224.423 53.3555 224.15 53.2857 223.856 53.2857C223.562 53.2857 223.288 53.3555 223.043 53.4953C222.799 53.635 222.604 53.8388 222.458 54.1066C222.313 54.3745 222.24 54.6889 222.24 55.0499C222.24 55.4109 222.313 55.7369 222.458 56.0077C222.604 56.2784 222.799 56.4851 223.043 56.6278C223.288 56.7704 223.559 56.8432 223.856 56.8432C224.153 56.8432 224.423 56.7704 224.671 56.6278C224.918 56.4851 225.116 56.2784 225.262 56.0077C225.407 55.7369 225.48 55.4225 225.48 55.0615C225.48 54.7005 225.407 54.3861 225.262 54.1183V54.1154Z" fill="black"/>
<path d="M233.122 53.1168C233.483 53.469 233.663 53.9785 233.663 54.6393V57.4603H232.877V54.7529C232.877 54.2754 232.758 53.9086 232.519 53.6553C232.28 53.4021 231.954 53.2769 231.541 53.2769C231.128 53.2769 230.787 53.4079 230.539 53.6699C230.292 53.9319 230.167 54.3133 230.167 54.814V57.4603H229.372V52.6742H230.167V53.3555C230.324 53.1109 230.539 52.9217 230.81 52.7878C231.081 52.6539 231.381 52.5869 231.707 52.5869C232.289 52.5869 232.761 52.7645 233.122 53.1168Z" fill="black"/>
<path d="M236.712 53.7631C236.91 53.3934 237.184 53.1081 237.53 52.9014C237.876 52.6976 238.261 52.5957 238.686 52.5957C239.111 52.5957 239.469 52.6859 239.778 52.8664C240.086 53.0469 240.316 53.274 240.467 53.5477V52.6743H241.271V57.4604H240.467V56.5696C240.31 56.849 240.074 57.079 239.763 57.2624C239.451 57.4458 239.088 57.5361 238.674 57.5361C238.261 57.5361 237.865 57.4313 237.521 57.2217C237.178 57.0121 236.907 56.718 236.709 56.3396C236.511 55.9611 236.412 55.5302 236.412 55.047C236.412 54.5637 236.511 54.1299 236.709 53.7602L236.712 53.7631ZM240.249 54.1154C240.104 53.8475 239.909 53.6437 239.658 53.4982C239.411 53.3555 239.14 53.2857 238.843 53.2857C238.546 53.2857 238.275 53.3555 238.031 53.4953C237.786 53.635 237.591 53.8388 237.446 54.1066C237.3 54.3745 237.227 54.6889 237.227 55.0499C237.227 55.4109 237.3 55.7369 237.446 56.0077C237.591 56.2784 237.786 56.4851 238.031 56.6278C238.275 56.7704 238.546 56.8432 238.843 56.8432C239.14 56.8432 239.414 56.7704 239.658 56.6278C239.906 56.4851 240.104 56.2784 240.249 56.0077C240.395 55.7369 240.467 55.4225 240.467 55.0615C240.467 54.7005 240.395 54.3861 240.249 54.1183V54.1154Z" fill="black"/>
<path d="M247.422 52.8665C247.734 53.047 247.964 53.274 248.115 53.5477V52.6743H248.918V57.5652C248.918 58.0019 248.825 58.3891 248.639 58.7297C248.453 59.0703 248.188 59.3353 247.838 59.5303C247.492 59.7225 247.087 59.8185 246.63 59.8185C246.001 59.8185 245.477 59.6701 245.058 59.3731C244.639 59.0762 244.391 58.6715 244.316 58.1591H245.102C245.189 58.4502 245.37 58.6832 245.643 58.8636C245.917 59.0412 246.246 59.1315 246.63 59.1315C247.067 59.1315 247.422 58.9946 247.699 58.721C247.975 58.4473 248.112 58.0631 248.112 57.5681V56.5638C247.955 56.8432 247.722 57.0761 247.413 57.2625C247.105 57.4488 246.744 57.5419 246.33 57.5419C245.917 57.5419 245.518 57.4371 245.175 57.2275C244.828 57.0179 244.554 56.7239 244.357 56.3454C244.159 55.9669 244.06 55.5361 244.06 55.0528C244.06 54.5696 244.159 54.1358 244.357 53.766C244.554 53.3963 244.828 53.111 245.175 52.9043C245.521 52.7005 245.905 52.5986 246.33 52.5986C246.755 52.5986 247.108 52.6889 247.419 52.8694L247.422 52.8665ZM247.9 54.1154C247.754 53.8476 247.559 53.6438 247.309 53.4982C247.061 53.3556 246.79 53.2857 246.493 53.2857C246.196 53.2857 245.926 53.3556 245.681 53.4953C245.437 53.635 245.242 53.8388 245.096 54.1067C244.95 54.3745 244.878 54.6889 244.878 55.0499C244.878 55.4109 244.95 55.737 245.096 56.0077C245.242 56.2785 245.437 56.4852 245.681 56.6278C245.926 56.7705 246.196 56.8432 246.493 56.8432C246.79 56.8432 247.064 56.7705 247.309 56.6278C247.556 56.4852 247.754 56.2785 247.9 56.0077C248.045 55.737 248.118 55.4226 248.118 55.0616C248.118 54.7006 248.045 54.3861 247.9 54.1183V54.1154Z" fill="black"/>
<path d="M258.765 52.8199C259.056 52.9742 259.286 53.2071 259.455 53.5157C259.624 53.8243 259.708 54.1998 259.708 54.6423V57.4633H258.922V54.7558C258.922 54.2784 258.803 53.9116 258.57 53.6583C258.334 53.405 258.014 53.2798 257.612 53.2798C257.21 53.2798 256.87 53.4138 256.625 53.6787C256.381 53.9436 256.258 54.325 256.258 54.8286V57.4662H255.472V54.7588C255.472 54.2813 255.353 53.9145 255.117 53.6612C254.881 53.4079 254.564 53.2828 254.162 53.2828C253.76 53.2828 253.42 53.4167 253.175 53.6816C252.931 53.9465 252.808 54.3279 252.808 54.8315V57.4691H252.014V52.683H252.808V53.373C252.966 53.1226 253.175 52.9305 253.44 52.7966C253.705 52.6627 253.999 52.5957 254.319 52.5957C254.721 52.5957 255.076 52.6859 255.385 52.8664C255.693 53.0469 255.923 53.3119 256.075 53.6612C256.209 53.3235 256.43 53.0615 256.739 52.8752C257.047 52.6889 257.391 52.5957 257.769 52.5957C258.148 52.5957 258.474 52.6743 258.765 52.8257V52.8199Z" fill="black"/>
<path d="M267.097 55.3652H263.271C263.3 55.8369 263.46 56.2066 263.757 56.4686C264.051 56.7335 264.41 56.8674 264.826 56.8674C265.169 56.8674 265.458 56.7888 265.688 56.6258C265.918 56.4657 266.078 56.2532 266.174 55.9824H267.03C266.902 56.4424 266.645 56.818 266.261 57.1062C265.877 57.3944 265.399 57.537 264.829 57.537C264.375 57.537 263.967 57.4351 263.612 57.2314C263.254 57.0276 262.971 56.7394 262.768 56.3638C262.564 55.9883 262.462 55.5516 262.462 55.0566C262.462 54.5617 262.561 54.128 262.759 53.7553C262.957 53.3827 263.236 53.0945 263.594 52.8936C263.952 52.6927 264.363 52.5908 264.832 52.5908C265.3 52.5908 265.688 52.6898 266.037 52.8878C266.386 53.0857 266.654 53.3594 266.846 53.7058C267.035 54.0523 267.129 54.4453 267.129 54.882C267.129 55.0334 267.12 55.1935 267.102 55.3623L267.097 55.3652ZM266.101 53.9387C265.967 53.7204 265.787 53.5544 265.554 53.4409C265.324 53.3274 265.067 53.2721 264.791 53.2721C264.389 53.2721 264.049 53.4001 263.766 53.6563C263.484 53.9125 263.321 54.2677 263.28 54.7219H266.302C266.302 54.4191 266.235 54.1571 266.101 53.9387Z" fill="black"/>
<path d="M273.661 53.1168C274.022 53.469 274.202 53.9785 274.202 54.6393V57.4603H273.416V54.7529C273.416 54.2754 273.297 53.9086 273.058 53.6553C272.819 53.4021 272.493 53.2769 272.08 53.2769C271.667 53.2769 271.329 53.4079 271.081 53.6699C270.834 53.9319 270.709 54.3133 270.709 54.814V57.4603H269.914V52.6742H270.709V53.3555C270.866 53.1109 271.081 52.9217 271.352 52.7878C271.623 52.6539 271.92 52.5869 272.249 52.5869C272.831 52.5869 273.303 52.7645 273.664 53.1168H273.661Z" fill="black"/>
<path d="M278.223 53.33V56.151C278.223 56.3839 278.273 56.5499 278.372 56.646C278.471 56.742 278.643 56.7915 278.887 56.7915H279.472V57.464H278.756C278.314 57.464 277.982 57.3621 277.761 57.1583C277.539 56.9545 277.429 56.6198 277.429 56.154V53.3329H276.809V52.6779H277.429V51.4727H278.223V52.6779H279.472V53.3329H278.223V53.33Z" fill="black"/>
</svg>
