<svg width="24" height="25" viewBox="0 0 24 25" fill="none" xmlns="http://www.w3.org/2000/svg">
<path d="M21.0002 24.0231H6.60019C5.52324 24.0231 4.6502 23.1501 4.6502 22.0731V2.87314C4.6502 1.79619 5.52324 0.923145 6.6002 0.923145H16.2002C16.2729 0.923145 16.3427 0.95204 16.3941 1.00347L22.8699 7.47921C22.9213 7.53065 22.9502 7.60041 22.9502 7.67314V22.0731C22.9502 23.1501 22.0772 24.0231 21.0002 24.0231Z" fill="white" stroke="#D0D5DD" stroke-width="0.9"/>
<path d="M16.2002 0.772949V5.27295C16.2002 6.59843 17.2747 7.67295 18.6002 7.67295H23.1002" stroke="#D0D5DD" stroke-width="0.9"/>
<rect x="0.599609" y="11.373" width="15.6" height="9.4" rx="1.2" fill="#D92D20"/>
<path d="M2.89879 18.5732V14.2096H4.62038C4.95135 14.2096 5.23331 14.2728 5.46626 14.3992C5.69922 14.5242 5.87678 14.6982 5.99893 14.9213C6.12251 15.1428 6.1843 15.3985 6.1843 15.6883C6.1843 15.9781 6.1218 16.2338 5.9968 16.4553C5.8718 16.6769 5.6907 16.8495 5.45348 16.9731C5.21768 17.0967 4.93217 17.1585 4.59695 17.1585H3.49964V16.4191H4.4478C4.62536 16.4191 4.77166 16.3886 4.88672 16.3275C5.0032 16.265 5.08984 16.1791 5.14666 16.0697C5.2049 15.9589 5.23402 15.8318 5.23402 15.6883C5.23402 15.5434 5.2049 15.417 5.14666 15.309C5.08984 15.1997 5.0032 15.1151 4.88672 15.0555C4.77024 14.9944 4.62251 14.9639 4.44354 14.9639H3.82138V18.5732H2.89879ZM8.33043 18.5732H6.78356V14.2096H8.34322C8.78214 14.2096 9.15998 14.297 9.47674 14.4717C9.7935 14.645 10.0371 14.8943 10.2076 15.2195C10.3794 15.5448 10.4654 15.934 10.4654 16.3872C10.4654 16.8417 10.3794 17.2323 10.2076 17.559C10.0371 17.8857 9.79208 18.1365 9.47248 18.3112C9.1543 18.4859 8.77362 18.5732 8.33043 18.5732ZM7.70614 17.7828H8.29208C8.56481 17.7828 8.79421 17.7345 8.98029 17.6379C9.16779 17.5399 9.30842 17.3886 9.40217 17.184C9.49734 16.9781 9.54492 16.7124 9.54492 16.3872C9.54492 16.0647 9.49734 15.8012 9.40217 15.5967C9.30842 15.3921 9.1685 15.2416 8.98242 15.145C8.79634 15.0484 8.56694 15.0001 8.29421 15.0001H7.70614V17.7828ZM11.1488 18.5732V14.2096H14.038V14.9703H12.0714V16.01H13.8462V16.7707H12.0714V18.5732H11.1488Z" fill="white"/>
</svg>
