<svg width="22" height="22" viewBox="0 0 22 22" fill="none" xmlns="http://www.w3.org/2000/svg">
<path d="M4.41845 13.4885L3.50595 7.55745C3.43845 7.11945 3.93745 6.82045 4.29195 7.08645L7.13495 9.21845C7.20885 9.27381 7.29325 9.31353 7.38301 9.33518C7.47277 9.35683 7.566 9.35996 7.65701 9.34438C7.74802 9.3288 7.8349 9.29483 7.91234 9.24455C7.98979 9.19428 8.05617 9.12874 8.10745 9.05195L10.4744 5.50195C10.7244 5.12695 11.2754 5.12695 11.5254 5.50195L13.8924 9.05195C13.9437 9.12874 14.0101 9.19428 14.0876 9.24455C14.165 9.29483 14.2519 9.3288 14.3429 9.34438C14.4339 9.35996 14.5271 9.35683 14.6169 9.33518C14.7066 9.31353 14.791 9.27381 14.8649 9.21845L17.7079 7.08645C18.0629 6.82045 18.5614 7.11945 18.4939 7.55745L17.5814 13.4885H4.41845ZM16.8949 16.7795H5.10495C5.01479 16.7795 4.92553 16.7617 4.84224 16.7272C4.75895 16.6927 4.68327 16.6421 4.61952 16.5784C4.49077 16.4496 4.41845 16.275 4.41845 16.093V14.5855H17.5814V16.093C17.5814 16.472 17.2739 16.7795 16.8949 16.7795Z" fill="#FFB743"/>
</svg>
