<svg width="82" height="20" viewBox="0 0 82 20" fill="none" xmlns="http://www.w3.org/2000/svg">
<path d="M77.7719 5.86111H81.1052V19.75H77.7719V5.86111ZM77.6052 1.83333C77.6052 1.33333 77.7812 0.907406 78.133 0.555555C78.4849 0.185184 78.92 0 79.4386 0C79.9571 0 80.3923 0.185184 80.7441 0.555555C81.096 0.907406 81.2719 1.33333 81.2719 1.83333C81.2719 2.37037 81.096 2.81481 80.7441 3.16667C80.3923 3.51852 79.9571 3.69445 79.4386 3.69445C78.92 3.69445 78.4849 3.51852 78.133 3.16667C77.7812 2.81481 77.6052 2.37037 77.6052 1.83333Z" fill="#0F172A"/>
<path d="M76.0926 0.305664V12.8334C76.0926 13.9446 75.8981 14.9446 75.5092 15.8334C75.1389 16.7223 74.6296 17.4723 73.9815 18.0834C73.3333 18.6946 72.5648 19.1668 71.6759 19.5001C70.787 19.8149 69.8333 19.9723 68.8148 19.9723C67.7592 19.9723 66.7963 19.8057 65.9259 19.4723C65.074 19.1205 64.3333 18.6297 63.7037 18.0001C63.074 17.3705 62.5833 16.6205 62.2314 15.7501C61.8981 14.8797 61.7314 13.9075 61.7314 12.8334C61.7314 11.7594 61.8981 10.7779 62.2314 9.889C62.5833 9.00011 63.0648 8.24085 63.6759 7.61122C64.287 6.98159 65.0185 6.50011 65.8703 6.16678C66.7222 5.81492 67.6481 5.639 68.6481 5.639C69.6481 5.639 70.5 5.79641 71.2037 6.11122C71.9074 6.42603 72.4259 6.79641 72.7592 7.22233V0.305664H76.0926ZM65.0648 12.8057C65.0648 14.102 65.4074 15.1112 66.0926 15.8334C66.7963 16.5557 67.7314 16.9168 68.8981 16.9168C70.0648 16.9168 71 16.5557 71.7037 15.8334C72.4074 15.1112 72.7592 14.102 72.7592 12.8057C72.7592 11.5094 72.4074 10.5001 71.7037 9.77789C71 9.05566 70.0648 8.69455 68.8981 8.69455C67.7314 8.69455 66.7963 9.05566 66.0926 9.77789C65.4074 10.5001 65.0648 11.5094 65.0648 12.8057Z" fill="#0F172A"/>
<path d="M56.8815 10.8609C56.5852 10.1758 56.1315 9.64799 55.5204 9.27762C54.9278 8.90725 54.2148 8.72206 53.3815 8.72206C52.5482 8.72206 51.8352 8.90725 51.2426 9.27762C50.65 9.64799 50.2056 10.1758 49.9093 10.8609H56.8815ZM53.3815 16.9443C54.7889 16.9443 55.8352 16.4443 56.5204 15.4443H60.1593C59.6963 16.8517 58.8723 17.9628 57.6871 18.7776C56.5204 19.5924 55.0945 19.9998 53.4093 19.9998C52.3352 19.9998 51.3537 19.8332 50.4648 19.4998C49.576 19.148 48.8167 18.6572 48.1871 18.0276C47.5574 17.398 47.0667 16.6387 46.7148 15.7498C46.3815 14.861 46.2148 13.8795 46.2148 12.8054C46.2148 11.7313 46.3815 10.7591 46.7148 9.88873C47.0667 8.99984 47.5574 8.24984 48.1871 7.63873C48.8167 7.0091 49.576 6.52762 50.4648 6.19428C51.3537 5.84243 52.3352 5.6665 53.4093 5.6665C54.4834 5.6665 55.4556 5.84243 56.326 6.19428C57.2148 6.52762 57.9741 7.0091 58.6037 7.63873C59.2334 8.24984 59.7148 8.99984 60.0482 9.88873C60.4 10.7591 60.576 11.7313 60.576 12.8054C60.576 13.0091 60.5667 13.2035 60.5482 13.3887C60.5482 13.5554 60.5389 13.7313 60.5204 13.9165H49.6593C49.8445 14.8795 50.2611 15.6295 50.9093 16.1665C51.5574 16.685 52.3815 16.9443 53.3815 16.9443Z" fill="#0F172A"/>
<path d="M29.0937 5.61133C30.2419 5.61133 31.1771 5.80577 31.8993 6.19466C32.64 6.56503 33.2234 7.04651 33.6493 7.63911C34.0937 8.21318 34.4085 8.84281 34.5937 9.52799C34.7789 10.2132 34.89 10.8613 34.9271 11.4724L35.4826 19.7502H32.1493V11.5558C32.1493 11.0558 32.0659 10.6298 31.8993 10.278C31.7326 9.92614 31.5104 9.62985 31.2326 9.38911C30.9548 9.14837 30.6308 8.97244 30.2604 8.86133C29.89 8.75022 29.5011 8.69466 29.0937 8.69466C28.6863 8.69466 28.2974 8.75022 27.9271 8.86133C27.5567 8.97244 27.2326 9.14837 26.9548 9.38911C26.6771 9.62985 26.4548 9.92614 26.2882 10.278C26.1215 10.6298 26.0382 11.0558 26.0382 11.5558V19.7502H22.7048V11.4724C22.7048 10.8613 22.8159 10.2132 23.0382 9.52799C23.2789 8.84281 23.6585 8.21318 24.1771 7.63911C24.6956 7.04651 25.353 6.56503 26.1493 6.19466C26.9641 5.80577 27.9456 5.61133 29.0937 5.61133ZM38.5382 5.61133C39.6863 5.61133 40.6585 5.80577 41.4548 6.19466C42.2697 6.56503 42.9363 7.04651 43.4548 7.63911C43.9734 8.21318 44.3437 8.84281 44.5659 9.52799C44.8067 10.2132 44.9271 10.8613 44.9271 11.4724V19.7502H41.5937V11.5558C41.5937 11.0558 41.5104 10.6298 41.3437 10.278C41.1771 9.92614 40.9548 9.62985 40.6771 9.38911C40.3993 9.14837 40.0752 8.97244 39.7048 8.86133C39.3345 8.75022 38.9456 8.69466 38.5382 8.69466C38.1308 8.69466 37.7419 8.75022 37.3715 8.86133C37.0011 8.97244 36.6771 9.14837 36.3993 9.38911C36.1215 9.62985 35.8993 9.92614 35.7326 10.278C35.5659 10.6298 35.4826 11.0558 35.4826 11.5558V19.7502H32.1493L32.7048 11.4724C32.7419 10.8613 32.853 10.2132 33.0382 9.52799C33.2234 8.84281 33.5289 8.21318 33.9548 7.63911C34.3993 7.04651 34.9826 6.56503 35.7048 6.19466C36.4456 5.80577 37.39 5.61133 38.5382 5.61133Z" fill="#0F172A"/>
<path d="M17.7377 10.8609C17.4414 10.1758 16.9877 9.64799 16.3766 9.27762C15.784 8.90725 15.071 8.72206 14.2377 8.72206C13.4044 8.72206 12.6914 8.90725 12.0988 9.27762C11.5062 9.64799 11.0618 10.1758 10.7655 10.8609H17.7377ZM14.2377 16.9443C15.6451 16.9443 16.6914 16.4443 17.3766 15.4443H21.0155C20.5525 16.8517 19.7285 17.9628 18.5433 18.7776C17.3766 19.5924 15.9507 19.9998 14.2655 19.9998C13.1914 19.9998 12.2099 19.8332 11.321 19.4998C10.4322 19.148 9.6729 18.6572 9.04327 18.0276C8.41364 17.398 7.9229 16.6387 7.57104 15.7498C7.23771 14.861 7.07104 13.8795 7.07104 12.8054C7.07104 11.7313 7.23771 10.7591 7.57104 9.88873C7.9229 8.99984 8.41364 8.24984 9.04327 7.63873C9.6729 7.0091 10.4322 6.52762 11.321 6.19428C12.2099 5.84243 13.1914 5.6665 14.2655 5.6665C15.3396 5.6665 16.3118 5.84243 17.1822 6.19428C18.071 6.52762 18.8303 7.0091 19.4599 7.63873C20.0896 8.24984 20.571 8.99984 20.9044 9.88873C21.2562 10.7591 21.4322 11.7313 21.4322 12.8054C21.4322 13.0091 21.4229 13.2035 21.4044 13.3887C21.4044 13.5554 21.3951 13.7313 21.3766 13.9165H10.5155C10.7007 14.8795 11.1173 15.6295 11.7655 16.1665C12.4136 16.685 13.2377 16.9443 14.2377 16.9443Z" fill="#0F172A"/>
<path d="M-0.000244141 11.9724C-0.000244141 9.86133 0.620126 8.27799 1.86087 7.22244C3.10161 6.14837 4.77753 5.61133 6.88865 5.61133V8.66688C5.77753 8.66688 4.90716 8.94466 4.27753 9.50022C3.6479 10.0373 3.33309 10.8613 3.33309 11.9724V19.7502H-0.000244141V11.9724Z" fill="#0F172A"/>
</svg>
