<svg width="15" height="14" viewBox="0 0 15 14" fill="none" xmlns="http://www.w3.org/2000/svg">
<g clip-path="url(#clip0_1019_4498)">
<path d="M7.47689 1.12658C7.59644 0.839132 8.00365 0.839132 8.12321 1.12658L9.56947 4.60382C9.61988 4.725 9.73384 4.8078 9.86467 4.81829L13.6186 5.11924C13.929 5.14412 14.0548 5.5314 13.8184 5.73393L10.9582 8.18394C10.8586 8.26932 10.815 8.40329 10.8455 8.53096L11.7193 12.1942C11.7915 12.497 11.4621 12.7364 11.1964 12.5741L7.98249 10.611C7.87048 10.5426 7.72962 10.5426 7.61761 10.611L4.40369 12.5741C4.13801 12.7364 3.80857 12.497 3.8808 12.1942L4.75462 8.53096C4.78507 8.40329 4.74154 8.26932 4.64187 8.18394L1.78174 5.73393C1.5453 5.5314 1.67113 5.14412 1.98146 5.11924L5.73543 4.81829C5.86626 4.8078 5.98022 4.725 6.03062 4.60382L7.47689 1.12658Z" fill="#FDB022"/>
</g>
<defs>
<clipPath id="clip0_1019_4498">
<rect width="14" height="14" fill="white" transform="translate(0.800049)"/>
</clipPath>
</defs>
</svg>
