<svg width="44" height="32" viewBox="0 0 44 32" fill="none" xmlns="http://www.w3.org/2000/svg">
<g clip-path="url(#clip0_838_16455)">
<path d="M9.68647 6.45339L7.28647 4.06673L5.40647 5.94673L7.79313 8.33339L9.68647 6.45339ZM6.00647 14.0001H2.00647V16.6667H6.00647V14.0001ZM18.0065 0.733398H15.3398V4.66673H18.0065V0.733398ZM27.9398 5.94673L26.0598 4.06673L23.6731 6.45339L25.5531 8.33339L27.9398 5.94673ZM23.6598 24.2134L26.0465 26.6134L27.9265 24.7334L25.5265 22.3467L23.6598 24.2134ZM27.3398 14.0001V16.6667H31.3398V14.0001H27.3398ZM16.6731 7.33339C12.2598 7.33339 8.67313 10.9201 8.67313 15.3334C8.67313 19.7467 12.2598 23.3334 16.6731 23.3334C21.0865 23.3334 24.6731 19.7467 24.6731 15.3334C24.6731 10.9201 21.0865 7.33339 16.6731 7.33339ZM15.3398 29.9334H18.0065V26.0001H15.3398V29.9334ZM5.40647 24.7201L7.28647 26.6001L9.67313 24.2001L7.79313 22.3201L5.40647 24.7201Z" fill="#FBAB0F"/>
</g>
<g clip-path="url(#clip1_838_16455)">
<path d="M38.1856 16.7799C37.4665 13.1844 34.3087 10.4851 30.5152 10.4851C27.5033 10.4851 24.8874 12.1943 23.5847 14.6955C20.4477 15.029 18.009 17.6866 18.009 20.9069C18.009 24.3565 20.8125 27.16 24.2621 27.16H37.8104C40.6869 27.16 43.0213 24.8255 43.0213 21.9491C43.0213 19.1977 40.8849 16.9675 38.1856 16.7799Z" fill="url(#paint0_linear_838_16455)"/>
</g>
<defs>
<linearGradient id="paint0_linear_838_16455" x1="30.5152" y1="10.4851" x2="30.5152" y2="27.16" gradientUnits="userSpaceOnUse">
<stop stop-color="white"/>
<stop offset="1" stop-color="#DBDBDB"/>
</linearGradient>
<clipPath id="clip0_838_16455">
<rect width="32" height="32" fill="white" transform="translate(0.673096)"/>
</clipPath>
<clipPath id="clip1_838_16455">
<rect width="25.0123" height="25.0123" fill="white" transform="translate(18.009 6.31641)"/>
</clipPath>
</defs>
</svg>
